Samim.sfdir
StartChar: exclam
Encoding: 33 33 1
Width: 821
GlyphClass: 2
Flags: W
LayerCount: 2
Fore
SplineSet
319 199 m 5,0,-1
 502 199 l 5,1,-1
 502 10 l 1,2,-1
 319 10 l 1,3,-1
 319 199 l 5,0,-1
319 1483 m 1,4,-1
 502 1483 l 1,5,-1
 502 838.28 l 1,6,-1
 482.545 491 l 1,7,-1
 339.429 491 l 1,8,-1
 319 838.294 l 1,9,-1
 319 1483 l 1,4,-1
EndSplineSet
EndChar
StartChar: quotedbl
Encoding: 34 34 2
Width: 942
GlyphClass: 2
Flags: W
LayerCount: 2
Fore
SplineSet
357 1483 m 1,0,-1
 357 948 l 1,1,-1
 207 948 l 1,2,-1
 207 1483 l 1,3,-1
 357 1483 l 1,0,-1
735 1483 m 1,4,-1
 735 948 l 1,5,-1
 585 948 l 1,6,-1
 585 1483 l 1,7,-1
 735 1483 l 1,4,-1
EndSplineSet
EndChar
StartChar: numbersign
Encoding: 35 35 3
Width: 1716
GlyphClass: 2
Flags: W
LayerCount: 2
Fore
SplineSet
1059.75 911 m 1,0,-1
 748.204 911 l 1,1,-1
 659.174 557 l 1,2,-1
 972.842 557 l 1,3,-1
 1059.75 911 l 1,0,-1
884.185 1460 m 1,4,-1
 780.185 1045 l 1,5,-1
 1092.78 1045 l 1,6,-1
 1197.78 1460 l 1,7,-1
 1337.21 1460 l 1,8,-1
 1234.21 1045 l 1,9,-1
 1549 1045 l 1,10,-1
 1549 911 l 1,11,-1
 1200.16 911 l 1,12,-1
 1113.25 557 l 1,13,-1
 1434 557 l 1,14,-1
 1434 424 l 1,15,-1
 1079.2 424 l 1,16,-1
 975.201 10 l 1,17,-1
 835.793 10 l 1,18,-1
 938.793 424 l 1,19,-1
 625.183 424 l 1,20,-1
 522.183 10 l 1,21,-1
 381.823 10 l 1,22,-1
 485.823 424 l 1,23,-1
 168 424 l 1,24,-1
 168 557 l 1,25,-1
 517.796 557 l 1,26,-1
 606.826 911 l 1,27,-1
 282 911 l 1,28,-1
 282 1045 l 1,29,-1
 640.84 1045 l 1,30,-1
 742.84 1460 l 1,31,-1
 884.185 1460 l 1,4,-1
EndSplineSet
EndChar
StartChar: dollar
Encoding: 36 36 4
Width: 1263
GlyphClass: 2
Flags: W
LayerCount: 2
Fore
SplineSet
660.649 11.3232 m 1,0,-1
 660.649 -291 l 1,1,-1
 584.161 -291 l 1,2,-1
 583.206 9.81152 l 1,3,-1
 573.862 9.99805 l 2,4,5
 474.435 11.9795 474.435 11.9795 373.096 34.2783 c 0,6,7
 272.311 55.874 272.311 55.874 170 98.6367 c 1,8,-1
 170 254.104 l 1,9,10
 266.097 196.252 266.097 196.252 363.53 165.951 c 0,11,12
 467.064 133.013 467.064 133.013 574.55 132 c 2,13,-1
 584.193 131.909 l 1,14,-1
 584.193 606.503 l 1,15,-1
 576.172 607.87 l 2,16,17
 365.382 643.415 365.382 643.415 267.002 727.598 c 0,18,19
 170 810.601 170 810.601 170 956 c 0,20,21
 170 1114.42 170 1114.42 275.531 1205.43 c 0,22,23
 382.005 1297.25 382.005 1297.25 575.29 1311.02 c 2,24,-1
 584.193 1311.66 l 1,25,-1
 584.193 1546 l 1,26,-1
 660.649 1546 l 1,27,-1
 660.649 1314.42 l 1,28,-1
 669.795 1314.01 l 2,29,30
 758.046 1310.04 758.046 1310.04 840.556 1294.66 c 0,31,32
 922.599 1279.98 922.599 1279.98 1002 1254.71 c 1,33,-1
 1002 1103.11 l 1,34,35
 924.829 1140.43 924.829 1140.43 844.184 1161.67 c 0,36,37
 759.596 1184.94 759.596 1184.94 670.621 1188.99 c 2,38,-1
 660.649 1189.44 l 1,39,-1
 660.649 743.424 l 1,40,-1
 668.75 742.117 l 2,41,42
 884.713 707.539 884.713 707.539 989.563 619.348 c 0,43,44
 1093 532.344 1093 532.344 1093 381 c 0,45,46
 1093 216.594 1093 216.594 982.983 122.086 c 0,47,48
 871.997 26.7441 871.997 26.7441 669.538 11.9756 c 2,49,-1
 660.649 11.3232 l 1,0,-1
573.052 760.139 m 2,50,-1
 584.193 758.18 l 1,51,-1
 584.193 1191.18 l 1,52,-1
 573.572 1189.94 l 2,53,54
 459.759 1176.6 459.759 1176.6 398.441 1121.55 c 0,55,56
 334 1065.56 334 1065.56 334 973 c 0,57,58
 334 882.374 334 882.374 394.025 831.379 c 0,59,60
 450.998 781.59 450.998 781.59 573.052 760.139 c 2,50,-1
671.903 587.841 m 2,61,-1
 660.649 589.966 l 1,62,-1
 660.649 133.572 l 1,63,-1
 671.474 135.089 l 2,64,65
 795.639 152.479 795.639 152.479 859.988 209.391 c 0,66,67
 928 267.385 928 267.385 928 362 c 0,68,69
 928 454.64 928 454.64 862.957 509.637 c 0,70,71
 801.535 563.361 801.535 563.361 671.903 587.841 c 2,61,-1
EndSplineSet
EndChar
StartChar: percent
Encoding: 37 37 5
Width: 1906
GlyphClass: 2
Flags: W
LayerCount: 2
Fore
SplineSet
1601.83 588.034 m 0,0,1
 1549.36 667 1549.36 667 1460.46 667 c 0,2,3
 1369.65 667 1369.65 667 1318.05 588.56 c 0,4,5
 1267.7 512.042 1267.7 512.042 1267.7 377 c 0,6,7
 1267.7 243.974 1267.7 243.974 1318.03 166.966 c 0,8,9
 1369.63 88 1369.63 88 1460.46 88 c 0,10,11
 1549.36 88 1549.36 88 1601.83 166.966 c 0,12,13
 1653 243.974 1653 243.974 1653 377 c 0,14,15
 1653 511.029 1653 511.029 1601.83 588.034 c 0,0,1
1219.62 668.007 m 0,16,17
 1308.63 774 1308.63 774 1460.46 774 c 128,-1,18
 1612.36 774 1612.36 774 1702.36 667.544 c 0,19,20
 1793 560.336 1793 560.336 1793 377 c 128,-1,21
 1793 193.68 1793 193.68 1701.9 86.9932 c 0,22,23
 1611.38 -19 1611.38 -19 1460.46 -19 c 0,24,25
 1307.66 -19 1307.66 -19 1219.14 86.9736 c 0,26,27
 1130.02 193.675 1130.02 193.675 1130.02 377 c 0,28,29
 1130.02 561.317 1130.02 561.317 1219.62 668.007 c 0,16,17
587.471 1323.55 m 0,30,31
 535.379 1403 535.379 1403 445.54 1403 c 128,-1,32
 355.64 1403 355.64 1403 303.171 1324.03 c 0,33,34
 252 1247.02 252 1247.02 252 1114 c 0,35,36
 252 978.992 252 978.992 302.662 902.479 c 0,37,38
 354.626 824 354.626 824 445.54 824 c 128,-1,39
 536.355 824 536.355 824 587.955 902.44 c 0,40,41
 638.296 978.967 638.296 978.967 638.296 1114 c 0,42,43
 638.296 1246.03 638.296 1246.03 587.471 1323.55 c 0,30,31
432.467 -19 m 1,44,-1
 1339.15 1510 l 1,45,-1
 1473.53 1510 l 1,46,-1
 566.851 -19 l 1,47,-1
 432.467 -19 l 1,44,-1
203.637 1403.54 m 0,48,49
 293.638 1510 293.638 1510 445.54 1510 c 0,50,51
 596.408 1510 596.408 1510 685.907 1403.99 c 0,52,53
 775.979 1297.29 775.979 1297.29 775.979 1114 c 0,54,55
 775.979 928.707 775.979 928.707 686.397 822.511 c 0,56,57
 597.392 717 597.392 717 445.54 717 c 0,58,59
 292.642 717 292.642 717 203.139 822.953 c 0,60,61
 113 929.66 113 929.66 113 1114 c 0,62,63
 113 1296.34 113 1296.34 203.637 1403.54 c 0,48,49
EndSplineSet
EndChar
StartChar: ampersand
Encoding: 38 38 6
Width: 1597
GlyphClass: 2
Flags: W
LayerCount: 2
Fore
SplineSet
491.351 810.47 m 2,0,1
 399.002 728.27 399.002 728.27 355.657 646.169 c 0,2,3
 312 563.478 312 563.478 312 473 c 0,4,5
 312 322.596 312 322.596 421.249 222.623 c 0,6,7
 530.115 123 530.115 123 694 123 c 0,8,9
 790.834 123 790.834 123 875.548 155.151 c 128,-1,10
 960.235 187.291 960.235 187.291 1034.59 252.481 c 2,11,-1
 1042.53 259.435 l 1,12,-1
 498.485 816.82 l 1,13,-1
 491.351 810.47 l 2,0,1
631.827 908.033 m 2,14,-1
 1148.5 379.159 l 1,15,-1
 1155.33 389.475 l 2,16,17
 1215.09 479.623 1215.09 479.623 1248.51 582.408 c 0,18,19
 1280.4 680.482 1280.4 680.482 1287.44 791 c 1,20,-1
 1452.98 791 l 1,21,22
 1439.89 665.704 1439.89 665.704 1390.73 543.739 c 0,23,24
 1339.19 415.892 1339.19 415.892 1246.95 290.939 c 2,25,-1
 1241.9 284.089 l 1,26,-1
 1510.22 10 l 1,27,-1
 1286.22 10 l 1,28,-1
 1139.63 160.698 l 1,29,-1
 1132.5 154.598 l 2,30,31
 1029.82 66.728 1029.82 66.728 917.435 23.8429 c 128,-1,32
 805.16 -19 805.16 -19 676 -19 c 0,33,34
 438.833 -19 438.833 -19 288.684 115.938 c 0,35,36
 139 250.458 139 250.458 139 461 c 0,37,38
 139 586.246 139 586.246 204.592 696.383 c 0,39,40
 270.556 807.145 270.556 807.145 402.942 904.957 c 2,41,-1
 411.105 910.988 l 1,42,-1
 404.954 919.06 l 2,43,44
 357.783 980.971 357.783 980.971 333.285 1042.21 c 0,45,46
 309 1102.92 309 1102.92 309 1161 c 0,47,48
 309 1318.51 309 1318.51 416.637 1414.02 c 0,49,50
 524.802 1510 524.802 1510 705 1510 c 0,51,52
 786.911 1510 786.911 1510 868.368 1492.23 c 0,53,54
 946.702 1475.14 946.702 1475.14 1028 1441.35 c 1,55,-1
 1028 1282.64 l 1,56,57
 947.888 1324.43 947.888 1324.43 874.962 1347.05 c 0,58,59
 794.529 1372 794.529 1372 725 1372 c 0,60,61
 616.331 1372 616.331 1372 548.035 1314.13 c 0,62,63
 479 1255.63 479 1255.63 479 1163 c 0,64,65
 479 1109.34 479 1109.34 509.823 1055.53 c 0,66,67
 539.945 1002.95 539.945 1002.95 631.827 908.033 c 2,14,-1
EndSplineSet
EndChar
StartChar: quotesingle
Encoding: 39 39 7
Width: 563
GlyphClass: 2
Flags: W
LayerCount: 2
Fore
SplineSet
357 1483 m 1,0,-1
 357 948 l 1,1,-1
 207 948 l 1,2,-1
 207 1483 l 1,3,-1
 357 1483 l 1,0,-1
EndSplineSet
EndChar
StartChar: parenleft
Encoding: 40 40 2
Width: 799
GlyphClass: 2
Flags: W
GlyphCompositionVertical: 3  uni239D%0,0,44,2703 uni239C%1,44,44,2731 uni239B%0,44,0,2740
LayerCount: 2
Fore
SplineSet
617.671 1544 m 1,0,1
 489.523 1320.31 489.523 1320.31 426.393 1101.78 c 0,2,3
 361 875.41 361 875.41 361 643 c 128,-1,4
 361 410.581 361 410.581 426.894 182.722 c 0,5,6
 490.501 -37.2327 490.501 -37.2327 617.699 -260 c 1,7,-1
 480.487 -260 l 1,8,9
 333.251 -28.07 333.251 -28.07 260.001 195.118 c 0,10,11
 186 420.599 186 420.599 186 643 c 0,12,13
 186 864.42 186 864.42 259.504 1088.89 c 0,14,15
 332.269 1311.1 332.269 1311.1 480.48 1544 c 1,16,-1
 617.671 1544 l 1,0,1
EndSplineSet
EndChar
StartChar: parenright
Encoding: 41 41 9
Width: 799
GlyphClass: 2
Flags: W
GlyphCompositionVertical: 3  uni23A0%0,0,44,2703 uni239F%1,44,44,2731 uni239E%0,44,0,2740
LayerCount: 2
Fore
SplineSet
181.266 1544 m 1,0,-1
 318.5 1544 l 1,1,2
 465.754 1311.08 465.754 1311.08 539.003 1088.87 c 0,3,4
 613 864.382 613 864.382 613 643 c 0,5,6
 613 420.599 613 420.599 538.999 195.118 c 0,7,8
 465.749 -28.0702 465.749 -28.0702 318.513 -260 c 1,9,-1
 181.301 -260 l 1,10,11
 308.503 -37.2191 308.503 -37.2191 372.106 182.722 c 0,12,13
 438 410.581 438 410.581 438 643 c 128,-1,14
 438 875.442 438 875.442 372.101 1101.8 c 0,15,16
 308.495 1320.28 308.495 1320.28 181.266 1544 c 1,0,-1
EndSplineSet
EndChar
StartChar: asterisk
Encoding: 42 42 4
Width: 1024
GlyphClass: 2
Flags: W
LayerCount: 2
Fore
SplineSet
949.139 1250.88 m 1,0,-1
 583.008 1053.02 l 1,1,-1
 949.11 854.165 l 1,2,-1
 901.534 773.777 l 1,3,-1
 559 980.725 l 1,4,-1
 559 596 l 1,5,-1
 465 596 l 1,6,-1
 465 980.725 l 1,7,-1
 122.466 773.777 l 1,8,-1
 74.89 854.165 l 1,9,-1
 440.992 1053.02 l 1,10,-1
 74.8608 1250.88 l 1,11,-1
 122.504 1332.2 l 1,12,-1
 449.829 1134.44 l 2,13,14
 457.415 1129.86 457.415 1129.86 465 1125.27 c 1,15,-1
 465 1510 l 1,16,-1
 559 1510 l 1,17,-1
 559 1125.27 l 1,18,19
 566.585 1129.86 566.585 1129.86 574.171 1134.44 c 2,20,-1
 901.495 1332.2 l 1,21,-1
 949.139 1250.88 l 1,0,-1
EndSplineSet
EndChar
StartChar: plus
Encoding: 43 43 11
Width: 1716
GlyphClass: 2
Flags: W
LayerCount: 2
Fore
SplineSet
932 1274 m 1,0,-1
 932 717 l 1,1,-1
 1489 717 l 1,2,-1
 1489 567 l 1,3,-1
 932 567 l 1,4,-1
 932 10 l 1,5,-1
 784 10 l 1,6,-1
 784 567 l 1,7,-1
 227 567 l 1,8,-1
 227 717 l 1,9,-1
 784 717 l 1,10,-1
 784 1274 l 1,11,-1
 932 1274 l 1,0,-1
EndSplineSet
EndChar
StartChar: comma
Encoding: 44 44 12
Width: 651
GlyphClass: 2
Flags: W
LayerCount: 2
Fore
SplineSet
250 244 m 1,0,-1
 441 244 l 1,1,-1
 441 84.4133 l 1,2,-1
 280.888 -228 l 1,3,-1
 170.886 -228 l 1,4,-1
 250 80.7391 l 1,5,-1
 250 244 l 1,0,-1
EndSplineSet
EndChar
StartChar: hyphen
Encoding: 45 45 13
Width: 739
GlyphClass: 2
Flags: W
LayerCount: 2
Fore
SplineSet
110 633 m 1,0,-1
 629 633 l 1,1,-1
 629 489 l 1,2,-1
 110 489 l 1,3,-1
 110 633 l 1,0,-1
EndSplineSet
EndChar
StartChar: period
Encoding: 46 46 14
Width: 651
GlyphClass: 2
Flags: W
LayerCount: 2
Fore
SplineSet
419.5 166.3 m 2,0,-1
 419.5 37.2998 l 2,1,2
 419.5 0.299805 419.5 0.299805 389.5 0.299805 c 2,3,-1
 262.5 0.299805 l 2,4,5
 228.5 0.299805 228.5 0.299805 228.5 38.2998 c 2,6,-1
 228.5 166.3 l 2,7,8
 228.5 198.3 228.5 198.3 266.5 198.3 c 2,9,-1
 381.5 198.3 l 2,10,11
 419.5 198.3 419.5 198.3 419.5 166.3 c 2,0,-1
EndSplineSet
EndChar
StartChar: slash
Encoding: 47 47 7
Width: 690
GlyphClass: 2
Flags: W
LayerCount: 2
Fore
SplineSet
527.377 1483 m 1,0,-1
 676.444 1483 l 1,1,-1
 162.623 -180 l 1,2,-1
 13.5562 -180 l 1,3,-1
 527.377 1483 l 1,0,-1
EndSplineSet
EndChar
StartChar: zero
Encoding: 48 48 320
Width: 1263
Flags: W
LayerCount: 2
Fore
SplineSet
866.012 1211.05 m 0,0,1
 787.853 1370 787.853 1370 631 1370 c 0,2,3
 475.109 1370 475.109 1370 396.95 1211.05 c 0,4,5
 318 1055.4 318 1055.4 318 745 c 0,6,7
 318 435.587 318 435.587 396.95 279.947 c 0,8,9
 475.114 121 475.114 121 631 121 c 0,10,11
 787.847 121 787.847 121 866.012 279.947 c 0,12,13
 945 435.587 945 435.587 945 745 c 0,14,15
 945 1055.4 945 1055.4 866.012 1211.05 c 0,0,1
265.817 1315.95 m 0,16,17
 394.777 1510 394.777 1510 631 1510 c 128,-1,18
 867.223 1510 867.223 1510 996.183 1315.95 c 0,19,20
 1127 1119.95 1127 1119.95 1127 745 c 0,21,22
 1127 371.033 1127 371.033 996.183 175.052 c 0,23,24
 867.214 -19 867.214 -19 631 -19 c 128,-1,25
 394.786 -19 394.786 -19 265.817 175.052 c 0,26,27
 135 371.033 135 371.033 135 745 c 0,28,29
 135 1119.95 135 1119.95 265.817 1315.95 c 0,16,17
EndSplineSet
EndChar
StartChar: one
Encoding: 49 49 321
Width: 1263
Flags: W
LayerCount: 2
Fore
SplineSet
254 10 m 1,0,-1
 254 160 l 1,1,-1
 578 160 l 1,2,-1
 578 1321.21 l 1,3,-1
 225 1249.21 l 1,4,-1
 225 1412.82 l 1,5,-1
 567.581 1483 l 1,6,-1
 748.463 1483 l 1,7,-1
 748.463 160 l 1,8,-1
 1074 160 l 1,9,-1
 1074 10 l 1,10,-1
 254 10 l 1,0,-1
EndSplineSet
EndChar
StartChar: two
Encoding: 50 50 322
Width: 1263
Flags: W
LayerCount: 2
Fore
SplineSet
375.857 176.999 m 2,0,-1
 359.2 160 l 1,1,-1
 1058 160 l 1,2,-1
 1058 10 l 1,3,-1
 150 10 l 1,4,-1
 150 165.957 l 1,5,6
 264.881 284.769 264.881 284.769 457.635 482.465 c 0,7,8
 647.219 683.151 647.219 683.151 696.05 741.353 c 0,9,10
 789.415 851.303 789.415 851.303 827.408 927.957 c 0,11,12
 867 1005.6 867 1005.6 867 1081 c 0,13,14
 867 1204.46 867 1204.46 781.652 1282.44 c 0,15,16
 699.256 1360 699.256 1360 567.741 1360 c 0,17,18
 475.62 1360 475.62 1360 372.515 1326.54 c 0,19,20
 272.893 1295.38 272.893 1295.38 160 1233.94 c 1,21,-1
 160 1414.23 l 1,22,23
 278.095 1461.17 278.095 1461.17 380.296 1485.27 c 0,24,25
 481.093 1510 481.093 1510 563.924 1510 c 4,26,27
 781.81 1510 781.81 1510 915.565 1396.34 c 0,28,29
 1050 1283.35 1050 1283.35 1050 1094 c 0,30,31
 1050 1004 1050 1004 1016.27 923.358 c 0,32,33
 982.319 842.172 982.319 842.172 892.331 731.419 c 1,34,35
 867.641 702.78 867.641 702.78 737.407 564.453 c 0,36,37
 609.586 425.991 609.586 425.991 375.857 176.999 c 2,0,-1
EndSplineSet
EndChar
StartChar: three
Encoding: 51 51 323
Width: 1263
Flags: W
LayerCount: 2
Fore
SplineSet
760.985 804.203 m 1,0,-1
 801.214 795.221 l 2,1,2
 940.521 764.948 940.521 764.948 1019.81 669.605 c 128,-1,3
 1099 574.385 1099 574.385 1099 434 c 0,4,5
 1099 217.825 1099 217.825 950.771 99.8242 c 0,6,7
 803.705 -19 803.705 -19 538.924 -19 c 0,8,9
 449.794 -19 449.794 -19 353.328 -0.668945 c 0,10,11
 257.824 17.0889 257.824 17.0889 156 52.1172 c 1,12,-1
 156 222.848 l 1,13,14
 235.369 179.35 235.369 179.35 327.574 156.299 c 0,15,16
 427.623 131 427.623 131 533.178 131 c 0,17,18
 718.328 131 718.328 131 816.162 208.015 c 0,19,20
 918 286.019 918 286.019 918 434 c 0,21,22
 918 570.786 918 570.786 823.107 648.288 c 0,23,24
 731.901 725 731.901 725 570.524 725 c 2,25,-1
 413.481 725 l 1,26,-1
 413.481 871 l 1,27,-1
 578.185 871 l 2,28,29
 724.07 871 724.07 871 802.274 932.512 c 0,30,31
 883 995.015 883 995.015 883 1112 c 0,32,33
 883 1231.99 883 1231.99 799.887 1296.48 c 0,34,35
 719.278 1360 719.278 1360 570.524 1360 c 0,36,37
 490.148 1360 490.148 1360 398.139 1341.83 c 0,38,39
 308.27 1324.8 308.27 1324.8 201 1289.83 c 1,40,-1
 201 1448.39 l 1,41,42
 311.79 1478.79 311.79 1478.79 407.805 1494.12 c 0,43,44
 503.29 1510 503.29 1510 587.76 1510 c 0,45,46
 804.715 1510 804.715 1510 933.851 1407.61 c 0,47,48
 1064 1306.11 1064 1306.11 1064 1133 c 0,49,50
 1064 1012.61 1064 1012.61 995.307 929.889 c 0,51,52
 926.384 846.896 926.384 846.896 800.877 814.697 c 2,53,-1
 760.985 804.203 l 1,0,-1
EndSplineSet
EndChar
StartChar: four
Encoding: 52 52 324
Width: 1263
Flags: W
LayerCount: 2
Fore
SplineSet
759.143 510 m 1,0,-1
 759.143 1351.18 l 1,1,-1
 235.729 510 l 1,2,-1
 759.143 510 l 1,0,-1
100 544.011 m 1,3,-1
 703.539 1483 l 1,4,-1
 935 1483 l 1,5,-1
 935 510 l 1,6,-1
 1148 510 l 1,7,-1
 1148 362 l 1,8,-1
 935 362 l 1,9,-1
 935 10 l 1,10,-1
 759.143 10 l 1,11,-1
 759.143 362 l 1,12,-1
 100 362 l 1,13,-1
 100 544.011 l 1,3,-1
EndSplineSet
EndChar
StartChar: five
Encoding: 53 53 325
Width: 1263
Flags: W
LayerCount: 2
Fore
SplineSet
221 758.37 m 1,0,-1
 221 1483 l 1,1,-1
 974 1483 l 1,2,-1
 974 1333 l 1,3,-1
 386 1333 l 1,4,-1
 386 943.025 l 1,5,-1
 399.227 947.535 l 2,6,7
 440.762 962.275 440.762 962.275 482.076 969.643 c 128,-1,8
 523.341 977 523.341 977 564.596 977 c 0,9,10
 799.806 977 799.806 977 941.157 842.708 c 0,11,12
 1084 708.676 1084 708.676 1084 479 c 0,13,14
 1084 242.484 1084 242.484 937.352 111.97 c 0,15,16
 792.306 -19 792.306 -19 534.961 -19 c 0,17,18
 445.875 -19 445.875 -19 351.119 -3.13184 c 0,19,20
 258.031 12.1445 258.031 12.1445 158 42.4014 c 1,21,-1
 158 221.356 l 1,22,23
 242.557 177.553 242.557 177.553 331.574 155.299 c 0,24,25
 427.668 131 427.668 131 531.137 131 c 0,26,27
 700.196 131 700.196 131 799.478 224.57 c 0,28,29
 902 318.551 902 318.551 902 479 c 128,-1,30
 902 639.449 902 639.449 799.478 733.43 c 0,31,32
 700.196 827 700.196 827 531.137 827 c 0,33,34
 452.649 827 452.649 827 373.318 808.759 c 0,35,36
 298.846 792.107 298.846 792.107 221 758.37 c 1,0,-1
EndSplineSet
EndChar
StartChar: six
Encoding: 54 54 326
Width: 1263
Flags: W
LayerCount: 2
Fore
SplineSet
869.838 740.498 m 0,0,1
 790.521 837 790.521 837 655.326 837 c 128,-1,2
 520.131 837 520.131 837 440.814 740.498 c 0,3,4
 361 644.69 361 644.69 361 479 c 0,5,6
 361 314.324 361 314.324 440.798 218.022 c 0,7,8
 520.116 121 520.116 121 655.326 121 c 128,-1,9
 790.536 121 790.536 121 869.854 218.022 c 0,10,11
 951 314.323 951 314.323 951 479 c 0,12,13
 951 644.69 951 644.69 869.838 740.498 c 0,0,1
883.778 1495.18 m 0,14,15
 957.177 1480.94 957.177 1480.94 1037 1452.93 c 1,16,-1
 1037 1291.65 l 1,17,18
 966.684 1323.35 966.684 1323.35 895.881 1340.71 c 0,19,20
 819.957 1360 819.957 1360 745.707 1360 c 0,21,22
 548.714 1360 548.714 1360 444.393 1221.16 c 0,23,24
 339.189 1083.68 339.189 1083.68 324.015 807.549 c 2,25,-1
 322.037 771.543 l 1,26,-1
 342.276 801.388 l 2,27,28
 399.437 886.305 399.437 886.305 482.863 931.637 c 128,-1,29
 566.345 977 566.345 977 666.864 977 c 0,30,31
 879.097 977 879.097 977 1006.27 843.59 c 0,32,33
 1134 709.984 1134 709.984 1134 479 c 0,34,35
 1134 253.08 1134 253.08 1000.85 116.993 c 0,36,37
 868.582 -19 868.582 -19 655.326 -19 c 0,38,39
 411.344 -19 411.344 -19 278.23 175.181 c 0,40,41
 143 371.116 143 371.116 143 745 c 0,42,43
 143 1095.49 143 1095.49 308.816 1303.26 c 0,44,45
 470.531 1510 470.531 1510 738.015 1510 c 0,46,47
 810.186 1510 810.186 1510 883.778 1495.18 c 0,14,15
EndSplineSet
EndChar
StartChar: seven
Encoding: 55 55 327
Width: 1263
Flags: W
LayerCount: 2
Fore
SplineSet
168 1333 m 1,0,-1
 168 1483 l 1,1,-1
 1088 1483 l 1,2,-1
 1088 1408.86 l 1,3,-1
 562.207 10 l 1,4,-1
 379.572 10 l 1,5,-1
 869.572 1333 l 1,6,-1
 168 1333 l 1,0,-1
EndSplineSet
EndChar
StartChar: eight
Encoding: 56 56 328
Width: 1263
Flags: W
LayerCount: 2
Fore
SplineSet
856.179 639.311 m 0,0,1
 774.126 719 774.126 719 631 719 c 0,2,3
 488.832 719 488.832 719 406.782 639.311 c 0,4,5
 322 559.346 322 559.346 322 420 c 128,-1,6
 322 280.654 322 280.654 406.782 200.689 c 0,7,8
 488.832 121 488.832 121 631 121 c 128,-1,9
 773.172 121 773.172 121 855.7 201.191 c 0,10,11
 941 281.658 941 281.658 941 420 c 0,12,13
 941 559.349 941 559.349 856.179 639.311 c 0,0,1
478.14 794.73 m 1,14,-1
 439.181 804.71 l 2,15,16
 314.639 835.91 314.639 835.91 244.253 922.315 c 128,-1,17
 174 1008.56 174 1008.56 174 1133 c 0,18,19
 174 1307.25 174 1307.25 297.82 1408.25 c 0,20,21
 421.085 1510 421.085 1510 631 1510 c 0,22,23
 841.861 1510 841.861 1510 964.664 1408.26 c 0,24,25
 1088 1307.27 1088 1307.27 1088 1133 c 0,26,27
 1088 1008.56 1088 1008.56 1017.75 922.315 c 128,-1,28
 947.356 835.905 947.356 835.905 823.764 804.706 c 2,29,-1
 784.975 794.693 l 1,30,-1
 823.899 785.261 l 2,31,32
 964.424 752.031 964.424 752.031 1043.78 655.645 c 128,-1,33
 1123 559.422 1123 559.422 1123 420 c 0,34,35
 1123 207.53 1123 207.53 993.913 94.5244 c 0,36,37
 864.752 -19 864.752 -19 631 -19 c 128,-1,38
 397.253 -19 397.253 -19 268.087 94.5244 c 0,39,40
 139 207.535 139 207.535 139 420 c 0,41,42
 139 559.396 139 559.396 218.701 655.621 c 128,-1,43
 298.551 752.025 298.551 752.025 439.062 785.261 c 2,44,-1
 478.14 794.73 l 1,14,-1
429.027 1302.45 m 0,45,46
 355 1234.46 355 1234.46 355 1114 c 128,-1,47
 355 993.535 355 993.535 429.027 925.555 c 0,48,49
 501.436 858 501.436 858 631 858 c 0,50,51
 759.569 858 759.569 858 832.925 925.509 c 0,52,53
 908 993.496 908 993.496 908 1114 c 128,-1,54
 908 1234.5 908 1234.5 832.925 1302.49 c 0,55,56
 759.569 1370 759.569 1370 631 1370 c 0,57,58
 501.429 1370 501.429 1370 429.027 1302.45 c 0,45,46
EndSplineSet
EndChar
StartChar: nine
Encoding: 57 57 329
Width: 1263
Flags: W
LayerCount: 2
Fore
SplineSet
378.729 -4.17969 m 0,0,1
 304.861 10.0566 304.861 10.0566 225 38.0674 c 1,2,-1
 225 199.354 l 1,3,4
 295.345 167.649 295.345 167.649 366.633 150.284 c 0,5,6
 443.061 131 443.061 131 516.32 131 c 0,7,8
 713.282 131 713.282 131 817.601 269.328 c 0,9,10
 922.806 406.297 922.806 406.297 937.985 683.453 c 2,11,-1
 939.965 719.626 l 1,12,-1
 919.709 689.592 l 2,13,14
 863.532 605.714 863.532 605.714 780.143 560.884 c 128,-1,15
 696.655 516 696.655 516 595.157 516 c 0,16,17
 383.886 516 383.886 516 256.703 648.437 c 0,18,19
 129 781.033 129 781.033 129 1012 c 0,20,21
 129 1237.93 129 1237.93 262.147 1374.01 c 0,22,23
 394.426 1510 394.426 1510 607.656 1510 c 0,24,25
 851.614 1510 851.614 1510 984.26 1315.83 c 0,26,27
 1119 1119.89 1119 1119.89 1119 745 c 0,28,29
 1119 395.484 1119 395.484 953.675 187.727 c 0,30,31
 792.414 -19 792.414 -19 524.973 -19 c 0,32,33
 452.82 -19 452.82 -19 378.729 -4.17969 c 0,0,1
393.16 750.502 m 0,34,35
 472.471 654 472.471 654 607.656 654 c 128,-1,36
 742.84 654 742.84 654 822.151 750.502 c 0,37,38
 902 846.31 902 846.31 902 1012 c 0,39,40
 902 1176.68 902 1176.68 822.167 1272.98 c 0,41,42
 742.855 1370 742.855 1370 607.656 1370 c 128,-1,43
 472.456 1370 472.456 1370 393.144 1272.98 c 0,44,45
 312 1176.68 312 1176.68 312 1012 c 0,46,47
 312 846.31 312 846.31 393.16 750.502 c 0,34,35
EndSplineSet
EndChar
StartChar: colon
Encoding: 58 58 16
Width: 690
GlyphClass: 2
Flags: W
LayerCount: 2
Fore
SplineSet
440.5 774.3 m 6,0,-1
 440.5 645.3 l 6,1,2
 440.5 608.3 440.5 608.3 410.5 608.3 c 6,3,-1
 283.5 608.3 l 6,4,5
 249.5 608.3 249.5 608.3 249.5 646.3 c 6,6,-1
 249.5 774.3 l 6,7,8
 249.5 806.3 249.5 806.3 287.5 806.3 c 6,9,-1
 402.5 806.3 l 6,10,11
 440.5 806.3 440.5 806.3 440.5 774.3 c 6,0,-1
440.5 166.3 m 2,12,-1
 440.5 37.2998 l 2,13,14
 440.5 0.299805 440.5 0.299805 410.5 0.299805 c 2,15,-1
 283.5 0.299805 l 2,16,17
 249.5 0.299805 249.5 0.299805 249.5 38.2998 c 2,18,-1
 249.5 166.3 l 2,19,20
 249.5 198.3 249.5 198.3 287.5 198.3 c 2,21,-1
 402.5 198.3 l 2,22,23
 440.5 198.3 440.5 198.3 440.5 166.3 c 2,12,-1
EndSplineSet
EndChar
StartChar: semicolon
Encoding: 59 59 17
Width: 690
GlyphClass: 2
Flags: W
LayerCount: 2
Fore
SplineSet
250 1013 m 1,0,-1
 441 1013 l 1,1,-1
 441 815 l 1,2,-1
 250 815 l 1,3,-1
 250 1013 l 1,0,-1
250 244 m 1,4,-1
 441 244 l 1,5,-1
 441 84.4133 l 1,6,-1
 280.888 -228 l 1,7,-1
 170.886 -228 l 1,8,-1
 250 80.7391 l 1,9,-1
 250 244 l 1,4,-1
EndSplineSet
EndChar
StartChar: less
Encoding: 60 60 18
Width: 1716
GlyphClass: 2
Flags: W
LayerCount: 2
Fore
SplineSet
1489 1015.06 m 1,0,-1
 437.082 640.974 l 1,1,-1
 1489 268.93 l 1,2,-1
 1489 108.265 l 1,3,-1
 227 566.01 l 1,4,-1
 227 717.99 l 1,5,-1
 1489 1175.74 l 1,6,-1
 1489 1015.06 l 1,0,-1
EndSplineSet
EndChar
StartChar: equal
Encoding: 61 61 19
Width: 1716
GlyphClass: 2
Flags: W
GlyphCompositionHorizontal: 2  equal%0,0,44,1433 equal%1,44,0,1433
LayerCount: 2
Fore
SplineSet
227 920 m 1,0,-1
 1489 920 l 1,1,-1
 1489 772 l 1,2,-1
 227 772 l 1,3,-1
 227 920 l 1,0,-1
227 512 m 1,4,-1
 1489 512 l 1,5,-1
 1489 362 l 1,6,-1
 227 362 l 1,7,-1
 227 512 l 1,4,-1
EndSplineSet
EndChar
StartChar: greater
Encoding: 62 62 20
Width: 1716
GlyphClass: 2
Flags: W
LayerCount: 2
Fore
SplineSet
227 1015.05 m 1,0,-1
 227 1175.74 l 1,1,-1
 1489 717.99 l 1,2,-1
 1489 566.01 l 1,3,-1
 227 108.265 l 1,4,-1
 227 268.934 l 1,5,-1
 1276.87 640.974 l 1,6,-1
 227 1015.05 l 1,0,-1
EndSplineSet
EndChar
StartChar: question
Encoding: 63 63 21
Width: 1087
GlyphClass: 2
Flags: W
LayerCount: 2
Fore
SplineSet
401 200 m 5,0,-1
 584 200 l 5,1,-1
 584 10 l 1,2,-1
 401 10 l 1,3,-1
 401 200 l 5,0,-1
578 411 m 1,4,-1
 407 411 l 1,5,-1
 407 555 l 2,6,7
 407 653.94 407 653.94 434.184 717.044 c 128,-1,8
 461.378 780.171 461.378 780.171 549.97 864.829 c 1,9,-1
 639.922 953.781 l 1,10,11
 698.007 1007.79 698.007 1007.79 724.29 1056.23 c 0,12,13
 751 1105.46 751 1105.46 751 1157 c 0,14,15
 751 1250.66 751 1250.66 681.931 1308.66 c 0,16,17
 613.644 1366 613.644 1366 502 1366 c 0,18,19
 421.099 1366 421.099 1366 329.858 1330.31 c 0,20,21
 246.878 1297.86 246.878 1297.86 157 1237.89 c 1,22,-1
 157 1401.35 l 1,23,24
 247.764 1455.55 247.764 1455.55 340.287 1482.4 c 0,25,26
 435.411 1510 435.411 1510 537 1510 c 0,27,28
 717.264 1510 717.264 1510 825.937 1415.46 c 0,29,30
 934 1321.44 934 1321.44 934 1167 c 0,31,32
 934 1093.47 934 1093.47 899.148 1027.15 c 0,33,34
 863.918 960.112 863.918 960.112 775.052 875.193 c 1,35,-1
 686.97 789.112 l 2,36,37
 639.392 741.534 639.392 741.534 619.446 714.427 c 0,38,39
 598.973 686.604 598.973 686.604 590.428 659.898 c 0,40,41
 584.138 637.882 584.138 637.882 581.05 606.995 c 0,42,43
 578 576.493 578 576.493 578 524 c 2,44,-1
 578 411 l 1,4,-1
EndSplineSet
EndChar
StartChar: at
Encoding: 64 64 22
Width: 2048
GlyphClass: 2
Flags: W
LayerCount: 2
Fore
SplineSet
752 537 m 0,0,1
 752 390.255 752 390.255 825.46 305.931 c 0,2,3
 899.45 221 899.45 221 1028 221 c 0,4,5
 1155.58 221 1155.58 221 1229.08 306.481 c 0,6,7
 1302 391.286 1302 391.286 1302 537 c 0,8,9
 1302 680.758 1302 680.758 1227.53 766.075 c 0,10,11
 1152.54 852 1152.54 852 1026 852 c 0,12,13
 900.454 852 900.454 852 825.963 766.572 c 0,14,15
 752 681.75 752 681.75 752 537 c 0,0,1
1299.11 244.146 m 0,16,17
 1240.58 169.032 1240.58 169.032 1165.24 133.547 c 128,-1,18
 1089.76 98 1089.76 98 989 98 c 0,19,20
 821.58 98 821.58 98 717.069 219.035 c 0,21,22
 612 340.716 612 340.716 612 537 c 128,-1,23
 612 733.268 612 733.268 717.567 855.462 c 0,24,25
 822.567 977 822.567 977 989 977 c 0,26,27
 1089.72 977 1089.72 977 1165.67 940.487 c 128,-1,28
 1241.54 904.012 1241.54 904.012 1299.1 829.868 c 2,29,-1
 1317 806.811 l 1,30,-1
 1317 957 l 1,31,-1
 1440 957 l 1,32,-1
 1440 219.38 l 1,33,-1
 1451.49 221.112 l 2,34,35
 1601.57 243.725 1601.57 243.725 1686.54 358.552 c 0,36,37
 1771 472.691 1771 472.691 1771 653 c 0,38,39
 1771 761.633 1771 761.633 1738.98 857.177 c 128,-1,40
 1706.91 952.873 1706.91 952.873 1641.83 1034.22 c 0,41,42
 1536.33 1167.1 1536.33 1167.1 1384.72 1237.57 c 128,-1,43
 1233.18 1308 1233.18 1308 1055 1308 c 0,44,45
 930.609 1308 930.609 1308 816.236 1275.11 c 128,-1,46
 701.758 1242.19 701.758 1242.19 604.497 1177.35 c 1,47,48
 445.395 1073.98 445.395 1073.98 355.682 906.216 c 128,-1,49
 266 738.506 266 738.506 266 543 c 0,50,51
 266 382.01 266 382.01 324.259 241.177 c 128,-1,52
 382.549 100.272 382.549 100.272 492.963 -7.10481 c 1,53,54
 599.42 -112.548 599.42 -112.548 739.327 -167.801 c 128,-1,55
 879.098 -223 879.098 -223 1038 -223 c 0,56,57
 1168.69 -223 1168.69 -223 1294.8 -178.94 c 0,58,59
 1416.05 -136.578 1416.05 -136.578 1518.37 -58.8701 c 1,60,-1
 1595.77 -154.322 l 1,61,62
 1475.04 -245.882 1475.04 -245.882 1334.2 -295.059 c 0,63,64
 1188.31 -346 1188.31 -346 1038 -346 c 0,65,66
 854.916 -346 854.916 -346 692.709 -281.213 c 128,-1,67
 530.56 -216.45 530.56 -216.45 403.987 -92.8456 c 128,-1,68
 277.479 30.6941 277.479 30.6941 211.261 193.272 c 128,-1,69
 145 355.957 145 355.957 145 543 c 0,70,71
 145 723.019 145 723.019 212.246 886.19 c 128,-1,72
 279.494 1049.37 279.494 1049.37 404.016 1172.87 c 0,73,74
 531.57 1298.45 531.57 1298.45 698.709 1365.21 c 128,-1,75
 865.895 1432 865.895 1432 1053 1432 c 0,76,77
 1262.73 1432 1262.73 1432 1442.18 1345.98 c 128,-1,78
 1621.53 1260.01 1621.53 1260.01 1743.06 1101.92 c 0,79,80
 1817.06 1005.23 1817.06 1005.23 1856.04 891.752 c 128,-1,81
 1895 778.326 1895 778.326 1895 657 c 0,82,83
 1895 398.286 1895 398.286 1739.09 249.228 c 0,84,85
 1586.08 102.949 1586.08 102.949 1317 94.2664 c 1,86,-1
 1317 267.103 l 1,87,88
 1309.14 257.184 1309.14 257.184 1299.11 244.146 c 0,16,17
EndSplineSet
EndChar
StartChar: bracketleft
Encoding: 91 91 23
Width: 799
GlyphClass: 2
Flags: W
GlyphCompositionVertical: 3  uni23A3%0,0,44,2703 uni23A2%1,44,44,2731 uni23A1%0,44,0,2699
LayerCount: 2
Fore
SplineSet
186 1546 m 1,0,-1
 590 1546 l 1,1,-1
 590 1423 l 1,2,-1
 350 1423 l 1,3,-1
 350 -137 l 1,4,-1
 590 -137 l 1,5,-1
 590 -260 l 1,6,-1
 186 -260 l 1,7,-1
 186 1546 l 1,0,-1
EndSplineSet
EndChar
StartChar: backslash
Encoding: 92 92 24
Width: 690
GlyphClass: 2
Flags: W
LayerCount: 2
Fore
SplineSet
162.623 1483 m 1,0,-1
 676.444 -180 l 1,1,-1
 527.377 -180 l 1,2,-1
 13.5562 1483 l 1,3,-1
 162.623 1483 l 1,0,-1
EndSplineSet
EndChar
StartChar: bracketright
Encoding: 93 93 25
Width: 799
GlyphClass: 2
Flags: W
GlyphCompositionVertical: 3  uni23A6%0,0,44,2687 uni23A5%1,44,44,2713 uni23A4%0,44,0,2699
LayerCount: 2
Fore
SplineSet
613 1546 m 1,0,-1
 613 -260 l 1,1,-1
 209 -260 l 1,2,-1
 209 -137 l 1,3,-1
 448 -137 l 1,4,-1
 448 1423 l 1,5,-1
 209 1423 l 1,6,-1
 209 1546 l 1,7,-1
 613 1546 l 1,0,-1
EndSplineSet
EndChar
StartChar: asciicircum
Encoding: 94 94 26
Width: 1716
GlyphClass: 2
Flags: W
LayerCount: 2
Fore
SplineSet
951.783 1483 m 1,0,-1
 1475.29 946 l 1,1,-1
 1301.83 946 l 1,2,-1
 858 1344.44 l 1,3,-1
 414.17 946 l 1,4,-1
 240.714 946 l 1,5,-1
 764.217 1483 l 1,6,-1
 951.783 1483 l 1,0,-1
EndSplineSet
EndChar
StartChar: underscore
Encoding: 95 95 27
Width: 1024
GlyphClass: 2
Flags: W
GlyphCompositionHorizontal: 2  underscore%0,0,44,1188 underscore%1,44,0,1188
LayerCount: 2
Fore
SplineSet
1034 -350 m 1,0,-1
 1034 -473 l 1,1,-1
 -10 -473 l 1,2,-1
 -10 -350 l 1,3,-1
 1034 -350 l 1,0,-1
EndSplineSet
EndChar
StartChar: grave
Encoding: 96 96 28
Width: 1024
GlyphClass: 2
Flags: W
LayerCount: 2
Fore
SplineSet
362.016 1628 m 1,0,-1
 628.936 1274 l 1,1,-1
 500.549 1274 l 1,2,-1
 191.982 1628 l 1,3,-1
 362.016 1628 l 1,0,-1
EndSplineSet
EndChar
StartChar: braceleft
Encoding: 123 123 29
Width: 1303
GlyphClass: 2
Flags: W
GlyphCompositionVertical: 5  uni23A9%0,0,44,2700 uni23AA%1,44,44,2742 uni23A8%0,44,44,2727 uni23AA%1,44,44,2742 uni23A7%0,44,0,2719
LayerCount: 2
Fore
SplineSet
1037 -200 m 1,0,-1
 1037 -324 l 1,1,-1
 985 -324 l 2,2,3
 739.763 -324 739.763 -324 658.088 -252.477 c 0,4,5
 577 -181.467 577 -181.467 577 35 c 2,6,-1
 577 274 l 2,7,8
 577 428.932 577 428.932 520.319 489.814 c 0,9,10
 463.355 551 463.355 551 317 551 c 2,11,-1
 266 551 l 1,12,-1
 266 674 l 1,13,-1
 317 674 l 2,14,15
 464.352 674 464.352 674 520.821 734.688 c 0,16,17
 577 795.065 577 795.065 577 948 c 2,18,-1
 577 1188 l 2,19,20
 577 1404.45 577 1404.45 658.063 1474.95 c 0,21,22
 739.746 1546 739.746 1546 985 1546 c 2,23,-1
 1037 1546 l 1,24,-1
 1037 1423 l 1,25,-1
 979 1423 l 2,26,27
 833.788 1423 833.788 1423 787.848 1375.99 c 128,-1,28
 742 1329.07 742 1329.07 742 1184 c 2,29,-1
 742 936 l 2,30,31
 742 781.928 742 781.928 698.081 713.396 c 0,32,33
 654.788 645.842 654.788 645.842 548.784 621.751 c 2,34,-1
 507.332 612.33 l 1,35,-1
 548.636 602.283 l 2,36,37
 655.711 576.241 655.711 576.241 698.554 508.647 c 0,38,39
 742 440.099 742 440.099 742 287 c 2,40,-1
 742 39 l 2,41,42
 742 -106.073 742 -106.073 787.848 -152.989 c 128,-1,43
 833.789 -200 833.789 -200 979 -200 c 2,44,-1
 1037 -200 l 1,0,-1
EndSplineSet
EndChar
StartChar: braceright
Encoding: 125 125 31
Width: 1303
GlyphClass: 2
Flags: W
GlyphCompositionVertical: 5  uni23AD%0,0,44,2700 uni23AA%1,44,44,2742 uni23AC%0,44,44,2727 uni23AA%1,44,44,2742 uni23AB%0,44,0,2719
LayerCount: 2
Fore
SplineSet
266 -200 m 1,0,-1
 326 -200 l 2,1,2
 470.177 -200 470.177 -200 515.612 -154.03 c 128,-1,3
 561 -108.107 561 -108.107 561 39 c 2,4,-1
 561 287 l 2,5,6
 561 440.099 561 440.099 604.446 508.647 c 0,7,8
 647.288 576.241 647.288 576.241 754.364 602.283 c 2,9,-1
 795.849 612.375 l 1,10,-1
 754.197 621.756 l 2,11,12
 647.231 645.847 647.231 645.847 604.446 713.353 c 0,13,14
 561 781.904 561 781.904 561 936 c 2,15,-1
 561 1184 l 2,16,17
 561 1330.07 561 1330.07 515.653 1376.49 c 128,-1,18
 470.213 1423 470.213 1423 326 1423 c 2,19,-1
 266 1423 l 1,20,-1
 266 1546 l 1,21,-1
 319 1546 l 2,22,23
 564.232 1546 564.232 1546 644.893 1474.99 c 0,24,25
 725 1404.47 725 1404.47 725 1188 c 2,26,-1
 725 948 l 2,27,28
 725 795.041 725 795.041 781.711 734.654 c 0,29,30
 838.673 674 838.673 674 985 674 c 2,31,-1
 1037 674 l 1,32,-1
 1037 551 l 1,33,-1
 985 551 l 2,34,35
 838.645 551 838.645 551 781.681 489.814 c 0,36,37
 725 428.932 725 428.932 725 274 c 2,38,-1
 725 35 l 2,39,40
 725 -181.501 725 -181.501 644.867 -252.516 c 0,41,42
 564.205 -324 564.205 -324 319 -324 c 2,43,-1
 266 -324 l 1,44,-1
 266 -200 l 1,0,-1
EndSplineSet
EndChar
StartChar: asciitilde
Encoding: 126 126 32
Width: 1716
GlyphClass: 2
Flags: W
LayerCount: 2
Fore
SplineSet
1489 796.136 m 1,0,-1
 1489 644.002 l 1,1,2
 1387.16 568.098 1387.16 568.098 1300.95 535.348 c 0,3,4
 1213.16 502 1213.16 502 1118 502 c 0,5,6
 1009.94 502 1009.94 502 865.582 560.338 c 0,7,8
 854.574 564.34 854.574 564.34 849.827 566.24 c 0,9,10
 842.688 569.29 842.688 569.29 827.714 574.285 c 0,11,12
 670.931 637 670.931 637 575 637 c 0,13,14
 484.871 637 484.871 637 396.914 597.627 c 0,15,16
 317.076 561.888 317.076 561.888 227 488.331 c 1,17,-1
 227 639.998 l 1,18,19
 328.858 715.926 328.858 715.926 415.097 749.169 c 0,20,21
 502.86 783 502.86 783 598 783 c 0,22,23
 706.028 783 706.028 783 851.286 723.715 c 1,24,-1
 866.385 717.676 l 2,25,26
 874.528 714.622 874.528 714.622 888.459 709.646 c 0,27,28
 1045.07 647 1045.07 647 1141 647 c 0,29,30
 1229.15 647 1229.15 647 1315.6 685.88 c 0,31,32
 1394.5 721.364 1394.5 721.364 1489 796.136 c 1,0,-1
EndSplineSet
EndChar
StartChar: guillemotleft
Encoding: 171 171 318
Width: 1253
Flags: W
LayerCount: 2
Fore
SplineSet
1051 1036.69 m 1,0,-1
 1051 872.486 l 1,1,-1
 744.962 600 l 1,2,-1
 1051 327.514 l 1,3,-1
 1051 163.308 l 1,4,-1
 602 563.483 l 1,5,-1
 602 636.517 l 1,6,-1
 1051 1036.69 l 1,0,-1
617 1036.69 m 1,7,-1
 617 872.486 l 1,8,-1
 310.962 600 l 1,9,-1
 617 327.514 l 1,10,-1
 617 163.308 l 1,11,-1
 168 563.483 l 1,12,-1
 168 636.517 l 1,13,-1
 617 1036.69 l 1,7,-1
EndSplineSet
EndChar
StartChar: guillemotright
Encoding: 187 187 319
Width: 1253
Flags: W
LayerCount: 2
Fore
SplineSet
670.141 931.098 m 1,0,-1
 804.111 931.098 l 1,1,-1
 812.943 917.129 l 2,2,3
 885.584 802.234 885.584 802.234 921.92 692.026 c 0,4,5
 958.945 579.72 958.945 579.72 958.945 468.617 c 0,6,7
 958.945 357.089 958.945 357.089 921.93 244.278 c 0,8,9
 885.578 133.541 885.578 133.541 812.92 19.1 c 2,10,-1
 804.082 5.1781 l 1,11,-1
 670.055 5.1781 l 1,12,-1
 695.678 50.0531 l 2,13,14
 754.955 153.868 754.955 153.868 784.498 256.018 c 0,15,16
 814.945 361.295 814.945 361.295 814.945 468.617 c 128,-1,17
 814.945 575.917 814.945 575.917 784.51 680.456 c 0,18,19
 754.955 781.967 754.955 781.967 695.635 886.268 c 2,20,-1
 670.141 931.098 l 1,0,-1
294.141 931.098 m 1,21,-1
 428.111 931.098 l 1,22,-1
 436.943 917.129 l 2,23,24
 509.584 802.234 509.584 802.234 545.92 692.026 c 0,25,26
 582.945 579.72 582.945 579.72 582.945 468.617 c 0,27,28
 582.945 357.089 582.945 357.089 545.93 244.278 c 0,29,30
 509.578 133.541 509.578 133.541 436.92 19.1 c 2,31,-1
 428.082 5.1781 l 1,32,-1
 294.055 5.1781 l 1,33,-1
 319.678 50.0531 l 2,34,35
 378.955 153.868 378.955 153.868 408.498 256.018 c 0,36,37
 438.945 361.295 438.945 361.295 438.945 468.617 c 128,-1,38
 438.945 575.917 438.945 575.917 408.51 680.456 c 0,39,40
 378.955 781.967 378.955 781.967 319.635 886.268 c 2,41,-1
 294.141 931.098 l 1,21,-1
EndSplineSet
EndChar
StartChar: afii57388
Encoding: 1548 1548 34
Width: 664
VWidth: 2054
GlyphClass: 2
Flags: W
LayerCount: 2
Fore
SplineSet
363.627 242.681 m 1,0,-1
 402.518 242.681 l 2,1,2
 471.258 242.681 471.258 242.681 471.258 183.32 c 2,3,-1
 471.258 63.6504 l 2,4,5
 471.258 -0.859375 471.258 -0.859375 406.357 -0.859375 c 2,6,-1
 315.148 -0.859375 l 2,7,8
 236.328 -0.859375 236.328 -0.859375 236.328 66.8809 c 2,9,-1
 236.328 203.32 l 0,10,11
 255.127 406.729 255.127 406.729 445.768 568.84 c 1,12,-1
 504.168 539.669 l 1,13,14
 365.127 386.729 365.127 386.729 363.627 242.681 c 1,0,-1
EndSplineSet
EndChar
StartChar: uni0615
Encoding: 1557 1557 6
Width: 6
VWidth: 2186
GlyphClass: 4
Flags: W
AnchorPoint: "Anchor-10" 550.84 1282.5 mark 0
AnchorPoint: "Anchor-9" 550.84 1282.5 mark 0
AnchorPoint: "Anchor-1" 550.84 1978 basemark 0
AnchorPoint: "Anchor-1" 550.84 1282.5 mark 0
LayerCount: 2
Fore
SplineSet
475.366210938 1462.95996094 m 1,0,-1
 555.120117188 1462.95996094 l 2,1,2
 626.667870665 1462.95996094 626.667870665 1462.95996094 662.07421875 1475.47119141 c 0,3,4
 726.510921913 1498.24062366 726.510921913 1498.24062366 728.830078125 1549.7785058 c 0,5,6
 732 1599 732 1599 690.819335938 1605.18457031 c 0,7,8
 656.806311302 1611.06584195 656.806311302 1611.06584195 598.857416938 1573.46038033 c 0,9,10
 521.996162148 1520.82387002 521.996162148 1520.82387002 475.366210938 1462.95996094 c 1,0,-1
820.110351562 1560.70019531 m 0,11,12
 820 1375 820 1375 579.73046875 1374.88964844 c 2,13,-1
 282.639648438 1374.88964844 l 1,14,-1
 282.639648438 1462.95996094 l 1,15,-1
 369.309570312 1462.95996094 l 1,16,-1
 369.309570312 1889.88964844 l 1,17,-1
 458.450195312 1889.88964844 l 1,18,-1
 458.450195312 1528.53515625 l 1,19,20
 521 1618 521 1618 621.809570312 1667.98339844 c 0,21,22
 709 1711 709 1711 777 1661 c 4,23,24
 820 1629 820 1629 820.110351562 1560.70019531 c 0,11,12
EndSplineSet
EndChar
StartChar: uni061B
Encoding: 1563 1563 36
Width: 654
VWidth: 2054
GlyphClass: 2
Flags: W
LayerCount: 2
Fore
SplineSet
338.676 433.611 m 0,0,1
 226.39 433.611 226.39 433.611 202.857 543.611 c 0,2,3
 191.957 594.561 191.957 594.561 211.715 680.611 c 0,4,5
 248.289 839.903 248.289 839.903 418.715 1001.61 c 1,6,-1
 525.249 1001.61 l 1,7,8
 347.582 856.611 347.582 856.611 336.715 685.611 c 1,9,10
 489.583 687.663 489.583 687.663 480.676 532.681 c 0,11,12
 475.048 433.611 475.048 433.611 338.676 433.611 c 0,0,1
232.49 199.023 m 5,13,-1
 420.274 199.023 l 5,14,-1
 420.274 7.99023 l 1,15,-1
 232.49 7.99023 l 1,16,-1
 232.49 199.023 l 5,13,-1
EndSplineSet
EndChar
StartChar: uni061F
Encoding: 1567 1567 37
Width: 1087
GlyphClass: 2
Flags: W
LayerCount: 2
Fore
SplineSet
700 200 m 5,0,-1
 700 0 l 1,1,-1
 497 0 l 1,2,-1
 497 200 l 5,3,-1
 700 200 l 5,0,-1
503 401 m 1,4,-1
 503 524 l 2,5,6
 503 576 503 576 500 606 c 128,-1,7
 497 636 497 636 491 657 c 0,8,9
 483 682 483 682 463.5 708.5 c 128,-1,10
 444 735 444 735 397 782 c 2,11,-1
 309 868 l 1,12,13
 219 954 219 954 183 1022.5 c 128,-1,14
 147 1091 147 1091 147 1167 c 0,15,16
 147 1326 147 1326 258.5 1423 c 128,-1,17
 370 1520 370 1520 554 1520 c 0,18,19
 657 1520 657 1520 753.5 1492 c 128,-1,20
 850 1464 850 1464 944 1407 c 1,21,-1
 944 1219 l 1,22,23
 847 1286 847 1286 757.5 1321 c 128,-1,24
 668 1356 668 1356 589 1356 c 0,25,26
 481 1356 481 1356 415.5 1301 c 128,-1,27
 350 1246 350 1246 350 1157 c 0,28,29
 350 1108 350 1108 375.5 1061 c 128,-1,30
 401 1014 401 1014 458 961 c 1,31,-1
 548 872 l 1,32,33
 638 786 638 786 666 721 c 128,-1,34
 694 656 694 656 694 555 c 2,35,-1
 694 401 l 1,36,-1
 503 401 l 1,4,-1
EndSplineSet
EndChar
StartChar: uni0621
Encoding: 1569 1569 9
Width: 734
VWidth: 2181
GlyphClass: 2
Flags: W
AnchorPoint: "Anchor-7" 359 -196 basechar 0
AnchorPoint: "Anchor-10" 311.5 995.5 basechar 0
LayerCount: 2
Fore
SplineSet
86.1708984375 -8.630859375 m 1,0,-1
 86.1708984375 131.181640625 l 1,1,-1
 284.6015625 209.96875 l 1,2,3
 87.091796875 268.751953125 87.091796875 268.751953125 89.7685546875 463.52734375 c 0,4,5
 92.0634765625 625.548828125 92.0634765625 625.548828125 223.821289062 705.525390625 c 128,-1,6
 355.644425318 785.541604431 355.644425318 785.541604431 560 740.674804688 c 1,7,-1
 560 594.526367188 l 1,8,9
 405.317120528 636.705358549 405.317120528 636.705358549 321.175161826 593.920550368 c 128,-1,10
 237.033203125 551.135742188 237.033203125 551.135742188 237.68359375 455.03515625 c 0,11,12
 237.983836073 331.73889178 237.983836073 331.73889178 391.125976562 305.297851562 c 0,13,14
 427.567382812 299.020507812 427.567382812 299.020507812 474.435058594 300.997070312 c 128,-1,15
 521.298768169 302.973465545 521.298768169 302.973465545 648 359.314453125 c 1,16,-1
 648 213.561523438 l 1,17,-1
 86.1708984375 -8.630859375 l 1,0,-1
EndSplineSet
EndChar
StartChar: uni0627
Encoding: 1575 1575 25
Width: 455
VWidth: 2181
GlyphClass: 2
Flags: W
AnchorPoint: "Anchor-10" 208.5 1570 basechar 0
AnchorPoint: "Anchor-7" 215.5 -224.5 basechar 0
LayerCount: 2
Fore
SplineSet
130.059570312 1402.95996094 m 1,0,-1
 286.940429688 1470.95996094 l 1,1,-1
 286.940429688 1.5 l 1,2,-1
 181.059570312 1.5 l 1,3,-1
 130.059570312 1402.95996094 l 1,0,-1
EndSplineSet
Substitution2: "'fina' Terminal Forms in Arabic lookup 9 subtable" uniFE8E
EndChar
StartChar: uni062D
Encoding: 1581 1581 31
Width: 1221
VWidth: 2181
GlyphClass: 2
Flags: W
AnchorPoint: "Anchor-10" 498.5 1163 basechar 0
AnchorPoint: "Anchor-7" 384.288 -742.291 basechar 0
LayerCount: 2
Fore
SplineSet
935 418 m 0,0,1
 704 390 704 390 553 303 c 0,2,3
 244 125 244 125 244.080078125 -135.1640625 c 0,4,5
 244 -283 244 -283 353.662109375 -370.796875 c 0,6,7
 461 -458 461 -458 729.76171875 -458.520507812 c 0,8,9
 916 -459 916 -459 1081 -412 c 1,10,-1
 1130 -553 l 1,11,12
 938 -612 938 -612 731.819335938 -612.13671875 c 0,13,14
 344 -612 344 -612 194.438476562 -436.048828125 c 0,15,16
 91 -315 91 -315 91.2666015625 -144.452148438 c 0,17,18
 91.0032093923 38.7674973604 91.0032093923 38.7674973604 181.49609375 174.852539062 c 0,19,20
 282.653833674 327.962474845 282.653833674 327.962474845 459 417 c 24,21,22
 663 520 663 520 840.075195312 526.811523438 c 1,23,24
 775 538 775 538 640.181640625 601.715820312 c 0,25,26
 508 664 508 664 474.499023438 663.9765625 c 0,27,28
 346 664 346 664 218 500 c 1,29,-1
 114 580 l 1,30,31
 234 756 234 756 362.06640625 796.524414062 c 0,32,33
 411 812 411 812 459 812 c 0,34,35
 489 812 489 812 514 805 c 0,36,37
 562 792 562 792 695 727 c 0,38,39
 859 647 859 647 935.548828125 620.237304688 c 0,40,41
 1012 594 1012 594 1097 582.604492188 c 1,42,-1
 1075 429 l 1,43,44
 955 420 955 420 935 418 c 0,0,1
EndSplineSet
Substitution2: "'fina' Terminal Forms in Arabic lookup 9 subtable" uniFEA2
Substitution2: "'medi' Medial Forms in Arabic lookup 11 subtable" uniFEA4
Substitution2: "'init' Initial Forms in Arabic lookup 13 subtable" uniFEA3
EndChar
StartChar: uni062F
Encoding: 1583 1583 33
Width: 927
VWidth: 2181
GlyphClass: 2
Flags: W
AnchorPoint: "Anchor-10" 319.935 1103.81 basechar 0
AnchorPoint: "Anchor-7" 369.059 -207.422 basechar 0
LayerCount: 2
Fore
SplineSet
400.421 149.041 m 4,0,1
 569.403 156.358 569.403 156.358 652.3 214.936 c 4,2,3
 728.487 271.831 728.487 271.831 682.545 378.639 c 4,4,5
 600.411 573.782 600.411 573.782 352.867 762.513 c 5,6,-1
 438.944 894.879 l 5,7,8
 793.153 629.909 793.153 629.909 837.399 353.644 c 4,9,10
 856.472 232.123 856.472 232.123 792.128 142.369 c 4,11,12
 688.064 0 688.064 0 403.004 -13.6162 c 4,13,14
 194.402 -24.2383 194.402 -24.2383 90.8398 12.8877 c 5,15,-1
 91.2119 181.105 l 5,16,17
 214.434 140.822 214.434 140.822 400.421 149.041 c 4,0,1
EndSplineSet
Substitution2: "'fina' Terminal Forms in Arabic lookup 9 subtable" uniFEAA
EndChar
StartChar: uni0631
Encoding: 1585 1585 35
Width: 847
VWidth: 2186
GlyphClass: 2
Flags: W
AnchorPoint: "Anchor-7" 526 -631.5 basechar 0
AnchorPoint: "Anchor-10" 443.81 942.01 basechar 0
LayerCount: 2
Fore
SplineSet
735.601 48.5 m 0,0,1
 657.441 -501.365 657.441 -501.365 94.8672 -505.23 c 1,2,-1
 26.8672 -381.23 l 1,3,4
 553.434 -344.173 553.434 -344.173 589.677 66.7705 c 0,5,6
 598.834 169.84 598.834 169.84 518.585 464.2 c 1,7,-1
 659.601 561.5 l 1,8,9
 765.731 261.33 765.731 261.33 735.601 48.5 c 0,0,1
EndSplineSet
PairPos2: "'kern' Horizontal Kerning lookup 15-1" uni0632 dx=-100 dy=0 dh=-100 dv=0 dx=0 dy=0 dh=0 dv=0
PairPos2: "'kern' Horizontal Kerning lookup 15-1" uni0631 dx=-100 dy=0 dh=-100 dv=0 dx=0 dy=0 dh=0 dv=0
PairPos2: "'kern' Horizontal Kerning lookup 15-1" uniFB8A dx=-100 dy=0 dh=-100 dv=0 dx=0 dy=0 dh=0 dv=0
PairPos2: "'kern' Horizontal Kerning lookup 15-1" afii57508 dx=-100 dy=0 dh=-100 dv=0 dx=0 dy=0 dh=0 dv=0
PairPos2: "'kern' Horizontal Kerning lookup 15-1" uni0648 dx=-100 dy=0 dh=-100 dv=0 dx=0 dy=0 dh=0 dv=0
PairPos2: "'kern' Horizontal Kerning lookup 15-1" uni06CC dx=-100 dy=0 dh=-100 dv=0 dx=0 dy=0 dh=0 dv=0
PairPos2: "'kern' Horizontal Kerning lookup 15-1" uniFEEB dx=-150 dy=0 dh=-150 dv=0 dx=0 dy=0 dh=0 dv=0
PairPos2: "'kern' Horizontal Kerning lookup 15-1" uniFB7C dx=-100 dy=0 dh=-100 dv=0 dx=0 dy=0 dh=0 dv=0
PairPos2: "'kern' Horizontal Kerning lookup 15-1" uniFB58 dx=50 dy=0 dh=50 dv=0 dx=0 dy=0 dh=0 dv=0
PairPos2: "'kern' Horizontal Kerning lookup 15-1" uniFEF3 dx=70 dy=0 dh=70 dv=0 dx=0 dy=0 dh=0 dv=0
PairPos2: "'kern' Horizontal Kerning lookup 15-1" uniFBFE dx=70 dy=0 dh=70 dv=0 dx=0 dy=0 dh=0 dv=0
PairPos2: "'kern' Horizontal Kerning lookup 15-1" uniFEDF dx=-150 dy=0 dh=-150 dv=0 dx=0 dy=0 dh=0 dv=0
PairPos2: "'kern' Horizontal Kerning lookup 15-1" uniFB90 dx=-150 dy=0 dh=-150 dv=0 dx=0 dy=0 dh=0 dv=0
PairPos2: "'kern' Horizontal Kerning lookup 15-1" uni06A9 dx=-150 dy=0 dh=-150 dv=0 dx=0 dy=0 dh=0 dv=0
PairPos2: "'kern' Horizontal Kerning lookup 15-1" uni0649 dx=-100 dy=0 dh=-100 dv=0 dx=0 dy=0 dh=0 dv=0
PairPos2: "'kern' Horizontal Kerning lookup 15-1" uni0647 dx=-150 dy=0 dh=-150 dv=0 dx=0 dy=0 dh=0 dv=0
PairPos2: "'kern' Horizontal Kerning lookup 15-1" uniFEE7 dx=-150 dy=0 dh=-150 dv=0 dx=0 dy=0 dh=0 dv=0
PairPos2: "'kern' Horizontal Kerning lookup 15-1" uniFEE3 dx=-150 dy=0 dh=-150 dv=0 dx=0 dy=0 dh=0 dv=0
PairPos2: "'kern' Horizontal Kerning lookup 15-1" uni0645 dx=-150 dy=0 dh=-150 dv=0 dx=0 dy=0 dh=0 dv=0
PairPos2: "'kern' Horizontal Kerning lookup 15-1" uni0644 dx=-100 dy=0 dh=-100 dv=0 dx=0 dy=0 dh=0 dv=0
PairPos2: "'kern' Horizontal Kerning lookup 15-1" uniFEDB dx=-150 dy=0 dh=-150 dv=0 dx=0 dy=0 dh=0 dv=0
PairPos2: "'kern' Horizontal Kerning lookup 15-1" uniFED7 dx=-150 dy=0 dh=-150 dv=0 dx=0 dy=0 dh=0 dv=0
PairPos2: "'kern' Horizontal Kerning lookup 15-1" uni0642 dx=-100 dy=0 dh=-100 dv=0 dx=0 dy=0 dh=0 dv=0
PairPos2: "'kern' Horizontal Kerning lookup 15-1" uniFED3 dx=-150 dy=0 dh=-150 dv=0 dx=0 dy=0 dh=0 dv=0
PairPos2: "'kern' Horizontal Kerning lookup 15-1" uni0641 dx=-150 dy=0 dh=-150 dv=0 dx=0 dy=0 dh=0 dv=0
PairPos2: "'kern' Horizontal Kerning lookup 15-1" uniFECF dx=-150 dy=0 dh=-150 dv=0 dx=0 dy=0 dh=0 dv=0
PairPos2: "'kern' Horizontal Kerning lookup 15-1" uniFECB dx=-150 dy=0 dh=-150 dv=0 dx=0 dy=0 dh=0 dv=0
PairPos2: "'kern' Horizontal Kerning lookup 15-1" uniFEC7 dx=-150 dy=0 dh=-150 dv=0 dx=0 dy=0 dh=0 dv=0
PairPos2: "'kern' Horizontal Kerning lookup 15-1" uni0638 dx=-150 dy=0 dh=-150 dv=0 dx=0 dy=0 dh=0 dv=0
PairPos2: "'kern' Horizontal Kerning lookup 15-1" uniFEC3 dx=-150 dy=0 dh=-150 dv=0 dx=0 dy=0 dh=0 dv=0
PairPos2: "'kern' Horizontal Kerning lookup 15-1" uni0637 dx=-150 dy=0 dh=-150 dv=0 dx=0 dy=0 dh=0 dv=0
PairPos2: "'kern' Horizontal Kerning lookup 15-1" uniFEBF dx=-150 dy=0 dh=-150 dv=0 dx=0 dy=0 dh=0 dv=0
PairPos2: "'kern' Horizontal Kerning lookup 15-1" uni0636 dx=-150 dy=0 dh=-150 dv=0 dx=0 dy=0 dh=0 dv=0
PairPos2: "'kern' Horizontal Kerning lookup 15-1" uniFEBB dx=-150 dy=0 dh=-150 dv=0 dx=0 dy=0 dh=0 dv=0
PairPos2: "'kern' Horizontal Kerning lookup 15-1" uni0635 dx=-150 dy=0 dh=-150 dv=0 dx=0 dy=0 dh=0 dv=0
PairPos2: "'kern' Horizontal Kerning lookup 15-1" uniFEB7 dx=-150 dy=0 dh=-150 dv=0 dx=0 dy=0 dh=0 dv=0
PairPos2: "'kern' Horizontal Kerning lookup 15-1" uni0634 dx=-150 dy=0 dh=-150 dv=0 dx=0 dy=0 dh=0 dv=0
PairPos2: "'kern' Horizontal Kerning lookup 15-1" uniFEB3 dx=-150 dy=0 dh=-150 dv=0 dx=0 dy=0 dh=0 dv=0
PairPos2: "'kern' Horizontal Kerning lookup 15-1" uni0633 dx=-150 dy=0 dh=-150 dv=0 dx=0 dy=0 dh=0 dv=0
PairPos2: "'kern' Horizontal Kerning lookup 15-1" uni0630 dx=-150 dy=0 dh=-150 dv=0 dx=0 dy=0 dh=0 dv=0
PairPos2: "'kern' Horizontal Kerning lookup 15-1" uni062F dx=-150 dy=0 dh=-150 dv=0 dx=0 dy=0 dh=0 dv=0
PairPos2: "'kern' Horizontal Kerning lookup 15-1" uniFEA7 dx=-150 dy=0 dh=-150 dv=0 dx=0 dy=0 dh=0 dv=0
PairPos2: "'kern' Horizontal Kerning lookup 15-1" uniFEA3 dx=-150 dy=0 dh=-150 dv=0 dx=0 dy=0 dh=0 dv=0
PairPos2: "'kern' Horizontal Kerning lookup 15-1" uniFE9F dx=-150 dy=0 dh=-150 dv=0 dx=0 dy=0 dh=0 dv=0
PairPos2: "'kern' Horizontal Kerning lookup 15-1" uniFE9B dx=-150 dy=0 dh=-150 dv=0 dx=0 dy=0 dh=0 dv=0
PairPos2: "'kern' Horizontal Kerning lookup 15-1" uni062B dx=-150 dy=0 dh=-150 dv=0 dx=0 dy=0 dh=0 dv=0
PairPos2: "'kern' Horizontal Kerning lookup 15-1" uniFE97 dx=-150 dy=0 dh=-150 dv=0 dx=0 dy=0 dh=0 dv=0
PairPos2: "'kern' Horizontal Kerning lookup 15-1" uni062A dx=-150 dy=0 dh=-150 dv=0 dx=0 dy=0 dh=0 dv=0
PairPos2: "'kern' Horizontal Kerning lookup 15-1" uni0629 dx=-70 dy=0 dh=-70 dv=0 dx=0 dy=0 dh=0 dv=0
PairPos2: "'kern' Horizontal Kerning lookup 15-1" uniFE91 dx=-70 dy=0 dh=-70 dv=0 dx=0 dy=0 dh=0 dv=0
PairPos2: "'kern' Horizontal Kerning lookup 15-1" uni0628 dx=-150 dy=0 dh=-150 dv=0 dx=0 dy=0 dh=0 dv=0
PairPos2: "'kern' Horizontal Kerning lookup 15-1" uni0627 dx=-170 dy=0 dh=-170 dv=0 dx=0 dy=0 dh=0 dv=0
PairPos2: "'kern' Horizontal Kerning lookup 15-1" uni0622 dx=-170 dy=0 dh=-170 dv=0 dx=0 dy=0 dh=0 dv=0
PairPos2: "'kern' Horizontal Kerning lookup 15-1" uniFB94 dx=-150 dy=0 dh=-150 dv=0 dx=0 dy=0 dh=0 dv=0
PairPos2: "'kern' Horizontal Kerning lookup 15-1" afii57509 dx=-150 dy=0 dh=-150 dv=0 dx=0 dy=0 dh=0 dv=0
PairPos2: "'kern' Horizontal Kerning lookup 15-1" uniFB56 dx=-150 dy=0 dh=-150 dv=0 dx=0 dy=0 dh=0 dv=0
PairPos2: "'kern' Horizontal Kerning lookup 15-1" afii57506 dx=-150 dy=0 dh=-150 dv=0 dx=0 dy=0 dh=0 dv=0
Substitution2: "'fina' Terminal Forms in Arabic lookup 9 subtable" uniFEAE
EndChar
StartChar: uni0633
Encoding: 1587 1587 27
Width: 2266
VWidth: 2181
GlyphClass: 2
Flags: W
AnchorPoint: "Anchor-7" 343.5 -661.03 basechar 0
AnchorPoint: "Anchor-10" 535.51 849.5 basechar 0
LayerCount: 2
Fore
SplineSet
1225.50292969 66.4169921875 m 1,0,1
 1215 -488 1215 -488 650.827148438 -488.2890625 c 4,2,3
 253 -488 253 -488 129 -203.55078125 c 4,4,5
 66.37890625 -59.39453125 66.37890625 -59.39453125 96.2236328125 144.134765625 c 4,6,7
 116 279 116 279 174.080078125 409.20703125 c 5,8,-1
 323.830078125 357.799804688 l 5,9,10
 248 174 248 174 248.125976562 33.2744140625 c 4,11,12
 248 2 248 2 252 -28 c 4,13,14
 291 -325 291 -325 663.5 -325 c 132,-1,15
 1036 -325 1036 -325 1081.14355469 3.3720703125 c 0,16,17
 1086 39 1086 39 1085.6484375 73.818359375 c 0,18,19
 1086 246 1086 246 974.734375 387.435546875 c 1,20,-1
 1113.06640625 519.13671875 l 1,21,22
 1160 371 1160 371 1207.1640625 290.859375 c 24,23,24
 1277 171 1277 171 1408.49023438 170.215820312 c 0,25,26
 1539.23632812 168.998046875 1539.23632812 168.998046875 1559.28808594 351.79296875 c 2,27,-1
 1580.63085938 546.360351562 l 1,28,-1
 1705.67480469 546.360351562 l 1,29,-1
 1732.39160156 380.944335938 l 2,30,31
 1766 175 1766 175 1876.85742188 174.408203125 c 0,32,33
 1966 174 1966 174 1990.94824219 229.07421875 c 128,-1,34
 2016 284 2016 284 2015.9140625 350.92578125 c 128,-1,35
 2016 418 2016 418 1974.34863281 650.006835938 c 1,36,-1
 2122.63183594 697.526367188 l 1,37,38
 2175 546 2175 546 2175 374.5 c 128,-1,39
 2175 203 2175 203 2110 111.5 c 0,40,41
 2031 0 2031 0 1872 0 c 128,-1,42
 1713 0 1713 0 1646.12011719 139.125976562 c 1,43,44
 1598 3 1598 3 1433.70800781 1.41015625 c 0,45,46
 1296 0 1296 0 1225.50292969 66.4169921875 c 1,0,1
EndSplineSet
Substitution2: "'fina' Terminal Forms in Arabic lookup 9 subtable" uniFEB2
Substitution2: "'medi' Medial Forms in Arabic lookup 11 subtable" uniFEB4
Substitution2: "'init' Initial Forms in Arabic lookup 13 subtable" uniFEB3
EndChar
StartChar: uni0635
Encoding: 1589 1589 29
Width: 2376
VWidth: 2181
GlyphClass: 2
Flags: W
AnchorPoint: "Anchor-10" 435.84 849.5 basechar 0
AnchorPoint: "Anchor-7" 400.84 -698.5 basechar 0
LayerCount: 2
Fore
SplineSet
656.287109375 -488.25 m 24,0,1
 252 -488 252 -488 128 -203.55078125 c 0,2,3
 65 -59 65 -59 95.2236328125 144.134765625 c 0,4,5
 115 279 115 279 173.080078125 409.20703125 c 1,6,-1
 322.830078125 357.799804688 l 1,7,8
 247 174 247 174 247.125976562 33.2744140625 c 0,9,10
 247 2 247 2 251 -28 c 0,11,12
 290 -325 290 -325 662.5 -325 c 0,13,14
 1044 -326 1044 -326 1085.14355469 3.3720703125 c 0,15,16
 1112 217 1112 217 978.736328125 387.4375 c 1,17,-1
 1117.06152344 519.1328125 l 1,18,19
 1154 433 1154 433 1211.13867188 290.919921875 c 1,20,21
 1247 228 1247 228 1297.62207031 224.241210938 c 5,22,23
 1651 710 1651 710 1955.05371094 709.329101562 c 0,24,25
 2061 709 2061 709 2145.6640625 658.848632812 c 0,26,27
 2283 577 2283 577 2284.74414062 399 c 0,28,29
 2286 230 2286 230 2132.34082031 107.3203125 c 0,30,31
 1996.49417964 -1.60375863383 1996.49417964 -1.60375863383 1634.984375 -0.6708984375 c 2,32,-1
 1374.9921875 0 l 2,33,34
 1299 0 1299 0 1242.56640625 73.7724609375 c 1,35,-1
 1229.61035156 73.9697265625 l 1,36,37
 1223 -489 1223 -489 656.287109375 -488.25 c 24,0,1
1446.77050781 175.337890625 m 1,38,-1
 1619.20898438 175.337890625 l 2,39,40
 1873.80567334 175.004186853 1873.80567334 175.004186853 1986.96777344 218.629882812 c 0,41,42
 2129 273 2129 273 2117.19628906 403.921875 c 0,43,44
 2113 450 2113 450 2084.32519531 488.80859375 c 0,45,46
 2049 537 2049 537 1959.09179688 540.88671875 c 0,47,48
 1830 547 1830 547 1703 440 c 128,-1,49
 1576 333 1576 333 1446.77050781 175.337890625 c 1,38,-1
EndSplineSet
Substitution2: "'fina' Terminal Forms in Arabic lookup 9 subtable" uniFEBA
Substitution2: "'medi' Medial Forms in Arabic lookup 11 subtable" uniFEBC
Substitution2: "'init' Initial Forms in Arabic lookup 13 subtable" uniFEBB
EndChar
StartChar: uni0637
Encoding: 1591 1591 31
Width: 1457
VWidth: 2181
GlyphClass: 2
Flags: W
AnchorPoint: "Anchor-10" 288.72 1607.47 basechar 0
AnchorPoint: "Anchor-7" 710.72 -255 basechar 0
LayerCount: 2
Fore
SplineSet
527.7265625 186.008789062 m 1,0,-1
 700.165039062 186.008789062 l 2,1,2
 956.4375 186 956.4375 186 1067.92382812 229.30078125 c 0,3,4
 1210.10742188 283.935546875 1210.10742188 283.935546875 1198.15234375 404.592773438 c 0,5,6
 1194.10565036 440.895149049 1194.10565036 440.895149049 1158.28231737 489.478824524 c 128,-1,7
 1122.45898438 538.0625 1122.45898438 538.0625 1040.04785156 541.557617188 c 0,8,9
 910.997070312 547.947265625 910.997070312 547.947265625 784.032714844 445.6796875 c 128,-1,10
 657.068359375 343.412109375 657.068359375 343.412109375 527.7265625 186.008789062 c 1,0,-1
383.060546875 241.125976562 m 1,11,12
 722.563865951 710 722.563865951 710 1036 710 c 0,13,14
 1181.26203656 710 1181.26203656 710 1276.12304688 622.930664062 c 0,15,16
 1364.33100173 541.964331146 1364.33100173 541.964331146 1365.70019531 399.677734375 c 0,17,18
 1367.38671875 215.799804688 1367.38671875 215.799804688 1214.17089844 107.899902344 c 128,-1,19
 1060.95507812 0 1060.95507812 0 715.948242188 0 c 2,20,-1
 91.75 0 l 1,21,-1
 91.75 174.978515625 l 1,22,-1
 259.178710938 174.98046875 l 1,23,-1
 218.211914062 1412.90039062 l 1,24,-1
 383.16015625 1478.30664062 l 5,25,-1
 383.060546875 241.125976562 l 1,11,12
EndSplineSet
Substitution2: "'fina' Terminal Forms in Arabic lookup 9 subtable" uniFEC2
Substitution2: "'medi' Medial Forms in Arabic lookup 11 subtable" uniFEC4
Substitution2: "'init' Initial Forms in Arabic lookup 13 subtable" uniFEC3
EndChar
StartChar: uni0639
Encoding: 1593 1593 33
Width: 1177
VWidth: 2181
GlyphClass: 2
Flags: W
AnchorPoint: "Anchor-10" 523.325 1413.51 basechar 0
AnchorPoint: "Anchor-7" 291.235 -726.76 basechar 0
LayerCount: 2
Fore
SplineSet
791.229492188 803.374023438 m 1,0,1
 663.300375118 865.002962928 663.300375118 865.002962928 558.03515625 865.428710938 c 0,2,3
 453.250057611 865.005915407 453.250057611 865.005915407 400.624052243 812.380887391 c 128,-1,4
 347.998046875 759.755859375 347.998046875 759.755859375 347.964355469 701.030761719 c 128,-1,5
 347.930664062 642.305664062 347.930664062 642.305664062 364.569335938 605.951171875 c 0,6,7
 397.893993612 533.134535658 397.893993612 533.134535658 498.584960938 491.032226562 c 0,8,9
 543.607421875 472 543.607421875 472 570.286621094 472.006835938 c 0,10,11
 614.951490492 472.018280294 614.951490492 472.018280294 687.235351562 481.509765625 c 128,-1,12
 759.647460938 490.979492188 759.647460938 490.979492188 821.633789062 497.478027344 c 128,-1,13
 883.706525388 503.98562138 883.706525388 503.98562138 949.040039062 513.881835938 c 1,14,-1
 949.040039062 356.932617188 l 1,15,16
 706.877341887 340.071043801 706.877341887 340.071043801 514.833007812 238.931640625 c 0,17,18
 255.000976562 101.1953125 255.000976562 101.1953125 255.080078125 -132.1640625 c 0,19,20
 255.000976562 -278.559570312 255.000976562 -278.559570312 362.534179688 -365.280761719 c 128,-1,21
 470.067382812 -452.001953125 470.067382812 -452.001953125 737.771484375 -452.520507812 c 0,22,23
 876.425527215 -452.997763644 876.425527215 -452.997763644 1036.92773438 -406.314453125 c 1,24,-1
 1086.82324219 -554.962890625 l 1,25,26
 901.38073362 -611.974764109 901.38073362 -611.974764109 742.818359375 -612.13671875 c 0,27,28
 333.608398438 -612 333.608398438 -612 187.1484375 -438.98828125 c 0,29,30
 88.998046875 -323.09765625 88.998046875 -323.09765625 88.9985351562 -141.575683594 c 128,-1,31
 88.9990234375 39.9462890625 88.9990234375 39.9462890625 185.471679688 176.992675781 c 128,-1,32
 281.944335938 314.0390625 281.944335938 314.0390625 416.313476562 376.443359375 c 1,33,34
 319.501953125 402.134765625 319.501953125 402.134765625 257.750488281 488.083496094 c 128,-1,35
 195.999023438 574.032226562 195.999023438 574.032226562 196.150390625 682.706054688 c 0,36,37
 195.997880122 783.852779826 195.997880122 783.852779826 251.008217405 871.667600851 c 0,38,39
 342.676053639 1018 342.676053639 1018 550 1018 c 0,40,41
 689.687966345 1018 689.687966345 1018 830.838867188 937.89453125 c 1,42,-1
 791.229492188 803.374023438 l 1,0,1
EndSplineSet
Substitution2: "'fina' Terminal Forms in Arabic lookup 9 subtable" uniFECA
Substitution2: "'medi' Medial Forms in Arabic lookup 11 subtable" uniFECC
Substitution2: "'init' Initial Forms in Arabic lookup 13 subtable" uniFECB
EndChar
StartChar: afii57440
Encoding: 1600 1600 45
Width: 642
VWidth: 2181
GlyphClass: 2
Flags: W
AnchorPoint: "Anchor-10" 321 1274.5 basechar 0
AnchorPoint: "Anchor-7" 321 -116.5 basechar 0
LayerCount: 2
Fore
SplineSet
-10.400390625 0 m 1,0,-1
 -10.400390625 168.978515625 l 1,1,-1
 652.400390625 168.978515625 l 5,2,-1
 652.400390625 0 l 1,3,-1
 -10.400390625 0 l 1,0,-1
EndSplineSet
EndChar
StartChar: uni0643
Encoding: 1603 1603 38
Width: 1770
VWidth: 2181
GlyphClass: 2
Flags: W
AnchorPoint: "Anchor-10" 534 1397.5 basechar 0
AnchorPoint: "Anchor-7" 482 -220.5 basechar 0
LayerCount: 2
Fore
SplineSet
1517.41601562 439.60546875 m 1,0,1
 1472.52686389 1409.81824485 1472.52686389 1409.81824485 1472.33300781 1413.98144531 c 1,2,-1
 1639.29980469 1478.33105469 l 1,3,-1
 1639.29980469 409.7890625 l 2,4,5
 1638.99804688 391.884765625 1638.99804688 391.884765625 1636.64257812 353.302734375 c 0,6,7
 1621.85253906 137.749023438 1621.85253906 137.749023438 1330.04199219 46.412109375 c 0,8,9
 1187.4647063 2.00180024993 1187.4647063 2.00180024993 861.434013308 0.999923562463 c 128,-1,10
 535.403320312 -0.001953125 535.403320312 -0.001953125 375.833007812 66.6142578125 c 0,11,12
 117.779296875 175.525390625 117.779296875 175.525390625 96.009765625 436.756835938 c 0,13,14
 84.9696892021 572.247440483 84.9696892021 572.247440483 123.673828125 709.411132812 c 1,15,-1
 257.858398438 674.005859375 l 1,16,17
 236.009933883 534.836221204 236.009933883 534.836221204 238.534179688 478.390625 c 0,18,19
 251.923638051 214.889730384 251.923638051 214.889730384 604.396484375 184.330078125 c 0,20,21
 762.959490699 170.588687385 762.959490699 170.588687385 1127.76734301 186.590730411 c 128,-1,22
 1492.57519531 202.592773438 1492.57519531 202.592773438 1511.62597656 384.362304688 c 2,23,-1
 1517.41601562 439.60546875 l 1,0,1
689.1484375 725.588867188 m 1,24,25
 753.07790538 717.158203125 753.07790538 717.158203125 811.187878471 717.158203125 c 128,-1,26
 869.297851562 717.158203125 869.297851562 717.158203125 917.022460938 735.946289062 c 0,27,28
 999.450195312 767.603515625 999.450195312 767.603515625 999.450195312 819.8984375 c 0,29,30
 999.450195312 877.883789062 999.450195312 877.883789062 904.047851562 893.4296875 c 0,31,32
 781.919957287 912.034217189 781.919957287 912.034217189 784.374023438 1024.97460938 c 0,33,34
 786.295898438 1102.67578125 786.295898438 1102.67578125 862.845703125 1141.43554688 c 128,-1,35
 939.399187422 1180.19717561 939.399187422 1180.19717561 1050.76953125 1187.25585938 c 1,36,-1
 1050.76953125 1129.33300781 l 1,37,38
 978.684029384 1124.01397921 978.684029384 1124.01397921 940.666992188 1110.00097656 c 0,39,40
 845.330078125 1074.26074219 845.330078125 1074.26074219 845.330078125 1028.54980469 c 0,41,42
 845.330078125 968.894485149 845.330078125 968.894485149 895.333984375 951.030273438 c 0,43,44
 919.310546875 942.46484375 919.310546875 942.46484375 964.172851562 935.867675781 c 128,-1,45
 1009.03515625 929.270507812 1009.03515625 929.270507812 1025.02001953 914.669433594 c 128,-1,46
 1041.00488281 900.068359375 1041.00488281 900.068359375 1045.78222656 893.083007812 c 128,-1,47
 1050.56054688 886.098632812 1050.56054688 886.098632812 1053.72363281 878.004882812 c 0,48,49
 1060.04980469 861.824331477 1060.04980469 861.824331477 1060.04980469 827.151423551 c 128,-1,50
 1060.04980469 792.478515625 1060.04980469 792.478515625 1037.29296875 755.094726562 c 128,-1,51
 1014.53515625 717.7109375 1014.53515625 717.7109375 957.153808594 685.261230469 c 0,52,53
 863.111271646 632.079266345 863.111271646 632.079266345 689.1484375 661.174804688 c 1,54,-1
 689.1484375 725.588867188 l 1,24,25
EndSplineSet
Substitution2: "'fina' Terminal Forms in Arabic lookup 9 subtable" uniFEDA
Substitution2: "'medi' Medial Forms in Arabic lookup 11 subtable" uniFEDC
Substitution2: "'init' Initial Forms in Arabic lookup 13 subtable" uniFEDB
EndChar
StartChar: uni0644
Encoding: 1604 1604 68
Width: 1258
VWidth: 2181
GlyphClass: 2
Flags: W
AnchorPoint: "Anchor-10" 473.01 1019.5 basechar 0
AnchorPoint: "Anchor-7" 370.15 -627.616 basechar 0
LayerCount: 2
Fore
SplineSet
1161.46 179.32 m 1,0,1
 1159.08 15.9977 1159.08 15.9977 1099.62 -125.075 c 0,2,3
 990.088 -384.934 990.088 -384.934 621 -400 c 0,4,5
 337.164 -411.681 337.164 -411.681 199.631 -266 c 0,6,7
 73.7549 -134.405 73.7549 -134.405 77.3721 91.0547 c 0,8,9
 80.668 312.371 80.668 312.371 164.749 479.371 c 1,10,-1
 318.749 441.371 l 1,11,12
 224.413 251.849 224.413 251.849 229.053 94.1836 c 0,13,14
 233.656 -79.0498 233.656 -79.0498 328.631 -162 c 0,15,16
 441.234 -259.892 441.234 -259.892 641.419 -248.949 c 0,17,18
 795.838 -241.184 795.838 -241.184 908 -162 c 0,19,20
 1044.39 -65.7024 1044.39 -65.7024 1042.54 206.819 c 2,21,-1
 1040.91 446.32 l 2,22,-1
 1009.91 1405.03 l 1,23,-1
 1166.79 1470.03 l 5,24,-1
 1166.79 446.32 l 2,25,26
 1166.79 252.693 1166.79 252.693 1161.46 179.32 c 1,0,1
EndSplineSet
Substitution2: "'fina' Terminal Forms in Arabic lookup 9 subtable" uniFEDE
Substitution2: "'medi' Medial Forms in Arabic lookup 11 subtable" uniFEE0
Substitution2: "'init' Initial Forms in Arabic lookup 13 subtable" uniFEDF
EndChar
StartChar: uni0645
Encoding: 1605 1605 69
Width: 1062
VWidth: 2181
GlyphClass: 2
Flags: W
AnchorPoint: "Anchor-10" 544.5 1006.31 basechar 0
AnchorPoint: "Anchor-7" 131.631 -729.952 basechar 0
LayerCount: 2
Fore
SplineSet
500.759 309.006 m 0,0,1
 620.895 303 620.895 303 630 302.999 c 0,2,3
 754.691 303 754.691 303 801.34 316.183 c 0,4,5
 830.327 324.249 830.327 324.249 851.993 371.271 c 0,6,7
 910.532 499.176 910.532 499.176 637.303 617.836 c 0,8,9
 528.894 665.205 528.894 665.205 464.313 586.632 c 2,10,-1
 464.196 586.489 l 1,11,12
 408.043 506.976 408.043 506.976 424.019 324.565 c 2,13,-1
 424.161 322.938 l 1,14,-1
 425.237 321.707 l 2,15,16
 433.635 312.105 433.635 312.105 500.759 309.006 c 0,0,1
376 154 m 0,17,18
 245.538 154 245.538 154 207.078 78.7461 c 0,19,20
 173.583 12.8717 173.583 12.8717 183.078 -121.254 c 2,21,-1
 215.078 -573.254 l 1,22,-1
 66 -658 l 1,23,-1
 66 -75 l 2,24,25
 66 112.26 66 112.26 140.934 206.914 c 0,26,27
 190.739 270.392 190.739 270.392 269.852 284.073 c 2,28,-1
 274.212 284.827 l 1,29,-1
 273.994 289.247 l 2,30,31
 259.302 587.117 259.302 587.117 376.553 697.77 c 0,32,33
 522.286 836.466 522.286 836.466 706.806 748.244 c 24,34,35
 1049.02 585.053 1049.02 585.053 997.386 385 c 0,36,37
 940.262 164.608 940.262 164.608 889.799 168.497 c 1,38,39
 826.794 143.062 826.794 143.062 657.168 147.997 c 0,40,41
 478.117 154 478.117 154 376 154 c 0,17,18
EndSplineSet
Substitution2: "'init' Initial Forms in Arabic lookup 13 subtable" uniFEE3
Substitution2: "'medi' Medial Forms in Arabic lookup 11 subtable" uniFEE4
Substitution2: "'fina' Terminal Forms in Arabic lookup 9 subtable" uniFEE2
EndChar
StartChar: uni0647
Encoding: 1607 1607 42
Width: 931
VWidth: 2181
GlyphClass: 2
Flags: W
AnchorPoint: "Anchor-10" 422.924 1100.58 basechar 0
AnchorPoint: "Anchor-7" 335.864 -178.56 basechar 0
LayerCount: 2
Fore
SplineSet
459.512695312 626.456054688 m 1,0,1
 218.904698683 382.915724412 218.904698683 382.915724412 275.651367188 234.403320312 c 0,2,3
 293 188 293 188 363 165.896484375 c 4,4,5
 462 134 462 134 560.720703125 161.173828125 c 4,6,7
 638 183 638 183 655.229942084 240.712383128 c 0,8,9
 694 370 694 370 546.645019531 534.56640625 c 0,10,11
 479 610 479 610 459.512695312 626.456054688 c 1,0,1
471.268554688 3.5302734375 m 0,12,13
 148.766987703 7.03323220477 148.766987703 7.03323220477 105.592773438 234.750976562 c 0,14,15
 79.83984375 370.58203125 79.83984375 370.58203125 157.229003906 496.903808594 c 128,-1,16
 234.618164062 623.225585938 234.618164062 623.225585938 338.627929688 728.495117188 c 1,17,-1
 301.091796875 760.771484375 l 1,18,-1
 407.032226562 874.094726562 l 1,19,20
 686.376854562 671.99938749 686.376854562 671.99938749 777.61328125 477.14453125 c 0,21,22
 854.739602356 314.142850692 854.739602356 314.142850692 824.326611293 210 c 0,23,24
 765 0 765 0 471.268554688 3.5302734375 c 0,12,13
EndSplineSet
Substitution2: "'fina' Terminal Forms in Arabic lookup 9 subtable" uniFEEA
Substitution2: "'medi' Medial Forms in Arabic lookup 11 subtable" uniFEEC
Substitution2: "'init' Initial Forms in Arabic lookup 13 subtable" uniFEEB
EndChar
StartChar: uni0648
Encoding: 1608 1608 53
Width: 842
VWidth: 2181
GlyphClass: 2
Flags: W
AnchorPoint: "Anchor-10" 358.282 1032.17 basechar 0
AnchorPoint: "Anchor-7" 523.191 -589.443 basechar 0
LayerCount: 2
Fore
SplineSet
413.0546875 516.782226562 m 0,0,1
 283.803710938 513.161132812 283.803710938 513.161132812 239.920898438 341.953125 c 0,2,3
 194.9765625 168.458007812 194.9765625 168.458007812 348.021484375 141.953125 c 0,4,5
 497.078125 115.953125 497.078125 115.953125 604.188476562 197.749023438 c 1,6,7
 612.212890625 223.028320312 612.212890625 223.028320312 593.424804688 323.581054688 c 0,8,9
 555.68359375 520.837890625 555.68359375 520.837890625 413.0546875 516.782226562 c 0,0,1
728.994140625 -25.6064453125 m 0,10,11
 704.043945312 -171.294921875 704.043945312 -171.294921875 619.993164062 -279.606445312 c 0,12,13
 445.939453125 -503.909179688 445.939453125 -503.909179688 93.978515625 -507 c 1,14,-1
 25.978515625 -381 l 1,15,16
 551.57421875 -349.607421875 551.57421875 -349.607421875 588.728515625 47 c 1,17,18
 531.530273438 -5.5224609375 531.530273438 -5.5224609375 387.987304688 -8.2509765625 c 0,19,20
 215.015625 -11.25 215.015625 -11.25 145.049804688 86 c 0,21,22
 82.572265625 174.01171875 82.572265625 174.01171875 98.298828125 289.041992188 c 0,23,24
 123.09375 481.45703125 123.09375 481.45703125 212.208007812 573.749023438 c 0,25,26
 334.293945312 698.577148438 334.293945312 698.577148438 485.748046875 665.749023438 c 0,27,28
 603.060546875 640.958984375 603.060546875 640.958984375 665.484375 525.823242188 c 0,29,30
 729.182617188 406.16796875 729.182617188 406.16796875 743.084960938 255.848632812 c 0,31,32
 754.512695312 126.515625 754.512695312 126.515625 728.994140625 -25.6064453125 c 0,10,11
EndSplineSet
Substitution2: "'fina' Terminal Forms in Arabic lookup 9 subtable" uniFEEE
EndChar
StartChar: uni0649
Encoding: 1609 1609 44
Width: 1387
VWidth: 2181
GlyphClass: 2
Flags: W
AnchorPoint: "Anchor-10" 339.722 866.334 basechar 0
AnchorPoint: "Anchor-7" 283.423 -565.472 basechar 0
LayerCount: 2
Fore
SplineSet
982.77734375 150.6953125 m 1,0,-1
 1038.11523438 151.79296875 l 1,1,2
 1139 152 1139 152 1196.59375 128.065429688 c 0,3,4
 1296 88 1296 88 1295.6953125 -21.955078125 c 0,5,6
 1296 -166 1296 -166 1166.18261719 -287.067382812 c 0,7,8
 1039 -405 1039 -405 814.4453125 -438.966796875 c 0,9,10
 754 -448 754 -448 686.612304688 -447.845703125 c 0,11,12
 506 -448 506 -448 361.8125 -385.754882812 c 0,13,14
 0 -228 0 -228 123.559570312 287.717773438 c 0,15,16
 143 369 143 369 200.834960938 491.901367188 c 5,17,-1
 334 417 l 5,18,19
 302 344 302 344 283.892675211 279.431316347 c 0,20,21
 215 36 215 36 277.969726562 -91.671875 c 0,22,23
 377 -292 377 -292 685.165039062 -291.465820312 c 0,24,25
 851 -291 851 -291 957.817382812 -242.072265625 c 0,26,27
 1147 -156 1147 -156 1151.43945312 -69.1748046875 c 0,28,29
 1154.98362038 -3.30442468285 1154.98362038 -3.30442468285 1074.08203125 -3.74609375 c 2,30,-1
 985.89453125 -4.2275390625 l 1,31,32
 745 0 745 0 730.87890625 149.434570312 c 0,33,34
 724 221 724 221 748.963867188 296.704101562 c 0,35,36
 802 451 802 451 941.05859375 569.287109375 c 0,37,38
 1074 682 1074 682 1206.93554688 683.505859375 c 0,39,40
 1252 684 1252 684 1291.76464844 674.151367188 c 1,41,-1
 1235.24023438 501.995117188 l 1,42,-1
 1231.28125 502.00390625 l 2,43,44
 1074 502 1074 502 946.3046875 349.079101562 c 0,45,46
 892 284 892 284 882 217.5 c 128,-1,47
 872 151 872 151 982.77734375 150.6953125 c 1,0,-1
EndSplineSet
Substitution2: "'fina' Terminal Forms in Arabic lookup 9 subtable" uniFEF0
Substitution2: "'medi' Medial Forms in Arabic lookup 11 subtable" uniFBE9
Substitution2: "'init' Initial Forms in Arabic lookup 13 subtable" uniFBE8
EndChar
StartChar: uni064F
Encoding: 1615 1615 50
Width: -27
VWidth: 2304
GlyphClass: 4
Flags: W
AnchorPoint: "Anchor-10" 615.623 1281.01 mark 0
AnchorPoint: "Anchor-9" 615.623 1281.01 mark 0
AnchorPoint: "Anchor-1" 546.519 1923.2 basemark 0
AnchorPoint: "Anchor-1" 615.623 1281.01 mark 0
LayerCount: 2
Fore
SplineSet
822.727539062 1464.22460938 m 1,0,1
 766 1465 766 1465 690.735351562 1473.01953125 c 1,2,3
 638 1399 638 1399 563.377929688 1352.99902344 c 0,4,5
 445 1279 445 1279 311 1274 c 1,6,-1
 311 1362.74121094 l 1,7,8
 442 1367 442 1367 520.314453125 1432.41015625 c 0,9,10
 554.555842932 1461.14480957 554.555842932 1461.14480957 569.69921875 1477.09472656 c 2,11,-1
 591.280273438 1499.82519531 l 1,12,13
 553.653565673 1508.17814426 553.653565673 1508.17814426 514.827148438 1528.14355469 c 4,14,15
 477 1548 477 1548 448.861328125 1586.5703125 c 0,16,17
 421 1625 421 1625 420.904296875 1671.78222656 c 0,18,19
 421 1753 421 1753 488 1803 c 0,20,21
 534 1837 534 1837 588.962890625 1836.546875 c 0,22,23
 659 1837 659 1837 707.650390625 1789.15234375 c 0,24,25
 756 1742 756 1742 756.0625 1659.92871094 c 0,26,27
 756.000462851 1626.25126302 756.000462851 1626.25126302 741.043945312 1578.18945312 c 2,28,-1
 734.313476562 1556.56152344 l 1,29,-1
 756.931640625 1555.22460938 l 2,30,31
 795 1553 795 1553 822.727539062 1553.02832031 c 1,32,-1
 822.727539062 1464.22460938 l 1,0,1
642.567382812 1571.63476562 m 1,33,-1
 655.625976562 1602.09960938 l 2,34,35
 667 1629 667 1629 667.227539062 1667.94628906 c 0,36,37
 667 1707 667 1707 642.33203125 1727.21582031 c 0,38,39
 617 1748 617 1748 587.764648438 1747.71191406 c 0,40,41
 558 1748 558 1748 536 1731.08984375 c 0,42,43
 511 1710 511 1710 510 1677 c 0,44,45
 509 1621 509 1621 573.990234375 1594.88183594 c 0,46,47
 597 1586 597 1586 642.567382812 1571.63476562 c 1,33,-1
EndSplineSet
EndChar
StartChar: uni0651
Encoding: 1617 1617 81
Width: 0
VWidth: 2186
GlyphClass: 4
Flags: W
AnchorPoint: "Anchor-10" 547.84 1316.5 mark 0
AnchorPoint: "Anchor-9" 547.84 1316.5 mark 0
AnchorPoint: "Anchor-1" 535.84 1818.5 basemark 0
AnchorPoint: "Anchor-1" 547.84 1316.5 mark 0
LayerCount: 2
Fore
SplineSet
398.84 1305.99 m 4,0,1
 306.498 1302.93 306.498 1302.93 261.261 1355.91 c 4,2,3
 227 1396.24 227 1396.24 227 1486.07 c 4,4,5
 227 1527.41 227 1527.41 242.222 1626.56 c 5,6,-1
 320.73 1626.56 l 5,7,8
 307.674 1502.98 307.674 1502.98 307.674 1479 c 4,9,10
 307.674 1394.91 307.674 1394.91 398.84 1393.09 c 4,11,12
 497.128 1391.16 497.128 1391.16 506.266 1518.54 c 4,13,14
 508.184 1545.08 508.184 1545.08 508.4 1680.83 c 5,15,-1
 589.06 1680.83 l 5,16,17
 588.775 1624.49 588.775 1624.49 589.34 1597.53 c 4,18,19
 594.84 1448.99 594.84 1448.99 700.84 1452.09 c 4,20,21
 790.089 1453.28 790.089 1453.28 783.674 1604 c 4,22,23
 779.218 1710.94 779.218 1710.94 774.521 1770.1 c 5,24,-1
 857.705 1770.1 l 5,25,26
 868.68 1694.87 868.68 1694.87 868.68 1580.87 c 4,27,28
 868.68 1504.29 868.68 1504.29 843.84 1449.99 c 4,29,30
 804.992 1364.89 804.992 1364.89 713.84 1360.49 c 4,31,32
 611.451 1355.49 611.451 1355.49 554.84 1431.09 c 5,33,34
 519.173 1310.01 519.173 1310.01 398.84 1305.99 c 4,0,1
EndSplineSet
EndChar
StartChar: uni0653
Encoding: 1619 1619 54
Width: 0
VWidth: 2186
GlyphClass: 4
Flags: W
AnchorPoint: "Anchor-10" 406.84 1276.52 mark 0
AnchorPoint: "Anchor-9" 406.84 1276.52 mark 0
AnchorPoint: "Anchor-1" 442.84 1600.5 basemark 0
AnchorPoint: "Anchor-1" 406.84 1276.52 mark 0
LayerCount: 2
Fore
SplineSet
167.08203125 1241.04101562 m 1,0,-1
 81 1318 l 1,1,2
 182 1489 182 1489 320 1461 c 2,3,-1
 440 1437 l 6,4,5
 510 1423 510 1423 612 1491 c 5,6,-1
 673 1402 l 5,7,8
 578.671902269 1295.63001745 578.671902269 1295.63001745 431 1322 c 6,9,-1
 319 1342 l 2,10,11
 223.062435599 1359.13170793 223.062435599 1359.13170793 167.08203125 1241.04101562 c 1,0,-1
EndSplineSet
EndChar
StartChar: afii57392
Encoding: 1632 1632 59
Width: 817
VWidth: 2181
GlyphClass: 2
Flags: W
LayerCount: 2
Fore
SplineSet
311.293945312 481.610351562 m 0,0,1
 311.293945312 415.778023605 311.293945312 415.778023605 372.16015625 390.375976562 c 0,2,3
 389.47076556 383.150390625 389.47076556 383.150390625 419.839386686 383.150390625 c 128,-1,4
 450.208007812 383.150390625 450.208007812 383.150390625 479.209960938 412.15234375 c 128,-1,5
 508.213867188 441.15625 508.213867188 441.15625 508.213867188 471.525878906 c 0,6,7
 508.213867188 522.061529992 508.213867188 522.061529992 479.209960938 551.067382812 c 128,-1,8
 450.208007812 580.0703125 450.208007812 580.0703125 409.75390625 580.0703125 c 128,-1,9
 369.299804688 580.0703125 369.299804688 580.0703125 340.295898438 551.067382812 c 128,-1,10
 311.293945312 522.063476562 311.293945312 522.063476562 311.293945312 481.610351562 c 0,0,1
160.8203125 484.561523438 m 128,-1,12
 160.8203125 587.551757812 160.8203125 587.551757812 233.52734375 660.68359375 c 128,-1,13
 306.194768186 733.775390625 306.194768186 733.775390625 408.500976562 733.775390625 c 128,-1,14
 510.811523438 733.775390625 510.811523438 733.775390625 583.474609375 660.68359375 c 128,-1,15
 656.1796875 587.550252032 656.1796875 587.550252032 656.1796875 484.561523438 c 128,-1,16
 656.1796875 381.566008732 656.1796875 381.566008732 583.473632812 308.44140625 c 128,-1,17
 510.801323645 235.350585938 510.801323645 235.350585938 408.500976562 235.350585938 c 128,-1,18
 306.193359375 235.350585938 306.193359375 235.350585938 233.528320312 308.44140625 c 128,-1,11
 160.8203125 381.5703125 160.8203125 381.5703125 160.8203125 484.561523438 c 128,-1,12
EndSplineSet
EndChar
StartChar: afii57393
Encoding: 1633 1633 60
Width: 733
VWidth: 2181
GlyphClass: 2
Flags: W
LayerCount: 2
Fore
SplineSet
533.000976562 8.5 m 1,0,-1
 370.391601562 8.5 l 1,1,-1
 370.385742188 11.494140625 l 2,2,3
 369.559570312 446.771484375 369.559570312 446.771484375 324.950195312 734.494140625 c 128,-1,4
 280.350585938 1022.15234375 280.350585938 1022.15234375 150.837890625 1300.05664062 c 1,5,-1
 295.291015625 1370.39550781 l 1,6,7
 405.15625 1188.95117188 405.15625 1188.95117188 480.734375 841.288085938 c 0,8,9
 530.80078125 610.978515625 530.80078125 610.978515625 532.990234375 11.5107421875 c 2,10,-1
 533.000976562 8.5 l 1,0,-1
EndSplineSet
EndChar
StartChar: afii57394
Encoding: 1634 1634 61
Width: 1091
GlyphClass: 2
Flags: W
LayerCount: 2
Fore
SplineSet
235.131835938 1371.11425781 m 1,0,1
 278.212890625 1265.30957031 278.212890625 1265.30957031 310.314453125 1203.03320312 c 0,2,3
 385.3515625 1058.51953125 385.3515625 1058.51953125 524.497070312 1043.48242188 c 0,4,5
 736.5 1020.5703125 736.5 1020.5703125 796.896484375 1160.83691406 c 0,6,7
 825.587890625 1227.46875 825.587890625 1227.46875 845.623046875 1370.04785156 c 1,8,-1
 999.162109375 1332.69921875 l 1,9,10
 997.344726562 1197.90625 997.344726562 1197.90625 946.262695312 1083.49121094 c 0,11,12
 836.608398438 837.881835938 836.608398438 837.881835938 500.747070312 873.38671875 c 0,13,14
 444.73828125 879.30859375 444.73828125 879.30859375 397.36328125 894.00390625 c 1,15,16
 432.237304688 787.315429688 432.237304688 787.315429688 455.157226562 577.826171875 c 0,17,18
 463.254882812 503.814453125 463.254882812 503.814453125 469.306640625 8.5 c 1,19,-1
 306.668945312 8.5 l 1,20,-1
 306.6640625 11.4951171875 l 2,21,22
 305.890625 449.23046875 305.890625 449.23046875 259.982421875 728.03515625 c 128,-1,23
 214.06640625 1006.88769531 214.06640625 1006.88769531 91.3935546875 1270.515625 c 1,24,-1
 235.131835938 1371.11425781 l 1,0,1
EndSplineSet
EndChar
StartChar: afii57395
Encoding: 1635 1635 62
Width: 1203
GlyphClass: 2
Flags: W
LayerCount: 2
Fore
SplineSet
235.081054688 1371.07910156 m 1,0,1
 302.650390625 1212.5078125 302.650390625 1212.5078125 306.393554688 1206 c 0,2,3
 387.922851562 1054.66796875 387.922851562 1054.66796875 472.357421875 1046.73144531 c 128,-1,4
 556.79296875 1038.79492188 556.79296875 1038.79492188 593.771484375 1087.45117188 c 0,5,6
 637.296875 1145.42871094 637.296875 1145.42871094 637.296875 1321.75 c 2,7,-1
 637.296875 1324.77246094 l 1,8,-1
 759.362304688 1323.85742188 l 1,9,10
 761.500976562 1154.51464844 761.500976562 1154.51464844 774.473632812 1121.12304688 c 0,11,12
 807.69140625 1041.85449219 807.69140625 1041.85449219 878.620117188 1047.0078125 c 0,13,14
 1000.46386719 1055.87109375 1000.46386719 1055.87109375 977.412109375 1362.22753906 c 1,15,-1
 1111.52929688 1340.22460938 l 1,16,17
 1141.20019531 882.575195312 1141.20019531 882.575195312 874.321289062 889.046875 c 0,18,19
 764.258789062 891.951171875 764.258789062 891.951171875 703.53125 981.259765625 c 1,20,21
 650.42578125 894.849609375 650.42578125 894.849609375 542.192382812 887.755859375 c 0,22,23
 472.216796875 883.265625 472.216796875 883.265625 394.651367188 909.489257812 c 1,24,25
 428.0859375 799.881835938 428.0859375 799.881835938 463.3828125 480.197265625 c 0,26,27
 480.846679688 317.89453125 480.846679688 317.89453125 471.177734375 8.5 c 1,28,-1
 306.668945312 8.5 l 1,29,-1
 306.6640625 11.4951171875 l 2,30,31
 305.890625 449.241210938 305.890625 449.241210938 260.030273438 727.752929688 c 0,32,33
 214.063476562 1006.91796875 214.063476562 1006.91796875 91.3935546875 1270.515625 c 1,34,-1
 235.081054688 1371.07910156 l 1,0,1
EndSplineSet
EndChar
StartChar: afii57396
Encoding: 1636 1636 92
Width: 1177
VWidth: 2181
GlyphClass: 2
Flags: W
LayerCount: 2
Fore
SplineSet
755.514 1369.21 m 1,0,-1
 747.191 1235.88 l 1,1,2
 622.541 1247.74 622.541 1247.74 539.314 1210.42 c 1,3,4
 429.063 1159.52 429.063 1159.52 437.877 1047.09 c 0,5,6
 447.153 930.327 447.153 930.327 566.078 885.305 c 0,7,8
 604.867 870.62 604.867 870.62 742.77 856.721 c 1,9,-1
 742.77 713.322 l 1,10,11
 588.49 684.021 588.49 684.021 498.288 624.809 c 0,12,13
 378.637 545.295 378.637 545.295 361.969 401.309 c 0,14,15
 357.018 358.521 357.018 358.521 361.91 322.85 c 0,16,17
 391.152 109.715 391.152 109.715 752.526 159.562 c 0,18,19
 835.112 170.937 835.112 170.937 958.91 229.883 c 1,20,-1
 958.91 61.0957 l 1,21,22
 835.432 12.0723 835.432 12.0723 671.832 0.755859 c 0,23,24
 292.089 -24.582 292.089 -24.582 223.893 229.285 c 0,25,26
 205.25 298.689 205.25 298.689 205.25 399.24 c 0,27,28
 205.25 536.091 205.25 536.091 315.484 667.957 c 1,29,30
 381.369 744.99 381.369 744.99 470.187 769.214 c 2,31,-1
 525.383 784.268 l 1,32,-1
 471.511 803.529 l 2,33,34
 324.39 856.131 324.39 856.131 294.745 995.727 c 0,35,36
 245.026 1231.99 245.026 1231.99 446.729 1316.54 c 0,37,38
 566.263 1366.64 566.263 1366.64 755.514 1369.21 c 1,0,-1
EndSplineSet
EndChar
StartChar: afii57397
Encoding: 1637 1637 64
Width: 1168
VWidth: 2181
GlyphClass: 2
Flags: W
LayerCount: 2
Fore
SplineSet
351.074582442 258.176036881 m 128,-1,1
 442.083984375 182.995117188 442.083984375 182.995117188 621.683105469 182.002929688 c 128,-1,2
 801.282226562 181.010742188 801.282226562 181.010742188 867.280273438 294.264648438 c 0,3,4
 916.934570312 379.696289062 916.934570312 379.696289062 904.451171875 536.026367188 c 0,5,6
 891.084068497 703.820439204 891.084068497 703.820439204 770.418987373 849.218325071 c 128,-1,7
 649.75390625 994.616210938 649.75390625 994.616210938 569.3125 1040.37988281 c 1,8,9
 441.546875 934.682617188 441.546875 934.682617188 358.25329821 790.903012456 c 128,-1,10
 274.95972142 647.123407724 274.95972142 647.123407724 267.512450964 490.240182149 c 128,-1,0
 260.065180509 333.356956574 260.065180509 333.356956574 351.074582442 258.176036881 c 128,-1,1
372.6796875 1175.87109375 m 1,11,-1
 481.127929688 1318.40234375 l 1,12,13
 577.726192347 1268.4595247 577.726192347 1268.4595247 744.853515625 1135.93066406 c 0,14,15
 868.275390625 1038.02441406 868.275390625 1038.02441406 968.617675781 875.971679688 c 0,16,17
 1110.85287322 646.261915416 1110.85287322 646.261915416 1072.76074219 363.150390625 c 0,18,19
 1053.54946518 220.36477181 1053.54946518 220.36477181 978.201171875 138.961914062 c 0,20,21
 865.306640625 16.9951171875 865.306640625 16.9951171875 592.497558594 17.4975585938 c 128,-1,22
 319.688476562 18 319.688476562 18 191.270507812 156.993652344 c 128,-1,23
 62.8525390625 295.987304688 62.8525390625 295.987304688 90.4990234375 520.75390625 c 0,24,25
 113.100585938 699.987304688 113.100585938 699.987304688 208.702148438 863.302734375 c 128,-1,26
 304.303710938 1026.61816406 304.303710938 1026.61816406 434.875976562 1133.83398438 c 1,27,-1
 372.6796875 1175.87109375 l 1,11,-1
EndSplineSet
EndChar
StartChar: afii57398
Encoding: 1638 1638 75
Width: 1177
VWidth: 2181
GlyphClass: 2
Flags: W
LayerCount: 2
Fore
SplineSet
887.272 1358.75 m 1,0,1
 888.725 1053.76 888.725 1053.76 926.908 689.476 c 0,2,3
 957.165 400.473 957.165 400.473 1057.48 8.5 c 1,4,-1
 884.891 8.5 l 1,5,6
 797.13 347.691 797.13 347.691 764.782 693.033 c 0,7,8
 734.716 1012.95 734.716 1012.95 732.759 1153.61 c 2,9,-1
 732.429 1177.26 l 1,10,-1
 709.721 1170.64 l 2,11,12
 609.383 1141.4 609.383 1141.4 460.1 1141.4 c 0,13,14
 279.35 1141.4 279.35 1141.4 108.95 1190.38 c 1,15,-1
 108.95 1357.99 l 1,16,17
 292.058 1310 292.058 1310 460.1 1310 c 0,18,19
 674.898 1310 674.898 1310 887.272 1358.75 c 1,0,1
EndSplineSet
EndChar
StartChar: afii57399
Encoding: 1639 1639 66
Width: 1151
VWidth: 2181
GlyphClass: 2
Flags: W
LayerCount: 2
Fore
SplineSet
493.145507812 8.5 m 1,0,1
 477.679279028 204.775459465 477.679279028 204.775459465 370.147744983 598.338413326 c 128,-1,2
 262.640255542 991.813364486 262.640255542 991.813364486 90.0419921875 1288.73730469 c 1,3,-1
 251.094726562 1370.54980469 l 1,4,5
 413.269192477 1041.71896035 413.269192477 1041.71896035 507.577148438 711.629882812 c 0,6,7
 558.740766056 532.553368175 558.740766056 532.553368175 560.7421875 521.537109375 c 2,8,-1
 575.5 440.349609375 l 1,9,-1
 590.256835938 521.536132812 l 2,10,11
 592.254630468 532.531485105 592.254630468 532.531485105 643.422851562 711.629882812 c 0,12,13
 737.65398511 1041.44616805 737.65398511 1041.44616805 899.905273438 1370.55078125 c 1,14,-1
 1060.81933594 1288.73046875 l 1,15,16
 890.514367749 998.28308664 890.514367749 998.28308664 791.228375281 636.181582382 c 128,-1,17
 691.898365222 273.919543537 691.898365222 273.919543537 658.5234375 8.5 c 1,18,-1
 493.145507812 8.5 l 1,0,1
EndSplineSet
EndChar
StartChar: afii57400
Encoding: 1640 1640 67
Width: 1177
VWidth: 2181
GlyphClass: 2
Flags: W
LayerCount: 2
Fore
SplineSet
506.145507812 1369.5 m 1,0,-1
 671.5234375 1369.5 l 1,1,2
 707.655029841 1082.15763251 707.655029841 1082.15763251 793.372070312 781.375976562 c 0,3,4
 919.173020392 339.956132581 919.173020392 339.956132581 1087.12011719 72.98046875 c 1,5,-1
 912.762695312 7.7392578125 l 1,6,7
 750.728037608 336.291224452 750.728037608 336.291224452 656.422851562 666.370117188 c 0,8,9
 608.890625 832.73828125 608.890625 832.73828125 588.5 938.163085938 c 1,10,11
 568.110984649 832.747330942 568.110984649 832.747330942 520.577148438 666.370117188 c 0,12,13
 426.18379842 335.981663088 426.18379842 335.981663088 264.237304688 7.740234375 c 1,14,-1
 89.8173828125 72.947265625 l 1,15,16
 217.65654855 287.825863353 217.65654855 287.825863353 383.4921875 780.900390625 c 0,17,18
 482.921775246 1074.77729523 482.921775246 1074.77729523 506.145507812 1369.5 c 1,0,-1
EndSplineSet
EndChar
StartChar: afii57401
Encoding: 1641 1641 68
Width: 1122
VWidth: 2181
GlyphClass: 2
Flags: W
LayerCount: 2
Fore
SplineSet
852.004882812 8.5 m 1,0,1
 762.875976562 436.806640625 762.875976562 436.806640625 734.734375 668.083007812 c 1,2,3
 225.42578125 630.342773438 225.42578125 630.342773438 112.891601562 901.639648438 c 0,4,5
 91 954.416015625 91 954.416015625 91 1011.65039062 c 0,6,7
 91 1164.51171875 91 1164.51171875 186.337890625 1259.921875 c 0,8,9
 316.517578125 1391.20800781 316.517578125 1391.20800781 483.827148438 1390.70410156 c 128,-1,10
 651.13671875 1390.20019531 651.13671875 1390.20019531 735.33203125 1309.02050781 c 0,11,12
 854.92578125 1192.6875 854.92578125 1192.6875 868.890625 1005.19140625 c 0,13,14
 879.606445312 860.495117188 879.606445312 860.495117188 909.337890625 620.404296875 c 0,15,16
 939.116210938 379.938476562 939.116210938 379.938476562 1030.31542969 8.5 c 1,17,-1
 852.004882812 8.5 l 1,0,1
710.530273438 831.657226562 m 1,18,-1
 710.530273438 926.049804688 l 2,19,20
 710.530273438 1123.28125 710.530273438 1123.28125 578.072265625 1197.93066406 c 0,21,22
 530.748046875 1224.59960938 530.748046875 1224.59960938 479.71875 1224.59960938 c 0,23,24
 348.755859375 1224.59960938 348.755859375 1224.59960938 284.021484375 1119.53613281 c 0,25,26
 256.255859375 1074.47753906 256.255859375 1074.47753906 254.127929688 1026.94921875 c 0,27,28
 249.193359375 916.69140625 249.193359375 916.69140625 378.264648438 857.001953125 c 0,29,30
 484.42578125 807.911132812 484.42578125 807.911132812 710.530273438 831.657226562 c 1,18,-1
EndSplineSet
EndChar
StartChar: afii57381
Encoding: 1642 1642 69
Width: 1183
VWidth: 2186
GlyphClass: 2
Flags: W
LayerCount: 2
Fore
SplineSet
305.390625 1121.04980469 m 2,0,1
 268.389648438 1121.04980469 268.389648438 1121.04980469 268.389648438 1162.04980469 c 2,2,-1
 268.389648438 1290.04980469 l 2,3,4
 268.389648438 1325.04980469 268.389648438 1325.04980469 309.389648438 1325.04980469 c 2,5,-1
 424.389648438 1325.04980469 l 2,6,7
 465.389648438 1325.04980469 465.389648438 1325.04980469 465.389648438 1290.04980469 c 2,8,-1
 465.389648438 1161.04980469 l 2,9,10
 465.389648438 1121.05078125 465.389648438 1121.05078125 432.389648438 1121.04003906 c 2,11,-1
 305.390625 1121.04980469 l 2,0,1
917.192382812 107.848632812 m 2,12,13
 917.192382812 67.84765625 917.192382812 67.84765625 884.192382812 67.84765625 c 2,14,-1
 757.192382812 67.84765625 l 2,15,16
 720.192382812 67.84765625 720.192382812 67.84765625 720.192382812 108.84765625 c 2,17,-1
 720.192382812 236.848632812 l 2,18,19
 720.192382812 271.84765625 720.192382812 271.84765625 761.192382812 271.84765625 c 2,20,-1
 876.192382812 271.84765625 l 2,21,22
 917.192382812 271.84765625 917.192382812 271.84765625 917.192382812 236.848632812 c 2,23,-1
 917.192382812 107.848632812 l 2,12,13
873.109375 1380.53613281 m 1,24,-1
 990.047851562 1320.29003906 l 1,25,-1
 305.249023438 -1.109375 l 1,26,-1
 188.987304688 62.7822265625 l 1,27,-1
 873.109375 1380.53613281 l 1,24,-1
EndSplineSet
EndChar
StartChar: uni066B
Encoding: 1643 1643 70
Width: 717
VWidth: 2186
GlyphClass: 2
Flags: W
LayerCount: 2
Fore
SplineSet
407.731445312 493.911132812 m 1,0,-1
 533.180664062 434.94921875 l 1,1,-1
 163.215820312 -231.254882812 l 1,2,-1
 41.876953125 -169.262695312 l 1,3,-1
 407.731445312 493.911132812 l 1,0,-1
EndSplineSet
EndChar
StartChar: uni066C
Encoding: 1644 1644 71
Width: 592
VWidth: 2304
GlyphClass: 2
Flags: W
LayerCount: 2
Fore
SplineSet
299 262 m 132,-1,1
 431 259 431 259 441.162109375 146.842773438 c 4,2,3
 450.1171875 48.0107421875 450.1171875 48.0107421875 420 -53 c 4,4,5
 364 -243 364 -243 170 -331 c 5,6,-1
 120 -285 l 5,7,8
 310 -179 310 -179 328.817382812 -0.3359375 c 5,9,10
 298 -1 298 -1 287.9140625 -0.0322265625 c 4,11,12
 126 9 126 9 150.198242188 159.938476562 c 4,13,14
 167 265 167 265 299 262 c 132,-1,1
EndSplineSet
EndChar
StartChar: uni066E
Encoding: 1646 1646 72
Width: 1738
VWidth: 2181
GlyphClass: 2
Flags: W
AnchorPoint: "Anchor-10" 761.22 1054.5 basechar 0
AnchorPoint: "Anchor-7" 531.22 -206 basechar 0
LayerCount: 2
Fore
SplineSet
867.470703125 0.982421875 m 0,0,1
 535.204101562 -0.001953125 535.204101562 -0.001953125 375.842773438 66.6103515625 c 0,2,3
 116.4375 175.040039062 116.4375 175.040039062 91.388671875 452.954101562 c 0,4,5
 81.2081778162 561.825250052 81.2081778162 561.825250052 123.688476562 709.407226562 c 1,6,-1
 257.866210938 674.00390625 l 1,7,8
 235.618394755 535.106744766 235.618394755 535.106744766 238.534179688 478.392578125 c 0,9,10
 252.828763942 200.403343154 252.828763942 200.403343154 661.288085938 180.3828125 c 0,11,12
 724.327148438 177.293945312 724.327148438 177.293945312 879.896972656 177.755859375 c 128,-1,13
 1035.46679688 178.217773438 1035.46679688 178.217773438 1064.07324219 180.986328125 c 0,14,15
 1470.76464844 220.100585938 1470.76464844 220.100585938 1482.56542969 316.821289062 c 0,16,17
 1491.171875 382.526367188 1491.171875 382.526367188 1478.5 507.456054688 c 128,-1,18
 1465.82981698 632.369061303 1465.82981698 632.369061303 1441.47070312 709.125 c 1,19,-1
 1606.11816406 793.002929688 l 1,20,21
 1633.43324885 680.67782613 1633.43324885 680.67782613 1646.0859375 548.89453125 c 0,22,23
 1669.05371094 309.751953125 1669.05371094 309.751953125 1618.72753906 200.053710938 c 0,24,25
 1526.56347656 2.826171875 1526.56347656 2.826171875 867.470703125 0.982421875 c 0,0,1
EndSplineSet
Substitution2: "'init' Initial Forms in Arabic lookup 13 subtable" uni066E.init
Substitution2: "'medi' Medial Forms in Arabic lookup 11 subtable" uni066E.medi
Substitution2: "'fina' Terminal Forms in Arabic lookup 9 subtable" uni066E.fina
EndChar
StartChar: uni066F
Encoding: 1647 1647 103
Width: 1494
VWidth: 2181
GlyphClass: 2
Flags: W
AnchorPoint: "Anchor-10" 315 1045.5 basechar 0
AnchorPoint: "Anchor-7" 439 -603 basechar 0
LayerCount: 2
Fore
SplineSet
1105.75 686.839 m 4,0,1
 981.096 684.055 981.096 684.055 929.885 534.307 c 4,2,3
 857.654 325.64 857.654 325.64 1082.99 310.703 c 4,4,5
 1157.62 305.703 1157.62 305.703 1268.2 333.406 c 5,6,7
 1269.21 445.719 1269.21 445.719 1252.47 527.211 c 4,8,9
 1219.97 689.396 1219.97 689.396 1105.75 686.839 c 4,0,1
1409.99 173.703 m 5,10,11
 1389.15 -87.333 1389.15 -87.333 1231.69 -241.797 c 4,12,13
 1039.33 -420.116 1039.33 -420.116 686.854 -411.746 c 4,14,15
 392.445 -404.901 392.445 -404.901 244.308 -253.771 c 4,16,17
 90.4092 -98.0342 90.4092 -98.0342 93.8516 168.57 c 4,18,19
 96.6045 374.512 96.6045 374.512 186.879 557.197 c 5,20,-1
 336.438 519.18 l 5,21,22
 250.89 294.965 250.89 294.965 251.783 158.082 c 4,23,24
 254.665 -262.766 254.665 -262.766 731.479 -257.855 c 4,25,26
 1027.25 -255.242 1027.25 -255.242 1163.98 -94.3525 c 4,27,28
 1257.96 16.2344 1257.96 16.2344 1259.98 174.646 c 5,29,30
 1166.56 157.836 1166.56 157.836 1091.99 157.703 c 4,31,32
 920.8 157.479 920.8 157.479 842 245.703 c 4,33,34
 763.904 333.138 763.904 333.138 781.521 474.526 c 4,35,36
 803.258 648.983 803.258 648.983 908.172 750.639 c 4,37,38
 1006.63 846.041 1006.63 846.041 1121.04 839.026 c 4,39,40
 1276.95 829.682 1276.95 829.682 1346.89 687.771 c 4,41,42
 1401.54 576.888 1401.54 576.888 1408.92 429.571 c 4,43,44
 1416.87 262.732 1416.87 262.732 1409.99 173.703 c 5,10,11
EndSplineSet
Substitution2: "'init' Initial Forms in Arabic lookup 13 subtable" uni066F.init
Substitution2: "'medi' Medial Forms in Arabic lookup 11 subtable" uni066F.medi
Substitution2: "'fina' Terminal Forms in Arabic lookup 9 subtable" uni066F.fina
EndChar
StartChar: uni0670
Encoding: 1648 1648 74
Width: 6
VWidth: 2186
GlyphClass: 4
Flags: W
AnchorPoint: "Anchor-10" 550.84 1282.5 mark 0
AnchorPoint: "Anchor-9" 550.84 1282.5 mark 0
AnchorPoint: "Anchor-1" 550.84 1887 basemark 0
AnchorPoint: "Anchor-1" 550.84 1282.5 mark 0
LayerCount: 2
Fore
SplineSet
526.14453125 1327.80957031 m 1,0,-1
 501.8984375 1786.35058594 l 1,1,-1
 599.690429688 1843.93847656 l 1,2,-1
 599.690429688 1327.80957031 l 1,3,-1
 526.14453125 1327.80957031 l 1,0,-1
EndSplineSet
EndChar
StartChar: uni0674
Encoding: 1652 1652 75
Width: 645
VWidth: 2186
GlyphClass: 2
Flags: W
LayerCount: 2
Fore
SplineSet
289.940429688 1887.50390625 m 0,0,1
 391.540365168 1908.21893655 391.540365168 1908.21893655 478.080078125 1857.24023438 c 1,2,-1
 478.080078125 1751.76660156 l 1,3,-1
 459.266601562 1761.171875 l 2,4,5
 398.0390625 1791.78320312 398.0390625 1791.78320312 336.39453125 1785.07519531 c 0,6,7
 242.560546875 1774.95019531 242.560546875 1774.95019531 236.211914062 1702.9609375 c 0,8,9
 229.505723386 1625.31411381 229.505723386 1625.31411381 336.930664062 1592.77148438 c 0,10,11
 369.819955396 1582.80713365 369.819955396 1582.80713365 500.549804688 1613.0390625 c 1,12,-1
 500.549804688 1503.99511719 l 1,13,-1
 133.540039062 1421.59765625 l 1,14,-1
 133.540039062 1528.6015625 l 1,15,-1
 220.521484375 1548.67285156 l 1,16,17
 135.6796875 1601.68554611 135.6796875 1601.68554611 135.6796875 1694.67675743 c 128,-1,18
 135.6796875 1787.66796875 135.6796875 1787.66796875 200.43359375 1844.77929688 c 0,19,20
 237.059483244 1876.72344732 237.059483244 1876.72344732 289.940429688 1887.50390625 c 0,0,1
EndSplineSet
EndChar
StartChar: uni06A1
Encoding: 1697 1697 79
Width: 1742
VWidth: 2181
GlyphClass: 2
Flags: W
AnchorPoint: "Anchor-10" 504.55 1228.28 basechar 0
AnchorPoint: "Anchor-7" 611.55 -149.88 basechar 0
LayerCount: 2
Fore
SplineSet
1358.0625 46.640625 m 0,0,1
 1204.45996094 -3.00390625 1204.45996094 -3.00390625 866.423339844 0.0009765625 c 128,-1,2
 528.38671875 3.005859375 528.38671875 3.005859375 375.850585938 66.6064453125 c 0,3,4
 118.885742188 174.576171875 118.885742188 174.576171875 94.0126953125 434.719726562 c 0,5,6
 81.9555150148 563.339094089 81.9555150148 563.339094089 123.682617188 709.409179688 c 1,7,-1
 257.837890625 674.01171875 l 1,8,9
 238.010326871 540.799864491 238.010326871 540.799864491 240.53515625 478.3671875 c 0,10,11
 250.891601562 238.577148438 250.891601562 238.577148438 560.249023438 189.340820312 c 0,12,13
 600.280273438 182.993164062 600.280273438 182.993164062 803.196289062 177.015625 c 0,14,15
 1135.6015625 166.014648438 1135.6015625 166.014648438 1325.84765625 224.046875 c 0,16,17
 1473.4743823 268.374057316 1473.4743823 268.374057316 1503.23925781 414.174804688 c 1,18,19
 1446.3976888 368.846694913 1446.3976888 368.846694913 1338.47960612 366.702644332 c 128,-1,20
 1230.56152344 364.55859375 1230.56152344 364.55859375 1172.73242188 387.466796875 c 128,-1,21
 1114.90332031 410.375 1114.90332031 410.375 1080.234375 457.8828125 c 0,22,23
 1018.87988281 542.189453125 1018.87988281 542.189453125 1036.50830078 689.763183594 c 128,-1,24
 1054.13671875 837.336914062 1054.13671875 837.336914062 1142.64648438 931.100585938 c 0,25,26
 1255.96593092 1050.26584199 1255.96593092 1050.26584199 1403.70605469 1019.31445312 c 0,27,28
 1572.62987287 983.279608944 1572.62987287 983.279608944 1633.55175781 733.630859375 c 0,29,30
 1685.37393018 521.286115977 1685.37393018 521.286115977 1636.44575415 320.973136113 c 128,-1,31
 1587.51757812 120.66015625 1587.51757812 120.66015625 1358.0625 46.640625 c 0,0,1
1338.24609375 863.903320312 m 0,32,33
 1221.38671875 860.560546875 1221.38671875 860.560546875 1181.50195312 701.649414062 c 0,34,35
 1142.35594415 543.918242353 1142.35594415 543.918242353 1279.93139004 520.367324302 c 128,-1,36
 1417.50683594 496.81640625 1417.50683594 496.81640625 1511.86230469 568.73046875 c 1,37,38
 1518.24609375 593.686523438 1518.24609375 593.686523438 1504.09228516 669.849609375 c 128,-1,39
 1489.93847656 746.012695312 1489.93847656 746.012695312 1467.90136719 786.3203125 c 0,40,41
 1424.1210917 866.39596129 1424.1210917 866.39596129 1338.24609375 863.903320312 c 0,32,33
EndSplineSet
Substitution2: "'init' Initial Forms in Arabic lookup 13 subtable" uni06A1.init
Substitution2: "'medi' Medial Forms in Arabic lookup 11 subtable" uni06A1.medi
Substitution2: "'fina' Terminal Forms in Arabic lookup 9 subtable" uni06A1.fina
EndChar
StartChar: uni06A9
Encoding: 1705 1705 80
Width: 1882
VWidth: 2181
GlyphClass: 2
Flags: W
AnchorPoint: "Anchor-10" 365 1205.34 basechar 0
AnchorPoint: "Anchor-7" 481 -232.68 basechar 0
LayerCount: 2
Fore
SplineSet
840.779296875 0 m 5,0,1
 532 0 532 0 372.84765625 66.607421875 c 4,2,3
 118 174 118 174 91.0126953125 436.719726562 c 4,4,5
 78 562 78 562 120.693359375 709.40625 c 5,6,-1
 254.916992188 673.990234375 l 5,7,8
 229 530 229 530 231.533203125 478.400390625 c 4,9,10
 245 201 245 201 655.921875 180.594726562 c 4,11,12
 740 177 740 177 800.12109375 177.016601562 c 6,13,-1
 1052.75 175.00390625 l 5,14,-1
 1221.00195312 175.129882812 l 6,15,16
 1434.05957031 175.2890625 1434.05957031 175.2890625 1462.0625 310.581054688 c 4,17,18
 1478 388 1478 388 1401.77050781 472.122070312 c 6,19,-1
 1140.81054688 761.845703125 l 6,20,21
 1050.01269531 862.651367188 1050.01269531 862.651367188 1047.50195312 931.883789062 c 4,22,23
 1043 1047 1043 1047 1163.07519531 1111.609375 c 6,24,-1
 1842.375 1478.28808594 l 5,25,-1
 1842.375 1304.65429688 l 5,26,-1
 1184.81835938 948.208984375 l 5,27,-1
 1513.35253906 585.008789062 l 6,28,29
 1644.11132812 440.452148438 1644.11132812 440.452148438 1602.03808594 270.282226562 c 4,30,31
 1536 0 1536 0 1141 0 c 6,32,-1
 840.779296875 0 l 5,0,1
EndSplineSet
Substitution2: "'init' Initial Forms in Arabic lookup 13 subtable" uniFB90
Substitution2: "'medi' Medial Forms in Arabic lookup 11 subtable" uniFB91
Substitution2: "'fina' Terminal Forms in Arabic lookup 9 subtable" uniFB8F
EndChar
StartChar: afii57514
Encoding: 1722 1722 82
Width: 1381
VWidth: 2186
GlyphClass: 2
Flags: W
AnchorPoint: "Anchor-10" 595.734 1055.15 basechar 0
AnchorPoint: "Anchor-7" 541.58 -486.02 basechar 0
LayerCount: 2
Fore
SplineSet
1155.59472656 754.743164062 m 1,0,1
 1284 541 1284 541 1282.75976562 327.8515625 c 4,2,3
 1279 -275 1279 -275 676.80078125 -282 c 0,4,5
 122 -288 122 -288 91.5751953125 229.223632812 c 0,6,7
 87 308 87 308 108.775390625 421.115234375 c 0,8,9
 131 534 131 534 180.58203125 641.030273438 c 1,10,-1
 320.98828125 586.827148438 l 1,11,12
 232 368 232 368 248.4296875 216.265625 c 0,13,14
 287 -129 287 -129 678.040039062 -126.7578125 c 0,15,16
 1108 -124 1108 -124 1126.75292969 272.610351562 c 0,17,18
 1135 451 1135 451 1014.85058594 620.265625 c 1,19,-1
 1155.59472656 754.743164062 l 1,0,1
EndSplineSet
Substitution2: "'init' Initial Forms in Arabic lookup 13 subtable" uni06BA.init
Substitution2: "'medi' Medial Forms in Arabic lookup 11 subtable" uni06BA.medi
Substitution2: "'fina' Terminal Forms in Arabic lookup 9 subtable" uniFB9F
EndChar
StartChar: uni06F4
Encoding: 1780 1780 89
Width: 1017
VWidth: 2181
GlyphClass: 2
Flags: W
LayerCount: 2
Fore
SplineSet
416.875 1230.76074219 m 4,0,1
 541.4140625 1410.83007812 541.4140625 1410.83007812 865.83984375 1340.83203125 c 5,2,-1
 865.83984375 1191.51269531 l 5,3,4
 789.046875 1218.9375 789.046875 1218.9375 700.264648438 1211.50488281 c 4,5,6
 501.337890625 1194.8515625 501.337890625 1194.8515625 474.181640625 1021.31640625 c 4,7,8
 468.045898438 982.099609375 468.045898438 982.099609375 475.939453125 944.598632812 c 4,9,10
 486.44921875 893.008789062 486.44921875 893.008789062 691.219726562 893.702148438 c 4,11,12
 747.828125 894.000976562 747.828125 894.000976562 923.850585938 919.161132812 c 5,13,-1
 926.038085938 767.365234375 l 5,14,15
 728.368164062 742.002929688 728.368164062 742.002929688 674.095703125 741.788085938 c 132,-1,16
 619.823242188 741.57421875 619.823242188 741.57421875 580.072265625 743.942382812 c 132,-1,17
 540.322265625 746.310546875 540.322265625 746.310546875 508.724609375 750.868164062 c 4,18,19
 445.430664062 759.99609375 445.430664062 759.99609375 414.5234375 777.672851562 c 5,20,21
 465.135742188 552.119140625 465.135742188 552.119140625 473.587890625 58.890625 c 4,22,23
 474 35.0576171875 474 35.0576171875 473.37109375 8.5 c 5,24,-1
 310.668945312 8.5 l 5,25,-1
 310.6640625 11.4951171875 l 6,26,27
 310 439.84375 310 439.84375 267.038085938 708.025390625 c 4,28,29
 224.159179688 975.763671875 224.159179688 975.763671875 91.427734375 1274.31640625 c 5,30,-1
 238.534179688 1371.16113281 l 5,31,32
 294.856445312 1200.04101562 294.856445312 1200.04101562 351.205078125 1028.11035156 c 5,33,34
 362.762695312 1152.52148438 362.762695312 1152.52148438 416.875 1230.76074219 c 4,0,1
EndSplineSet
EndChar
StartChar: uni06F5
Encoding: 1781 1781 120
Width: 1177
GlyphClass: 2
Flags: WO
LayerCount: 2
Fore
SplineSet
610.572 343.864 m 0,0,1
 683.843 189.727 683.843 189.727 810.947 184.39 c 0,2,3
 993.153 176.794 993.153 176.794 941.85 470.974 c 1,4,5
 866.235 791.521 866.235 791.521 570.489 1049.01 c 1,6,7
 343.53 783 343.53 783 265.53 521 c 0,8,9
 166.084 194.914 166.084 194.914 386.131 185 c 0,10,11
 504.576 179.664 504.576 179.664 583.572 343.724 c 0,12,13
 597.192 372.011 597.192 372.011 610.572 343.864 c 0,0,1
371.77 8.36426 m 0,14,15
 96.5391 8.36621 96.5391 8.36621 74.7979 279 c 0,16,17
 45.6309 648 45.6309 648 457.071 1147 c 1,18,19
 411 1187 l 1,20,21
 509.53 1323.65 l 1,22,23
 525.654 1314.71 525.654 1314.71 587.918 1257.96 c 4,24,25
 1153.23 744.331 1153.23 744.331 1101.8 283 c 0,26,27
 1070.16 0 1070.16 0 824.497 8.86426 c 1,28,29
 651.79 13.3545 651.79 13.3545 600.953 154.498 c 2,30,-1
 596.253 167.547 l 1,31,-1
 591.546 154.501 l 2,32,33
 538.821 8.36626 538.821 8.36626 371.77 8.36426 c 0,14,15
EndSplineSet
EndChar
StartChar: uni06F6
Encoding: 1782 1782 91
Width: 968
VWidth: 2181
GlyphClass: 2
Flags: W
LayerCount: 2
Fore
SplineSet
587 1371 m 0,0,1
 661.330642521 1371 661.330642521 1371 754.639648438 1341.36425781 c 1,2,-1
 754.639648438 1185.48730469 l 1,3,4
 540.58379112 1249.73112331 540.58379112 1249.73112331 419.73828125 1163.5546875 c 0,5,6
 331.004882812 1100.45605469 331.004882812 1100.45605469 331.004882812 1006.92138672 c 128,-1,7
 331.004882812 913.38671875 331.004882812 913.38671875 400.944335938 853.790527344 c 128,-1,8
 470.883789062 794.194335938 470.883789062 794.194335938 642.357421875 823.432617188 c 0,9,10
 724.229369001 836.913120286 724.229369001 836.913120286 867.83984375 895.94921875 c 1,11,-1
 867.83984375 736.083007812 l 1,12,13
 556.740105848 634.924280596 556.740105848 634.924280596 376.619140625 305.923828125 c 0,14,15
 301.166200548 168.103096819 301.166200548 168.103096819 261.333984375 8.5 c 1,16,-1
 99.88671875 8.5 l 1,17,18
 176.276200174 280.285000909 176.276200174 280.285000909 278.315834462 455.420332486 c 128,-1,19
 380.35546875 630.555664062 380.35546875 630.555664062 463.3046875 696.2421875 c 1,20,21
 188.903566782 706.614818827 188.903566782 706.614818827 174.005859375 969.322265625 c 0,22,23
 163.922851562 1139.203125 163.922851562 1139.203125 284.859863281 1255.60498047 c 128,-1,24
 405.796875 1372.00683594 405.796875 1372.00683594 587 1371 c 0,0,1
EndSplineSet
EndChar
StartChar: uniFB8F
Encoding: 64399 64399 136
Width: 2024
VWidth: 2181
GlyphClass: 2
Flags: W
AnchorPoint: "Anchor-10" 450 1174.5 basechar 0
AnchorPoint: "Anchor-7" 529 -212 basechar 0
LayerCount: 2
Fore
SplineSet
808.779 0 m 4,0,1
 538.802 -1.16387e-05 538.802 -1.16387e-05 380 66.3779 c 4,2,3
 121.224 174.11 121.224 174.11 96.376 450.233 c 4,4,5
 86.4902 558.573 86.4902 558.573 128.76 702.758 c 5,6,-1
 257.475 668.796 l 5,7,8
 235.607 532.234 235.607 532.234 238.538 475.238 c 4,9,10
 251.076 231.4 251.076 231.4 562.779 183.378 c 4,11,12
 639.186 171.572 639.186 171.572 801.403 169.48 c 21,13,-1
 1180.68 169.63 l 6,14,15
 1451.28 169.737 1451.28 169.737 1475.68 283.63 c 4,16,17
 1498.25 393.417 1498.25 393.417 1419.68 481.63 c 6,18,19
 1152.72 781.35 l 6,20,21
 1086.09 856.158 1086.09 856.158 1083.32 923.844 c 4,22,23
 1077.57 1065.77 1077.57 1065.77 1215.38 1136.38 c 6,24,-1
 1868.05 1470.76 l 5,25,-1
 1868.05 1303.94 l 5,26,-1
 1208.71 952.53 l 5,27,28
 1898.21 169.44 1898.21 169.44 2014.53 169.791 c 6,29,-1
 2043.95 169.88 l 5,30,-1
 2043.95 1 l 5,31,-1
 2021.21 1 l 6,32,33
 1796.11 1 1796.11 1 1619.23 288.924 c 5,34,35
 1592.74 1.08612 1592.74 1.08612 1169.68 0.5 c 6,36,-1
 808.779 0 l 4,0,1
EndSplineSet
EndChar
StartChar: uniFB9F
Encoding: 64415 64415 124
Width: 1371
VWidth: 2186
GlyphClass: 2
Flags: W
AnchorPoint: "Anchor-10" 361.092 711.45 basechar 0
AnchorPoint: "Anchor-7" 266.712 -701.104 basechar 0
LayerCount: 2
Fore
SplineSet
1216.64 74.0156 m 1,0,1
 1221 -171 1221 -171 1104.5 -309 c 0,2,3
 961 -480 961 -480 655.25 -488.25 c 0,4,5
 411 -495 411 -495 256 -371.6 c 0,6,7
 99 -247 99 -247 84.3916 9.85449 c 0,8,9
 80 85 80 85 100.469 190.831 c 0,10,11
 122 302 122 302 169.646 402.498 c 1,12,-1
 313.845 352.996 l 1,13,14
 194 61 194 61 271 -123.023 c 1,15,16
 370 -330 370 -330 649.923 -331.072 c 0,17,18
 1037 -332 1037 -332 1078.12 0 c 0,19,20
 1105 215 1105 215 972.776 384.141 c 1,21,-1
 1106 510.98 l 1,22,23
 1160 362 1160 362 1212 266 c 0,24,25
 1263.79635148 169.379882812 1263.79635148 169.379882812 1349.28027344 169.379882812 c 6,26,-1
 1391.53027344 169.379882812 l 5,27,-1
 1391.53027344 0.5 l 5,28,-1
 1350.43 0.5 l 2,29,30
 1264 0 1264 0 1216.64 74.0156 c 1,0,1
EndSplineSet
EndChar
StartChar: uniFBE8
Encoding: 64488 64488 117
Width: 604
VWidth: 2186
GlyphClass: 2
Flags: W
AnchorPoint: "Anchor-10" 276.93 1019.5 basechar 0
AnchorPoint: "Anchor-7" 308.93 -109.5 basechar 0
LayerCount: 2
Fore
SplineSet
415.59375 75.8154296875 m 0,0,1
 327.109375 0 327.109375 0 80.6494140625 0 c 2,2,-1
 -10.400390625 0 l 1,3,-1
 -10.400390625 174.98046875 l 1,4,-1
 94.048828125 174.98046875 l 2,5,6
 153.801757812 175 153.801757812 175 197.303710938 180.755859375 c 0,7,8
 306.904296875 194.756835938 306.904296875 194.756835938 334.927246094 261.124511719 c 128,-1,9
 362.950195312 327.4921875 362.950195312 327.4921875 351.989257812 460.516113281 c 128,-1,10
 341.029183176 593.529567189 341.029183176 593.529567189 317.55078125 686.482421875 c 1,11,-1
 469.576171875 718.661132812 l 1,12,13
 505.966677532 626.71318501 505.966677532 626.71318501 513.498963766 478.735987036 c 0,14,15
 529.126921759 171.713475942 529.126921759 171.713475942 415.59375 75.8154296875 c 0,0,1
EndSplineSet
EndChar
StartChar: uniFBE9
Encoding: 64489 64489 148
Width: 696
VWidth: 2181
GlyphClass: 2
Flags: W
AnchorPoint: "Anchor-10" 296.93 964.5 basechar 0
AnchorPoint: "Anchor-7" 278.93 -120.5 basechar 0
LayerCount: 2
Fore
SplineSet
321.94 94.9971 m 6,0,1
 236.866 -5.26516e-06 236.866 -5.26516e-06 89.9004 0 c 6,2,-1
 -20.4004 0 l 5,3,-1
 -20.4004 168.98 l 5,4,-1
 43.0498 168.98 l 6,5,6
 158.427 168.98 158.427 168.98 204.704 214.946 c 4,7,8
 259.886 269.761 259.886 269.761 261.462 342.783 c 6,9,-1
 265.988 552.5 l 5,10,-1
 404.871 576.5 l 5,11,-1
 413.397 342.783 l 6,12,13
 416.21 265.696 416.21 265.696 474.386 214.733 c 4,14,15
 526.613 168.98 526.613 168.98 662.811 168.98 c 6,16,-1
 717.66 168.98 l 5,17,-1
 717.66 0 l 5,18,-1
 603.96 0 l 6,19,20
 435.196 -3.97768e-06 435.196 -3.97768e-06 348.188 94.6973 c 6,21,-1
 334.76 109.312 l 5,22,-1
 321.94 94.9971 l 6,0,1
EndSplineSet
EndChar
StartChar: uniFE73
Encoding: 65139 65139 126
Width: 579
VWidth: 2186
GlyphClass: 2
Flags: W
AnchorPoint: "Anchor-10" 213.79 1282.5 basechar 0
AnchorPoint: "Anchor-7" 213.79 -108.5 basechar 0
LayerCount: 2
Fore
SplineSet
302.23046875 353.740234375 m 2,0,1
 302.23046875 290.749023438 302.23046875 290.749023438 354.913574219 238.064453125 c 128,-1,2
 407.596679688 185.379882812 407.596679688 185.379882812 517.669921875 185.379882812 c 2,3,-1
 587.919921875 185.379882812 l 1,4,-1
 587.919921875 8.5 l 1,5,-1
 458.8203125 8.5 l 2,6,7
 311.0234375 8.5 311.0234375 8.5 218.186523438 101.3359375 c 128,-1,8
 125.349609375 194.171875 125.349609375 194.171875 125.349609375 340.900390625 c 2,9,-1
 125.349609375 376.91015625 l 1,10,-1
 302.23046875 376.91015625 l 1,11,-1
 302.23046875 353.740234375 l 2,0,1
EndSplineSet
EndChar
StartChar: uniFE8E
Encoding: 65166 65166 162
Width: 520
VWidth: 2181
GlyphClass: 2
Flags: W
AnchorPoint: "Anchor-10" 212.95 1580 basechar 0
AnchorPoint: "Anchor-7" 246.95 -206.5 basechar 0
LayerCount: 2
Fore
SplineSet
167.509765625 403.940429688 m 2,0,-1
 130.509765625 1401.03027344 l 1,1,-1
 287.389648438 1470.03027344 l 1,2,-1
 286.989257812 416.780273438 l 2,3,4
 287 313 287 313 316.380859375 267.046875 c 0,5,6
 381.012872339 168.98046875 381.012872339 168.98046875 510.830078125 168.98046875 c 2,7,-1
 530.080078125 168.98046875 l 1,8,-1
 530.080078125 0 l 1,9,-1
 490.98046875 0 l 6,10,11
 313 0 313 0 229.794921875 124 c 0,12,13
 175 206 175 206 167.509765625 403.940429688 c 2,0,-1
EndSplineSet
EndChar
StartChar: uniFEA2
Encoding: 65186 65186 182
Width: 1299
VWidth: 2181
GlyphClass: 2
Flags: W
AnchorPoint: "Anchor-10" 578.5 1118 basechar 0
AnchorPoint: "Anchor-7" 409.84 -765.64 basechar 0
LayerCount: 2
Fore
SplineSet
880 410.997070312 m 1,0,1
 681 376 681 376 533 291 c 0,2,3
 245 124 245 124 245.080078125 -135.1640625 c 0,4,5
 245 -283 245 -283 354.662109375 -370.796875 c 0,6,7
 462 -458 462 -458 730.76171875 -458.520507812 c 0,8,9
 924 -459 924 -459 1085 -413 c 1,10,-1
 1131 -553 l 1,11,12
 936 -613 936 -613 724 -613 c 0,13,14
 341 -613 341 -613 193.438476562 -439.048828125 c 0,15,16
 91 -319 91 -319 91.2666015625 -144.452148438 c 0,17,18
 91 36 91 36 182.49609375 174.852539062 c 0,19,20
 287.694888199 335.013025323 287.694888199 335.013025323 500 433 c 4,21,22
 684 518 684 518 841.075195312 526.811523438 c 1,23,24
 776 538 776 538 641.181640625 601.715820312 c 0,25,26
 509 664 509 664 475.499023438 663.9765625 c 0,27,28
 347 664 347 664 219 500 c 1,29,-1
 115 580 l 1,30,31
 235 756 235 756 363.06640625 796.524414062 c 0,32,33
 412 812 412 812 460 812 c 0,34,35
 490 812 490 812 515 805 c 0,36,37
 563 792 563 792 696 727 c 0,38,39
 860 647 860 647 936.548828125 620.237304688 c 0,40,41
 1013 594 1013 594 1098 582.604492188 c 1,42,-1
 1076 429 l 1,43,44
 1037 426 1037 426 1008 423.845703125 c 1,45,46
 1039.95248601 168.379882812 1039.95248601 168.379882812 1283.12988281 168.379882812 c 2,47,-1
 1317.94042969 168.379882812 l 1,48,-1
 1317.94042969 -0.5 l 1,49,-1
 1289.50976562 -0.5 l 2,50,51
 1199.2879096 0.0337954457521 1199.2879096 0.0337954457521 1129.04101562 20.50390625 c 0,52,53
 1069 38 1069 38 1007.62695312 98.4775390625 c 0,54,55
 895 210 895 210 880 410.997070312 c 1,0,1
EndSplineSet
EndChar
StartChar: uniFEA3
Encoding: 65187 65187 183
Width: 1269
VWidth: 2181
GlyphClass: 2
Flags: W
AnchorPoint: "Anchor-10" 368 1052.73 basechar 0
AnchorPoint: "Anchor-7" 563 -208.5 basechar 0
LayerCount: 2
Fore
SplineSet
616.854 89.4824 m 0,0,1
 431.97 0 431.97 0 43.2549 0 c 2,2,-1
 -20.4004 0 l 1,3,-1
 -20.4004 168.98 l 1,4,-1
 14.5996 168.98 l 2,5,6
 362.657 168.975 362.657 168.975 499.854 218.482 c 0,7,8
 738.57 304.621 738.57 304.621 928.854 398.482 c 5,9,10
 848.931 402.745 848.931 402.745 696.357 470.833 c 4,11,12
 504.509 556.448 504.509 556.448 407.114 570.396 c 4,13,14
 292.373 587.396 292.373 587.396 166.114 421.396 c 5,15,-1
 62.1143 501.396 l 5,16,17
 152.512 629.431 152.512 629.431 210.114 672 c 4,18,19
 333.129 761.26 333.129 761.26 497.854 716.548 c 4,20,21
 551.754 701.918 551.754 701.918 863.854 566.548 c 4,22,23
 1067.95 478.025 1067.95 478.025 1234.11 489 c 5,24,-1
 1212.11 356.396 l 1,25,26
 1133.71 339.634 1133.71 339.634 616.854 89.4824 c 0,0,1
EndSplineSet
EndChar
StartChar: uniFEA4
Encoding: 65188 65188 204
Width: 1394
VWidth: 2181
GlyphClass: 2
Flags: W
AnchorPoint: "Anchor-10" 376 1072.69 basechar 0
AnchorPoint: "Anchor-7" 544 -216.5 basechar 0
LayerCount: 2
Fore
SplineSet
834.27 192.781 m 5,0,1
 737.531 147.379 737.531 147.379 616.854 89.4824 c 4,2,3
 431.764 0 431.764 0 43.2549 0 c 6,4,-1
 -20.4004 0 l 5,5,-1
 -20.4004 168.98 l 5,6,-1
 14.5996 168.98 l 6,7,8
 362.671 168.98 362.671 168.98 499.854 218.482 c 4,9,10
 738.57 304.621 738.57 304.621 928.854 398.482 c 5,11,12
 848.931 402.745 848.931 402.745 696.357 470.833 c 4,13,14
 504.509 556.448 504.509 556.448 407.114 570.396 c 4,15,16
 292.373 587.396 292.373 587.396 166.114 421.396 c 5,17,-1
 62.1143 501.396 l 5,18,19
 152.512 629.431 152.512 629.431 210.114 672 c 4,20,21
 331.496 761.703 331.496 761.703 497.854 716.548 c 4,22,23
 551.754 701.918 551.754 701.918 863.854 566.548 c 4,24,25
 1067.95 478.025 1067.95 478.025 1234.11 489 c 5,26,-1
 1212.11 356.396 l 5,27,28
 1167 345.818 1167 345.818 966.27 254.021 c 5,29,30
 977.16 169.88 977.16 169.88 1243.32 169.88 c 6,31,-1
 1414.94 169.88 l 5,32,-1
 1414.94 0 l 5,33,-1
 1221.92 0 l 6,34,35
 894.652 0 894.652 0 834.27 192.781 c 5,0,1
EndSplineSet
EndChar
StartChar: uniFEAA
Encoding: 65194 65194 190
Width: 1091
VWidth: 2181
GlyphClass: 2
Flags: W
AnchorPoint: "Anchor-10" 534.99 1129.65 basechar 0
AnchorPoint: "Anchor-7" 445.5 -236 basechar 0
LayerCount: 2
Fore
SplineSet
686.412 336.5 m 2,0,-1
 441.912 833 l 1,1,-1
 591.787 896.698 l 1,2,3
 856 373 l 2,4,5
 956 175 956 175 1073.4 169.805 c 6,6,-1
 1111.65 169.38 l 1,7,-1
 1111.65 0.5 l 1,8,-1
 1070.44 0.5 l 2,9,10
 911 0 911 0 820.875 121.808 c 1,11,12
 710 -29 710 -29 338.412 -20 c 0,13,14
 204 -17 204 -17 90.1748 22.1123 c 1,15,-1
 90.1748 201.915 l 1,16,17
 204 153 204 153 348.412 151 c 0,18,19
 594 147 594 147 680.912 229.778 c 0,20,21
 705 253 705 253 694.372 312.46 c 0,22,23
 692 325 692 325 686.412 336.5 c 2,0,-1
EndSplineSet
EndChar
StartChar: uniFEAE
Encoding: 65198 65198 184
Width: 931
VWidth: 2186
GlyphClass: 2
Flags: W
AnchorPoint: "Anchor-10" 492 821 basechar 0
AnchorPoint: "Anchor-7" 420.925 -642.55 basechar 0
LayerCount: 2
Fore
SplineSet
923.765625 0.0087890625 m 2,0,1
 783.91866101 0.0853671831822 783.91866101 0.0853671831822 738.705078125 47.5380859375 c 1,2,3
 663.983921608 -502.118274272 663.983921608 -502.118274272 97.7646484375 -503.802734375 c 2,4,-1
 95.466796875 -503.809570312 l 1,5,-1
 24.306640625 -375.09375 l 1,6,7
 543 -344 543 -344 590.12109375 69.7783203125 c 0,8,9
 601 165 601 165 527.555664062 427.552734375 c 5,10,-1
 670 530.17578125 l 5,11,12
 726 262 726 262 730.451171875 247.4375 c 0,13,14
 755 175 755 175 918.83984375 174.98046875 c 2,15,-1
 941.599609375 174.98046875 l 1,16,-1
 941.599609375 -0.0009765625 l 1,17,-1
 923.765625 0.0087890625 l 2,0,1
EndSplineSet
PairPos2: "'kern' Horizontal Kerning lookup 15-1" uni06CA dx=-80 dy=0 dh=-80 dv=0 dx=0 dy=0 dh=0 dv=0
PairPos2: "'kern' Horizontal Kerning lookup 15-1" uniFB90 dx=-290 dy=0 dh=-290 dv=0 dx=0 dy=0 dh=0 dv=0
PairPos2: "'kern' Horizontal Kerning lookup 15-1" uniFB8E dx=-290 dy=0 dh=-290 dv=0 dx=0 dy=0 dh=0 dv=0
PairPos2: "'kern' Horizontal Kerning lookup 15-1" uni06A9 dx=-290 dy=0 dh=-290 dv=0 dx=0 dy=0 dh=0 dv=0
PairPos2: "'kern' Horizontal Kerning lookup 15-1" uni064A dx=-100 dy=0 dh=-100 dv=0 dx=0 dy=0 dh=0 dv=0
PairPos2: "'kern' Horizontal Kerning lookup 15-1" afii57414 dx=-100 dy=0 dh=-100 dv=0 dx=0 dy=0 dh=0 dv=0
PairPos2: "'kern' Horizontal Kerning lookup 15-1" uniFBE8 dx=-200 dy=0 dh=-200 dv=0 dx=0 dy=0 dh=0 dv=0
PairPos2: "'kern' Horizontal Kerning lookup 15-1" uni0649 dx=-80 dy=0 dh=-80 dv=0 dx=0 dy=0 dh=0 dv=0
PairPos2: "'kern' Horizontal Kerning lookup 15-1" uni0648 dx=-80 dy=0 dh=-80 dv=0 dx=0 dy=0 dh=0 dv=0
PairPos2: "'kern' Horizontal Kerning lookup 15-1" afii57412 dx=-80 dy=0 dh=-80 dv=0 dx=0 dy=0 dh=0 dv=0
PairPos2: "'kern' Horizontal Kerning lookup 15-1" uniFEEB dx=-200 dy=0 dh=-200 dv=0 dx=0 dy=0 dh=0 dv=0
PairPos2: "'kern' Horizontal Kerning lookup 15-1" uni0647 dx=-200 dy=0 dh=-200 dv=0 dx=0 dy=0 dh=0 dv=0
PairPos2: "'kern' Horizontal Kerning lookup 15-1" uniFEE7 dx=-200 dy=0 dh=-200 dv=0 dx=0 dy=0 dh=0 dv=0
PairPos2: "'kern' Horizontal Kerning lookup 15-1" uni0646 dx=-150 dy=0 dh=-150 dv=0 dx=0 dy=0 dh=0 dv=0
PairPos2: "'kern' Horizontal Kerning lookup 15-1" uniFEE3 dx=-200 dy=0 dh=-200 dv=0 dx=0 dy=0 dh=0 dv=0
PairPos2: "'kern' Horizontal Kerning lookup 15-1" uni0645 dx=-200 dy=0 dh=-200 dv=0 dx=0 dy=0 dh=0 dv=0
PairPos2: "'kern' Horizontal Kerning lookup 15-1" uniFEFB dx=-200 dy=0 dh=-200 dv=0 dx=0 dy=0 dh=0 dv=0
PairPos2: "'kern' Horizontal Kerning lookup 15-1" uniFEDF dx=-200 dy=0 dh=-200 dv=0 dx=0 dy=0 dh=0 dv=0
PairPos2: "'kern' Horizontal Kerning lookup 15-1" uni0644 dx=-150 dy=0 dh=-150 dv=0 dx=0 dy=0 dh=0 dv=0
PairPos2: "'kern' Horizontal Kerning lookup 15-1" uniFEDB dx=-290 dy=0 dh=-290 dv=0 dx=0 dy=0 dh=0 dv=0
PairPos2: "'kern' Horizontal Kerning lookup 15-1" uni0643 dx=-200 dy=0 dh=-200 dv=0 dx=0 dy=0 dh=0 dv=0
PairPos2: "'kern' Horizontal Kerning lookup 15-1" uniFED7 dx=-200 dy=0 dh=-200 dv=0 dx=0 dy=0 dh=0 dv=0
PairPos2: "'kern' Horizontal Kerning lookup 15-1" uni0642 dx=-150 dy=0 dh=-150 dv=0 dx=0 dy=0 dh=0 dv=0
PairPos2: "'kern' Horizontal Kerning lookup 15-1" uniFED3 dx=-200 dy=0 dh=-200 dv=0 dx=0 dy=0 dh=0 dv=0
PairPos2: "'kern' Horizontal Kerning lookup 15-1" uni0641 dx=-200 dy=0 dh=-200 dv=0 dx=0 dy=0 dh=0 dv=0
PairPos2: "'kern' Horizontal Kerning lookup 15-1" uniFECF dx=-200 dy=0 dh=-200 dv=0 dx=0 dy=0 dh=0 dv=0
PairPos2: "'kern' Horizontal Kerning lookup 15-1" uniFECB dx=-200 dy=0 dh=-200 dv=0 dx=0 dy=0 dh=0 dv=0
PairPos2: "'kern' Horizontal Kerning lookup 15-1" uniFEC7 dx=-200 dy=0 dh=-200 dv=0 dx=0 dy=0 dh=0 dv=0
PairPos2: "'kern' Horizontal Kerning lookup 15-1" uni0638 dx=-200 dy=0 dh=-200 dv=0 dx=0 dy=0 dh=0 dv=0
PairPos2: "'kern' Horizontal Kerning lookup 15-1" uniFEC3 dx=-200 dy=0 dh=-200 dv=0 dx=0 dy=0 dh=0 dv=0
PairPos2: "'kern' Horizontal Kerning lookup 15-1" uni0637 dx=-200 dy=0 dh=-200 dv=0 dx=0 dy=0 dh=0 dv=0
PairPos2: "'kern' Horizontal Kerning lookup 15-1" uniFEBF dx=-200 dy=0 dh=-200 dv=0 dx=0 dy=0 dh=0 dv=0
PairPos2: "'kern' Horizontal Kerning lookup 15-1" uni0636 dx=-200 dy=0 dh=-200 dv=0 dx=0 dy=0 dh=0 dv=0
PairPos2: "'kern' Horizontal Kerning lookup 15-1" uniFEBB dx=-200 dy=0 dh=-200 dv=0 dx=0 dy=0 dh=0 dv=0
PairPos2: "'kern' Horizontal Kerning lookup 15-1" uni0635 dx=-200 dy=0 dh=-200 dv=0 dx=0 dy=0 dh=0 dv=0
PairPos2: "'kern' Horizontal Kerning lookup 15-1" uniFEB7 dx=-200 dy=0 dh=-200 dv=0 dx=0 dy=0 dh=0 dv=0
PairPos2: "'kern' Horizontal Kerning lookup 15-1" uni0634 dx=-200 dy=0 dh=-200 dv=0 dx=0 dy=0 dh=0 dv=0
PairPos2: "'kern' Horizontal Kerning lookup 15-1" uniFEB3 dx=-200 dy=0 dh=-200 dv=0 dx=0 dy=0 dh=0 dv=0
PairPos2: "'kern' Horizontal Kerning lookup 15-1" uni0633 dx=-200 dy=0 dh=-200 dv=0 dx=0 dy=0 dh=0 dv=0
PairPos2: "'kern' Horizontal Kerning lookup 15-1" uni0632 dx=-80 dy=0 dh=-80 dv=0 dx=0 dy=0 dh=0 dv=0
PairPos2: "'kern' Horizontal Kerning lookup 15-1" uni0631 dx=-80 dy=0 dh=-80 dv=0 dx=0 dy=0 dh=0 dv=0
PairPos2: "'kern' Horizontal Kerning lookup 15-1" uni0630 dx=-200 dy=0 dh=-200 dv=0 dx=0 dy=0 dh=0 dv=0
PairPos2: "'kern' Horizontal Kerning lookup 15-1" uni062F dx=-200 dy=0 dh=-200 dv=0 dx=0 dy=0 dh=0 dv=0
PairPos2: "'kern' Horizontal Kerning lookup 15-1" uniFEA7 dx=-200 dy=0 dh=-200 dv=0 dx=0 dy=0 dh=0 dv=0
PairPos2: "'kern' Horizontal Kerning lookup 15-1" uniFEA3 dx=-200 dy=0 dh=-200 dv=0 dx=0 dy=0 dh=0 dv=0
PairPos2: "'kern' Horizontal Kerning lookup 15-1" uniFE9F dx=-200 dy=0 dh=-200 dv=0 dx=0 dy=0 dh=0 dv=0
PairPos2: "'kern' Horizontal Kerning lookup 15-1" uniFE9B dx=-200 dy=0 dh=-200 dv=0 dx=0 dy=0 dh=0 dv=0
PairPos2: "'kern' Horizontal Kerning lookup 15-1" uni062B dx=-200 dy=0 dh=-200 dv=0 dx=0 dy=0 dh=0 dv=0
PairPos2: "'kern' Horizontal Kerning lookup 15-1" uniFE97 dx=-200 dy=0 dh=-200 dv=0 dx=0 dy=0 dh=0 dv=0
PairPos2: "'kern' Horizontal Kerning lookup 15-1" uni062A dx=-200 dy=0 dh=-200 dv=0 dx=0 dy=0 dh=0 dv=0
PairPos2: "'kern' Horizontal Kerning lookup 15-1" uni0629 dx=-200 dy=0 dh=-200 dv=0 dx=0 dy=0 dh=0 dv=0
PairPos2: "'kern' Horizontal Kerning lookup 15-1" uniFE91 dx=-200 dy=0 dh=-200 dv=0 dx=0 dy=0 dh=0 dv=0
PairPos2: "'kern' Horizontal Kerning lookup 15-1" uni0628 dx=-200 dy=0 dh=-200 dv=0 dx=0 dy=0 dh=0 dv=0
PairPos2: "'kern' Horizontal Kerning lookup 15-1" uni0627 dx=-200 dy=0 dh=-200 dv=0 dx=0 dy=0 dh=0 dv=0
PairPos2: "'kern' Horizontal Kerning lookup 15-1" uni0623 dx=-200 dy=0 dh=-200 dv=0 dx=0 dy=0 dh=0 dv=0
PairPos2: "'kern' Horizontal Kerning lookup 15-1" uni0622 dx=-200 dy=0 dh=-200 dv=0 dx=0 dy=0 dh=0 dv=0
PairPos2: "'kern' Horizontal Kerning lookup 15-1" uni0621 dx=-200 dy=0 dh=-200 dv=0 dx=0 dy=0 dh=0 dv=0
PairPos2: "'kern' Horizontal Kerning lookup 15-1" uniFB94 dx=-290 dy=0 dh=-290 dv=0 dx=0 dy=0 dh=0 dv=0
PairPos2: "'kern' Horizontal Kerning lookup 15-1" uniFB92 dx=-290 dy=0 dh=-290 dv=0 dx=0 dy=0 dh=0 dv=0
PairPos2: "'kern' Horizontal Kerning lookup 15-1" afii57509 dx=-290 dy=0 dh=-290 dv=0 dx=0 dy=0 dh=0 dv=0
PairPos2: "'kern' Horizontal Kerning lookup 15-1" afii57508 dx=-80 dy=0 dh=-80 dv=0 dx=0 dy=0 dh=0 dv=0
PairPos2: "'kern' Horizontal Kerning lookup 15-1" uniFB7C dx=-150 dy=0 dh=-150 dv=0 dx=0 dy=0 dh=0 dv=0
PairPos2: "'kern' Horizontal Kerning lookup 15-1" afii57506 dx=-200 dy=0 dh=-200 dv=0 dx=0 dy=0 dh=0 dv=0
PairPos2: "'kern' Horizontal Kerning lookup 15-1" afii57440 dx=-200 dy=0 dh=-200 dv=0 dx=0 dy=0 dh=0 dv=0
PairPos2: "'kern' Horizontal Kerning lookup 15-1" uniFE8B dx=-200 dy=0 dh=-200 dv=0 dx=0 dy=0 dh=0 dv=0
EndChar
StartChar: uniFEB2
Encoding: 65202 65202 188
Width: 2420
VWidth: 2181
GlyphClass: 2
Flags: W
AnchorPoint: "Anchor-10" 604 884.5 basechar 0
AnchorPoint: "Anchor-7" 439 -698.5 basechar 0
LayerCount: 2
Fore
SplineSet
660.5 -325 m 4,0,1
 1044 -326 1044 -326 1085.14355469 3.3720703125 c 0,2,3
 1112 217 1112 217 978.736328125 387.4375 c 1,4,-1
 1117.06152344 519.1328125 l 1,5,6
 1154 433 1154 433 1211.12109375 290.963867188 c 1,7,8
 1275 172 1275 172 1419.433749 173.990356556 c 128,-1,9
 1564 176 1564 176 1585.61230469 352.37109375 c 2,10,-1
 1608.22363281 537.650390625 l 1,11,-1
 1735.0703125 537.650390625 l 1,12,-1
 1749.96875 366.268554688 l 2,13,14
 1767.72675782 161.99210068 1767.72675782 161.99210068 1923.86035156 166.505859375 c 0,15,16
 2028 169 2028 169 2042.41699219 377.3203125 c 2,17,-1
 2058.43945312 610.360351562 l 1,18,-1
 2186.38769531 610.360351562 l 1,19,-1
 2204.88867188 390.7734375 l 2,20,21
 2217.45162134 241.664589545 2217.45162134 241.664589545 2266.5 205.237304688 c 0,22,23
 2306 175 2306 175 2410.45996094 175.379882812 c 2,24,-1
 2430.33007812 175.379882812 l 1,25,-1
 2430.33007812 0.5 l 1,26,-1
 2381.91210938 0.5 l 2,27,28
 2194.71983243 0.5 2194.71983243 0.5 2127.27441406 120.866210938 c 1,29,30
 2053 -1 2053 -1 1894.44140625 0 c 0,31,32
 1737 1 1737 1 1671.26464844 132.879882812 c 1,33,34
 1608 -1 1608 -1 1446.79492188 0 c 0,35,36
 1266 1 1266 1 1229.44628906 63.5791015625 c 1,37,38
 1218 -483 1218 -483 658.287109375 -488.25 c 8,39,40
 253 -492 253 -492 128 -203.55078125 c 0,41,42
 65 -59 65 -59 95.2236328125 144.134765625 c 0,43,44
 115 279 115 279 173.080078125 409.20703125 c 1,45,-1
 322.830078125 357.799804688 l 1,46,47
 247 174 247 174 247.125976562 33.2744140625 c 0,48,49
 247 2 247 2 251 -28 c 0,50,51
 290 -325 290 -325 660.5 -325 c 4,0,1
EndSplineSet
EndChar
StartChar: uniFEB3
Encoding: 65203 65203 189
Width: 1521
VWidth: 2181
GlyphClass: 2
Flags: W
AnchorPoint: "Anchor-10" 645.5 956.5 basechar 0
AnchorPoint: "Anchor-7" 665.5 -187 basechar 0
LayerCount: 2
Fore
SplineSet
347.383789062 123.431640625 m 1,0,1
 314.466775954 77.0297246781 314.466775954 77.0297246781 256.685048133 38.5148623391 c 128,-1,2
 198.903320312 0 198.903320312 0 67.7001953125 0 c 2,3,-1
 -10.400390625 0 l 1,4,-1
 -10.400390625 174.98046875 l 1,5,-1
 8.849609375 174.98046875 l 2,6,7
 267.717773438 175 267.717773438 175 282.565429688 371.471679688 c 2,8,-1
 294.475585938 529.0703125 l 1,9,-1
 409.856445312 529.0703125 l 1,10,-1
 425.181640625 371.620117188 l 2,11,12
 444.728141636 167.964710913 444.728141636 167.964710913 624.71875 165.6328125 c 0,13,14
 794.439453125 164.024414062 794.439453125 164.024414062 810.30078125 298.484375 c 2,15,-1
 837.500976562 529.0703125 l 1,16,-1
 949.821289062 529.0703125 l 1,17,-1
 972.182617188 320.5078125 l 2,18,19
 990.663085938 144.36328125 990.663085938 144.36328125 1149.5078125 164.608398438 c 0,20,21
 1213.08675027 172.779498152 1213.08675027 172.779498152 1242.60449219 227.848632812 c 0,22,23
 1282.91015625 304.568359375 1282.91015625 304.568359375 1268.28027344 426.104492188 c 0,24,25
 1262.06655833 479.253653426 1262.06655833 479.253653426 1230.8359375 650.505859375 c 1,26,-1
 1379.11425781 698.0234375 l 1,27,28
 1419.95967173 581.675894813 1419.95967173 581.675894813 1428.55551946 458.597713031 c 0,29,30
 1460.47682797 1.53789341823 1460.47682797 1.53789341823 1123.76171875 0.5 c 0,31,32
 1054.37207031 -0.0048828125 1054.37207031 -0.0048828125 1018.98535156 15.78125 c 0,33,34
 926.088867188 55.8330078125 926.088867188 55.8330078125 894.358398438 138.940429688 c 1,35,36
 842.37109375 -1.9560546875 842.37109375 -1.9560546875 593.423828125 0.005859375 c 0,37,38
 413.676757812 1.9814453125 413.676757812 1.9814453125 347.383789062 123.431640625 c 1,0,1
EndSplineSet
EndChar
StartChar: uniFEB4
Encoding: 65204 65204 190
Width: 1694
VWidth: 2176
GlyphClass: 2
Flags: W
AnchorPoint: "Anchor-10" 665.5 951.5 basechar 0
AnchorPoint: "Anchor-7" 758.5 -207 basechar 0
LayerCount: 2
Fore
SplineSet
1387.18261719 129.70703125 m 1,0,1
 1337.29784717 3.97242937878 1337.29784717 3.97242937878 1157.52490015 1.99695687689 c 128,-1,2
 977.751953125 0.021484375 977.751953125 0.021484375 927.903320312 139.8828125 c 1,3,4
 839.064453125 1.0302734375 839.064453125 1.0302734375 629.640625 3.2099609375 c 0,5,6
 462.665039062 4.982421875 462.665039062 4.982421875 367.069335938 129.084960938 c 1,7,8
 351.78125 99.267578125 351.78125 99.267578125 276.842285156 49.6337890625 c 128,-1,9
 201.903320312 0 201.903320312 0 66.20703125 0 c 2,10,-1
 -10.2744140625 0 l 1,11,-1
 -10.2744140625 174.978515625 l 1,12,-1
 58.6669921875 174.978515625 l 1,13,14
 270.130859375 176.97265625 270.130859375 176.97265625 290.427734375 327.612304688 c 2,15,-1
 317.879882812 531.360351562 l 1,16,-1
 429.581054688 531.360351562 l 1,17,-1
 452.997070312 364.8046875 l 2,18,19
 479.616210938 176.921875 479.616210938 176.921875 653.559570312 171.501464844 c 128,-1,20
 827.502929688 166.081054688 827.502929688 166.081054688 847.864257812 331.815429688 c 2,21,-1
 872.37890625 531.360351562 l 1,22,-1
 983.71484375 531.360351562 l 1,23,-1
 1011.71484375 317.192382812 l 2,24,25
 1030.63451086 171.99272474 1030.63451086 171.99272474 1161.31445312 171.607421875 c 0,26,27
 1287.72070312 171.010742188 1287.72070312 171.010742188 1302.97363281 331.577148438 c 2,28,-1
 1328.47167969 600 l 1,29,-1
 1439.40917969 600 l 1,30,-1
 1466.2421875 363.453125 l 2,31,32
 1478.83691406 249.642578125 1478.83691406 249.642578125 1529.48828125 212.761230469 c 128,-1,33
 1580.13964844 175.879882812 1580.13964844 175.879882812 1686.45019531 175.879882812 c 2,34,-1
 1704.63964844 175.879882812 l 1,35,-1
 1704.63964844 0 l 1,36,-1
 1660.66015625 0 l 2,37,38
 1453.60058594 0 1453.60058594 0 1387.18261719 129.70703125 c 1,0,1
EndSplineSet
EndChar
StartChar: uniFEBA
Encoding: 65210 65210 196
Width: 2481
VWidth: 2181
GlyphClass: 2
Flags: W
AnchorPoint: "Anchor-10" 631 984.5 basechar 0
AnchorPoint: "Anchor-7" 418 -670.5 basechar 0
LayerCount: 2
Fore
SplineSet
659.287109375 -488.25 m 12,0,1
 250.016884707 -490.756735733 250.016884707 -490.756735733 126 -203.55078125 c 4,2,3
 63 -59 63 -59 93.2236328125 144.134765625 c 0,4,5
 113 279 113 279 171.080078125 409.20703125 c 1,6,-1
 320.830078125 357.799804688 l 1,7,8
 245 174 245 174 245.125976562 33.2744140625 c 0,9,10
 245 2 245 2 249 -28 c 0,11,12
 288 -325 288 -325 660.5 -325 c 0,13,14
 1044 -326 1044 -326 1085.14355469 3.3720703125 c 0,15,16
 1112 217 1112 217 978.736328125 387.4375 c 1,17,-1
 1117.06152344 519.1328125 l 1,18,19
 1153 432 1153 432 1211.16503906 290.856445312 c 0,20,21
 1232 240 1232 240 1290.66601562 234.298828125 c 1,22,23
 1635 710 1635 710 1948.05371094 709.329101562 c 0,24,25
 2054 709 2054 709 2138.66992188 658.845703125 c 0,26,27
 2277 576 2277 576 2277.74414062 398.991210938 c 0,28,29
 2278 332 2278 332 2256.58691406 271.721679688 c 1,30,31
 2335.23592884 174.708984375 2335.23592884 174.708984375 2455.55371094 174.708984375 c 2,32,-1
 2491.84375 174.708984375 l 1,33,-1
 2491.84375 -0.1708984375 l 1,34,-1
 2434.15136719 -0.1708984375 l 2,35,36
 2243 -0 2243 -0 2153.67675781 128.958984375 c 1,37,38
 2139 117 2139 117 2125.38574219 107.353515625 c 0,39,40
 1976.42109874 -1.69174683956 1976.42109874 -1.69174683956 1627.98339844 -0.6708984375 c 2,41,-1
 1398.99121094 0 l 2,42,43
 1300 0 1300 0 1242.58398438 73.7724609375 c 1,44,-1
 1229.61035156 73.9697265625 l 1,45,46
 1223 -481 1223 -481 659.287109375 -488.25 c 12,0,1
1439.77050781 185.337890625 m 1,47,-1
 1612.20898438 185.337890625 l 2,48,49
 1868.48468027 185.330077401 1868.48468027 185.330077401 1979.96777344 228.629882812 c 0,50,51
 2122.15136719 283.265625 2122.15136719 283.265625 2110.19628906 403.921875 c 0,52,53
 2106.1484375 440.2265625 2106.1484375 440.2265625 2070.32568359 488.809082031 c 128,-1,54
 2034.50292969 537.391601562 2034.50292969 537.391601562 1952.09179688 540.88671875 c 0,55,56
 1823.04101562 547.276367188 1823.04101562 547.276367188 1696.07666016 445.008789062 c 128,-1,57
 1569.11230469 342.741210938 1569.11230469 342.741210938 1439.77050781 185.337890625 c 1,47,-1
EndSplineSet
EndChar
StartChar: uniFEBB
Encoding: 65211 65211 197
Width: 1623
VWidth: 2181
GlyphClass: 2
Flags: W
AnchorPoint: "Anchor-10" 551.3 1072.8 basechar 0
AnchorPoint: "Anchor-7" 670.3 -250 basechar 0
LayerCount: 2
Fore
SplineSet
693.7265625 176.008789062 m 1,0,-1
 866.165039062 176.008789062 l 2,1,2
 1122 176 1122 176 1233.92382812 219.30078125 c 0,3,4
 1376 274 1376 274 1364.15234375 404.592773438 c 0,5,6
 1360 452 1360 452 1333.28125 487.48046875 c 0,7,8
 1295 538 1295 538 1206.04785156 541.557617188 c 0,9,10
 1077 548 1077 548 950.032714844 445.6796875 c 0,11,12
 848 363 848 363 693.7265625 176.008789062 c 1,0,-1
544.737304688 225.134765625 m 5,13,14
 894 710 894 710 1202 710 c 0,15,16
 1308 710 1308 710 1392.61523438 659.522460938 c 0,17,18
 1530 578 1530 578 1531.49707031 396.579589844 c 128,-1,19
 1533 215 1533 215 1378.93554688 107.189453125 c 0,20,21
 1224.90708487 -1.06530289862 1224.90708487 -1.06530289862 881.938476562 0 c 2,22,-1
 665.946289062 0.6708984375 l 2,23,24
 445 1 445 1 348.779296875 153.857421875 c 1,25,26
 233 0 233 0 63.990234375 0 c 2,27,-1
 -10.400390625 0 l 1,28,-1
 -10.400390625 174.98046875 l 1,29,-1
 5.763671875 174.979492188 l 2,30,31
 119 175 119 175 173.159179688 217.557617188 c 0,32,33
 266.55343416 289.655264165 266.55343416 289.655264165 270.213867188 388.4765625 c 2,34,-1
 275.716796875 537.040039062 l 1,35,-1
 427.893554688 537.040039062 l 1,36,-1
 434.5234375 367.305664062 l 2,37,38
 439 245 439 245 544.737304688 225.134765625 c 5,13,14
EndSplineSet
EndChar
StartChar: uniFEBC
Encoding: 65212 65212 198
Width: 1735
VWidth: 2181
GlyphClass: 2
Flags: W
AnchorPoint: "Anchor-10" 583.5 1137.5 basechar 0
AnchorPoint: "Anchor-7" 669.5 -257 basechar 0
LayerCount: 2
Fore
SplineSet
693.7265625 186.008789062 m 1,0,-1
 866.165039062 186.008789062 l 2,1,2
 1122.45165916 186.001957849 1122.45165916 186.001957849 1233.92382812 229.30078125 c 0,3,4
 1376.10742188 283.936523438 1376.10742188 283.936523438 1364.15234375 404.592773438 c 0,5,6
 1360.10449219 440.897460938 1360.10449219 440.897460938 1324.28173828 489.479980469 c 128,-1,7
 1288.45898438 538.0625 1288.45898438 538.0625 1206.04785156 541.557617188 c 0,8,9
 1076.99707031 547.947265625 1076.99707031 547.947265625 950.032714844 445.6796875 c 128,-1,10
 823.068359375 343.412109375 823.068359375 343.412109375 693.7265625 186.008789062 c 1,0,-1
544.737304688 235.134765625 m 1,11,12
 886.476308193 710 886.476308193 710 1202 710 c 0,13,14
 1307.82445468 710 1307.82445468 710 1392.61523438 659.522460938 c 0,15,16
 1529.98339844 577.71484375 1529.98339844 577.71484375 1531.70019531 399.6640625 c 0,17,18
 1531.99804688 332.520507812 1531.99804688 332.520507812 1510.54003906 272.388671875 c 1,19,20
 1588.1484375 175.379882812 1588.1484375 175.379882812 1709.50976562 175.379882812 c 2,21,-1
 1745.79980469 175.379882812 l 1,22,-1
 1745.79980469 0.5 l 1,23,-1
 1688.11816406 0.5 l 2,24,25
 1496.6640625 0.001953125 1496.6640625 0.001953125 1407.60742188 129.655273438 c 1,26,27
 1327.59582305 67.1535730792 1327.59582305 67.1535730792 1253.48638809 46.2130170084 c 128,-1,28
 1179.37695312 25.2724609375 1179.37695312 25.2724609375 1125.859375 16.697265625 c 0,29,30
 1018.99461504 -0.425822167268 1018.99461504 -0.425822167268 881.938476562 0 c 2,31,-1
 665.951171875 0.6708984375 l 2,32,33
 445.145507812 0.998046875 445.145507812 0.998046875 348.779296875 153.857421875 c 1,34,35
 233.123046875 0 233.123046875 0 63.990234375 0 c 2,36,-1
 -10.400390625 0 l 1,37,-1
 -10.400390625 174.98046875 l 1,38,-1
 5.138671875 174.98046875 l 2,39,40
 118.962890625 175 118.962890625 175 173.159179688 217.557617188 c 0,41,42
 266.571289062 290.134765625 266.571289062 290.134765625 270.213867188 388.4765625 c 2,43,-1
 275.716796875 537.040039062 l 1,44,-1
 427.893554688 537.040039062 l 1,45,-1
 434.5234375 367.305664062 l 2,46,47
 438.864257812 255.541992188 438.864257812 255.541992188 544.737304688 235.134765625 c 1,11,12
EndSplineSet
EndChar
StartChar: uniFEC2
Encoding: 65218 65218 204
Width: 1571
VWidth: 2181
GlyphClass: 2
Flags: W
AnchorPoint: "Anchor-7" 663.13 -222 basechar 0
AnchorPoint: "Anchor-10" 307.67 1593.79 basechar 0
LayerCount: 2
Fore
SplineSet
527.7265625 176.008789062 m 5,0,-1
 700.165039062 176.008789062 l 6,1,2
 956 176 956 176 1067.92382812 219.30078125 c 4,3,4
 1210 275 1210 275 1198.15234375 404.592773438 c 0,5,6
 1194 448 1194 448 1166.28222656 483.478515625 c 0,7,8
 1124 538 1124 538 1040.04785156 541.557617188 c 0,9,10
 911 548 911 548 784.032714844 445.6796875 c 0,11,12
 682 363 682 363 527.7265625 176.008789062 c 5,0,-1
383.060546875 241.125976562 m 1,13,14
 722.563865951 710 722.563865951 710 1036 710 c 0,15,16
 1141.82445468 710 1141.82445468 710 1226.61523438 659.522460938 c 0,17,18
 1363.98339844 577.71484375 1363.98339844 577.71484375 1365.70019531 399.663085938 c 0,19,20
 1365.99804688 329.53515625 1365.99804688 329.53515625 1344.30957031 270.513671875 c 1,21,22
 1418.22326943 175.379882812 1418.22326943 175.379882812 1545.50976562 175.379882812 c 2,23,-1
 1581.79980469 175.379882812 l 1,24,-1
 1581.79980469 0.5 l 1,25,-1
 1524.11816406 0.5 l 2,26,27
 1325.72210287 0.00161073791762 1325.72210287 0.00161073791762 1238.15917969 127.052734375 c 1,28,-1
 1213.30566406 107.998046875 l 1,29,30
 1060.95507812 0 1060.95507812 0 715.948242188 0 c 2,31,-1
 91.75 0 l 1,32,-1
 91.75 174.978515625 l 1,33,-1
 259.178710938 174.98046875 l 1,34,-1
 218.211914062 1412.90039062 l 1,35,-1
 383.16015625 1478.30664062 l 1,36,-1
 383.060546875 241.125976562 l 1,13,14
EndSplineSet
EndChar
StartChar: uniFEC3
Encoding: 65219 65219 205
Width: 1389
VWidth: 2181
GlyphClass: 2
Flags: W
AnchorPoint: "Anchor-10" 213.57 1598.47 basechar 0
AnchorPoint: "Anchor-7" 543.57 -235 basechar 0
LayerCount: 2
Fore
SplineSet
459.7265625 186.008789062 m 1,0,-1
 632.165039062 186.008789062 l 2,1,2
 888.440734954 186.000975839 888.440734954 186.000975839 999.923828125 229.30078125 c 0,3,4
 1142.10742188 283.936523438 1142.10742188 283.936523438 1130.15234375 404.592773438 c 0,5,6
 1126.10314442 440.897158401 1126.10314442 440.897158401 1090.2810644 489.4798292 c 128,-1,7
 1054.45898438 538.0625 1054.45898438 538.0625 972.047851562 541.557617188 c 0,8,9
 760.492605393 552.032281773 760.492605393 552.032281773 459.7265625 186.008789062 c 1,0,-1
315.060546875 241.125976562 m 1,10,11
 654.563865951 710 654.563865951 710 968 710 c 0,12,13
 1073.82445468 710 1073.82445468 710 1158.61523438 659.522460938 c 0,14,15
 1295.98246038 577.714366556 1295.98246038 577.714366556 1296.96925753 397.027105153 c 128,-1,16
 1297.95605469 216.33984375 1297.95605469 216.33984375 1145.45556641 108.169921875 c 128,-1,17
 992.955078125 0 992.955078125 0 647.948242188 0 c 2,18,-1
 -10.25 0 l 1,19,-1
 -10.25 174.978515625 l 1,20,-1
 191.1796875 174.98046875 l 1,21,-1
 150.211914062 1412.90039062 l 1,22,-1
 315.16015625 1478.30664062 l 1,23,-1
 315.060546875 241.125976562 l 1,10,11
EndSplineSet
EndChar
StartChar: uniFEC4
Encoding: 65220 65220 236
Width: 1489
VWidth: 2181
GlyphClass: 2
Flags: W
AnchorPoint: "Anchor-10" 206.27 1608.79 basechar 0
AnchorPoint: "Anchor-7" 547.73 -210 basechar 0
LayerCount: 2
Fore
SplineSet
401.142 180.008 m 1,0,-1
 579.917 180.008 l 2,1,2
 879.089 180.008 879.089 180.008 988.852 223 c 0,3,4
 1102.33 267.443 1102.33 267.443 1121.02 354.34 c 1,5,6
 1130.05 424.701 1130.05 424.701 1097.64 468.824 c 0,7,8
 1060.76 520.004 1060.76 520.004 984.282 531.102 c 0,9,10
 852.484 550.104 852.484 550.104 716.325 465.445 c 0,11,12
 532.782 353.379 532.782 353.379 401.142 180.008 c 1,0,-1
259.812 228.834 m 1,13,14
 483.288 551.744 483.288 551.744 730.325 658.443 c 0,15,16
 967.602 760.926 967.602 760.926 1146.83 653.945 c 0,17,18
 1310.54 556.23 1310.54 556.23 1279.8 329 c 0,19,20
 1275.67 297.783 1275.67 297.783 1265.15 268.833 c 1,21,22
 1344.32 169.38 1344.32 169.38 1467.51 169.38 c 2,23,-1
 1510.8 169.38 l 1,24,-1
 1510.8 0.5 l 1,25,-1
 1446.11 0.5 l 2,26,27
 1220.88 0.5 1220.88 0.5 1160.88 128.333 c 1,28,29
 1147.81 117.64 1147.81 117.64 1133.33 107.445 c 0,30,31
 979.466 0 979.466 0 637.7 0 c 2,32,-1
 -20.4004 0 l 1,33,-1
 -20.4004 168.98 l 1,34,-1
 140.13 168.98 l 1,35,-1
 140.13 1398.89 l 5,36,-1
 304.01 1470.89 l 5,37,-1
 259.812 228.834 l 1,13,14
EndSplineSet
EndChar
StartChar: uniFECA
Encoding: 65226 65226 222
Width: 1191
VWidth: 2181
GlyphClass: 2
Flags: W
AnchorPoint: "Anchor-10" 487 1133.05 basechar 0
AnchorPoint: "Anchor-7" 351.69 -765.64 basechar 0
LayerCount: 2
Fore
SplineSet
573 295 m 1,0,1
 550 282 l 0,2,3
 249 118 249 118 249.080300918 -135.163900457 c 0,4,5
 249 -283 249 -283 358.662030295 -370.79663302 c 0,6,7
 466 -458 466 -458 734.761503382 -458.520678561 c 0,8,9
 886 -459 886 -459 1029 -418 c 1,10,-1
 1080 -556 l 1,11,12
 898 -612 898 -612 734.819335938 -612.13671875 c 4,13,14
 332 -612 332 -612 186.438 -440.049 c 0,15,16
 89 -325 89 -325 89.2664866841 -144.451843581 c 0,17,18
 89 29 89 29 198.287109375 167.217773438 c 0,19,20
 302 298 302 298 463.58984375 381.57421875 c 1,21,22
 329 438 329 438 228.580078125 522.211914062 c 0,23,24
 140 596 140 596 146.858398438 680.500976562 c 0,25,26
 153 769 153 769 285.858398438 829.500976562 c 0,27,28
 393 879 393 879 568.858398438 882.500976562 c 0,29,30
 656 884 656 884 734.58984375 876.26953125 c 0,31,32
 913 858 913 858 965.169921875 758.2109375 c 0,33,34
 993 704 993 704 978.169921875 642.2109375 c 0,35,36
 948 518 948 518 696.169921875 379.2109375 c 1,37,38
 923.588276748 169.379882812 923.588276748 169.379882812 1150.5 169.379882812 c 2,39,-1
 1211.70019531 169.379882812 l 1,40,-1
 1211.70019531 0.5 l 1,41,-1
 1178.62011719 0.5 l 2,42,43
 852 0 852 0 573 295 c 1,0,1
583.662109375 742.999023438 m 0,44,45
 511 743 511 743 453.469726562 733.215820312 c 0,46,47
 277 704 277 704 300.169921875 648.368164062 c 0,48,49
 315 614 315 614 391.478515625 564.668945312 c 0,50,51
 488 503 488 503 583.662109375 458.521484375 c 1,52,53
 694 508 694 508 781 575.469726562 c 0,54,55
 839 621 839 621 838.8671875 649.0390625 c 0,56,57
 839 716 839 716 713.477539062 733.275390625 c 0,58,59
 644 743 644 743 583.662109375 742.999023438 c 0,44,45
EndSplineSet
EndChar
StartChar: uniFECB
Encoding: 65227 65227 243
Width: 1014
VWidth: 2181
GlyphClass: 2
Flags: W
AnchorPoint: "Anchor-10" 373.265 1216.23 basechar 0
AnchorPoint: "Anchor-7" 498.6 -245.5 basechar 0
LayerCount: 2
Fore
SplineSet
38.3301 168.98 m 6,0,1
 201.983 168.98 201.983 168.98 206.914 168.969 c 6,2,-1
 249.32 169.029 l 5,3,4
 57.7734 361.607 57.7734 361.607 159.3 598.793 c 4,5,6
 244.781 797.449 244.781 797.449 503.3 817 c 4,7,8
 707.623 832.526 707.623 832.526 854.98 693.572 c 5,9,-1
 799.854 576.417 l 5,10,11
 631.488 682.555 631.488 682.555 469.3 656.793 c 4,12,13
 300.723 629.904 300.723 629.904 275.011 469.952 c 132,-1,14
 249.3 310 249.3 310 417.3 192 c 4,15,16
 456.617 164.384 456.617 164.384 632.72 198.519 c 6,17,-1
 926 255.365 l 5,18,-1
 926 103.302 l 5,19,20
 524.676 -0.0247038 524.676 -0.0247038 324.357 -0.015625 c 6,21,-1
 -20.4004 0 l 5,22,-1
 -20.4004 168.98 l 5,23,-1
 38.3301 168.98 l 6,0,1
EndSplineSet
EndChar
StartChar: uniFECC
Encoding: 65228 65228 214
Width: 1018
VWidth: 2181
GlyphClass: 2
Flags: W
AnchorPoint: "Anchor-10" 460.58 1071.5 basechar 0
AnchorPoint: "Anchor-7" 496.58 -197.5 basechar 0
LayerCount: 2
Fore
SplineSet
773.27734375 532.778320312 m 0,0,1
 773.008789062 623.991210938 773.008789062 623.991210938 504.992675781 623.497070312 c 128,-1,2
 236.9765625 623.002929688 236.9765625 623.002929688 236.348632812 544.431640625 c 0,3,4
 235.896913113 498.453218147 235.896913113 498.453218147 425.942382812 393.965820312 c 0,5,6
 473.807617188 367.6484375 473.807617188 367.6484375 521.127929688 345.53515625 c 1,7,8
 602.500186855 380.317144737 602.500186855 380.317144737 705.828125 453.19921875 c 0,9,10
 773.012695312 501.546875 773.012695312 501.546875 773.27734375 532.778320312 c 0,0,1
639.521484375 262.778320312 m 1,11,12
 786 173 786 173 959.44140625 174.966796875 c 0,13,14
 962 175 962 175 963.84375 174.979492188 c 2,15,-1
 1028.55957031 175.375976562 l 1,16,-1
 1028.55957031 0.5 l 1,17,-1
 940.305664062 0.5 l 2,18,19
 940 0 940 0 938.733398438 0.498046875 c 0,20,21
 682 0 682 0 518.029296875 163.125976562 c 1,22,23
 346 0 346 0 92.8603515625 0 c 2,24,-1
 -10.400390625 0 l 1,25,-1
 -10.400390625 174.98046875 l 1,26,-1
 69.3203125 174.98046875 l 2,27,28
 289 175 289 175 397.360351562 264.48046875 c 1,29,30
 86 400 86 400 86.88671875 556.072265625 c 0,31,32
 87 574 87 574 91.0732421875 592.658203125 c 0,33,34
 121 732 121 732 349.534179688 767.963867188 c 4,35,36
 425 780 425 780 506.390625 779.8046875 c 4,37,38
 588 780 588 780 672.31640625 770.983398438 c 4,39,40
 847 752 847 752 905.24609375 643.317382812 c 0,41,42
 925 606 925 606 924.725585938 567.057617188 c 0,43,44
 925 420 925 420 639.521484375 262.778320312 c 1,11,12
EndSplineSet
EndChar
StartChar: uniFEDA
Encoding: 65242 65242 258
Width: 1840
VWidth: 2181
GlyphClass: 2
Flags: W
AnchorPoint: "Anchor-10" 539 1367.5 basechar 0
AnchorPoint: "Anchor-7" 570 -228.5 basechar 0
LayerCount: 2
Fore
SplineSet
751.279 0 m 0,0,1
 521.411 0.441527 521.411 0.441527 425.779 31.3779 c 0,2,3
 125.526 128.509 125.526 128.509 96.376 450.233 c 0,4,5
 86.2451 558.573 86.2451 558.573 127.76 702.758 c 1,6,-1
 256.475 668.796 l 1,7,8
 230.52 526.926 230.52 526.926 233.538 475.238 c 0,9,10
 243.504 230.165 243.504 230.165 561.779 183.378 c 0,11,12
 658.67 169.135 658.67 169.135 812 167.48 c 0,13,14
 1014.98 165.392 1014.98 165.392 1131.14 176.459 c 0,15,16
 1498.38 209.988 1498.38 209.988 1513.52 391.131 c 0,17,-1
 1517.43 436.814 l 2,18,-1
 1477.43 1393.96 l 5,19,-1
 1634.3 1470.96 l 5,20,-1
 1634.3 406.814 l 2,21,22
 1634.3 388.169 1634.3 388.169 1631.66 352.496 c 0,23,24
 1628.02 303.31 1628.02 303.31 1609.88 251.267 c 2,25,-1
 1609.01 248.771 l 1,26,-1
 1610.58 246.649 l 2,27,28
 1667.75 169.38 1667.75 169.38 1795.97 169.38 c 2,29,-1
 1860.22 169.38 l 1,30,-1
 1860.22 0.5 l 1,31,-1
 1737.12 0.5 l 2,32,33
 1634.54 0.500048 1634.54 0.500048 1503.77 107.786 c 2,34,-1
 1501.03 110.034 l 1,35,-1
 1498 108.188 l 2,36,37
 1407.87 53.2802 1407.87 53.2802 1262.3 28.4834 c 0,38,39
 1081.43 -1.44922 1081.43 -1.44922 751.279 0 c 0,0,1
1045.77 1181.06 m 1,40,-1
 1045.77 1129.12 l 1,41,42
 976.084 1123.99 976.084 1123.99 937.614 1109.81 c 0,43,44
 840.33 1073.34 840.33 1073.34 840.33 1025.55 c 0,45,46
 840.33 989.411 840.33 989.411 859.004 965.402 c 0,47,48
 876.196 942.479 876.196 942.479 956.292 930.699 c 0,49,50
 1005.69 923.436 1005.69 923.436 1030.62 900.664 c 0,51,52
 1055.05 878.351 1055.05 878.351 1055.05 838.298 c 0,53,54
 1055.05 742.199 1055.05 742.199 965.839 691.751 c 0,55,56
 896.97 652.804 896.97 652.804 802.689 651.929 c 0,57,58
 742.751 651.929 742.751 651.929 690.148 660.715 c 1,59,-1
 690.148 719.167 l 1,60,61
 750.907 711.158 750.907 711.158 793.059 711.158 c 0,62,63
 867.867 711.158 867.867 711.158 916.098 730.146 c 0,64,65
 1000.45 762.542 1000.45 762.542 1000.45 816.898 c 0,66,67
 1000.45 877.435 1000.45 877.435 902.515 893.393 c 0,68,69
 845.717 902.048 845.717 902.048 814.966 933.498 c 128,-1,70
 784.138 965.029 784.138 965.029 785.373 1021.9 c 0,71,72
 787.251 1097.81 787.251 1097.81 857.895 1133.61 c 0,73,74
 938.2 1174.24 938.2 1174.24 1045.77 1181.06 c 1,40,-1
EndSplineSet
EndChar
StartChar: uniFEDB
Encoding: 65243 65243 229
Width: 902
VWidth: 2181
GlyphClass: 2
Flags: W
AnchorPoint: "Anchor-10" 209.5 1383 basechar 0
AnchorPoint: "Anchor-7" 308 -227 basechar 0
LayerCount: 2
Fore
SplineSet
621.913085938 270.282226562 m 0,0,1
 556.359375 0 556.359375 0 160.875 0 c 2,2,-1
 -10.400390625 0 l 1,3,-1
 -10.400390625 174.978515625 l 1,4,-1
 240.876953125 175.129882812 l 2,5,6
 454.545898438 175.001953125 454.545898438 175.001953125 481.9375 310.581054688 c 0,7,8
 497.839986242 387.531157672 497.839986242 387.531157672 421.645507812 472.122070312 c 2,9,-1
 160.685546875 761.845703125 l 2,10,11
 70.0441347255 862.800875958 70.0441347255 862.800875958 67.376953125 931.883789062 c 0,12,13
 62.9267578125 1046.82226562 62.9267578125 1046.82226562 182.950195312 1111.609375 c 2,14,-1
 862.25 1478.28808594 l 1,15,-1
 862.25 1304.65429688 l 1,16,-1
 204.693359375 948.208984375 l 1,17,-1
 533.227539062 585.008789062 l 2,18,19
 664.266981986 439.697810758 664.266981986 439.697810758 621.913085938 270.282226562 c 0,0,1
EndSplineSet
EndChar
StartChar: uniFEDC
Encoding: 65244 65244 260
Width: 1009
VWidth: 2181
GlyphClass: 2
Flags: W
AnchorPoint: "Anchor-10" 206.5 1380 basechar 0
AnchorPoint: "Anchor-7" 317 -220 basechar 0
LayerCount: 2
Fore
SplineSet
610.875 261.974 m 1,0,1
 586.814 0 586.814 0 157.875 0 c 2,2,-1
 -20.4004 0 l 1,3,-1
 -20.4004 168.98 l 1,4,-1
 237.875 169.13 l 2,5,6
 453.551 169.255 453.551 169.255 481.875 306.974 c 0,7,8
 499.56 392.964 499.56 392.964 425.875 469.13 c 2,9,-1
 135.918 768.85 l 2,10,11
 69.5224 837.481 69.5224 837.481 66.5156 911.344 c 0,12,13
 60.6749 1055.36 60.6749 1055.36 203.571 1129.88 c 2,14,-1
 856.25 1470.26 l 1,15,-1
 856.25 1303.44 l 1,16,-1
 196.908 946.027 l 1,17,18
 910.875 169.045 910.875 169.045 997.725 169.291 c 6,19,-1
 1029.15 169.38 l 1,20,-1
 1029.15 0.5 l 1,21,-1
 979.41 0.5 l 2,22,23
 834.479 0.5 834.479 0.5 610.875 261.974 c 1,0,1
EndSplineSet
EndChar
StartChar: uniFEDE
Encoding: 65246 65246 232
Width: 1415
VWidth: 2181
GlyphClass: 2
Flags: W
AnchorPoint: "Anchor-10" 443.5 883.5 basechar 0
AnchorPoint: "Anchor-7" 393.974 -771.619 basechar 0
LayerCount: 2
Fore
SplineSet
1148.56738281 76 m 5,0,1
 1134 -29 1134 -29 1094.38476562 -123.240234375 c 4,2,3
 978 -398 978 -398 638.123046875 -399.997070312 c 4,4,5
 354 -402 354 -402 197 -237 c 4,6,7
 84 -118 84 -118 91.20703125 91.7578125 c 4,8,9
 98 291 98 291 180.145507812 485.856445312 c 5,10,-1
 328 441 l 5,11,12
 245 245 245 245 244 77 c 4,13,14
 243 -66 243 -66 331 -144 c 4,15,16
 444 -245 444 -245 658.268554688 -242.953125 c 4,17,18
 822 -241 822 -241 919 -141 c 4,19,20
 1033.13045861 -23.8661082671 1033.13045861 -23.8661082671 1031.54003906 209.798828125 c 6,21,-1
 1029.91015625 449.26171875 l 5,22,-1
 998.844726562 1410.0078125 l 5,23,-1
 1161.79003906 1477.52050781 l 5,24,-1
 1162.28027344 401.302734375 l 6,25,26
 1162.00047048 175.379882812 1162.00047048 175.379882812 1372.71972656 175.379882812 c 6,27,-1
 1425.96972656 175.379882812 l 5,28,-1
 1425.96972656 0.5 l 5,29,-1
 1385.88183594 0.5 l 6,30,31
 1223 0 1223 0 1148.56738281 76 c 5,0,1
EndSplineSet
EndChar
StartChar: uniFEDF
Encoding: 65247 65247 233
Width: 530
VWidth: 2181
GlyphClass: 2
Flags: W
AnchorPoint: "Anchor-10" 300.73 1590 basechar 0
AnchorPoint: "Anchor-7" 233.73 -191.5 basechar 0
LayerCount: 2
Fore
SplineSet
399.169921875 439.690429688 m 6,0,1
 399.169921875 207.030273438 399.169921875 207.030273438 305.249023438 103.515136719 c 132,-1,2
 211.328125 0 211.328125 0 64.7001953125 0 c 6,3,-1
 -10.400390625 0 l 5,4,-1
 -10.400390625 174.98046875 l 5,5,-1
 15.849609375 174.98046875 l 6,6,7
 192.270592256 175.005490518 192.270592256 175.005490518 250.2265625 310.172851562 c 4,8,9
 276.520418831 371.496493577 276.520418831 371.496493577 273.291992188 452.41015625 c 6,10,-1
 235.2109375 1406.95800781 l 5,11,-1
 399.169921875 1478.61523438 l 5,12,-1
 399.169921875 439.690429688 l 6,0,1
EndSplineSet
EndChar
StartChar: uniFEE0
Encoding: 65248 65248 234
Width: 621
VWidth: 2181
GlyphClass: 2
Flags: W
AnchorPoint: "Anchor-10" 280.73 1586 basechar 0
AnchorPoint: "Anchor-7" 246.73 -241.5 basechar 0
LayerCount: 2
Fore
SplineSet
83.7001953125 0 m 2,0,-1
 -10.400390625 0 l 1,1,-1
 -10.400390625 174.98046875 l 1,2,-1
 25.3876953125 174.98046875 l 2,3,4
 130.166992188 175.286132812 130.166992188 175.286132812 191.042480469 229.779296875 c 128,-1,5
 251.91796875 284.272460938 251.91796875 284.272460938 247.291992188 403.193359375 c 2,6,-1
 208.211914062 1407.90722656 l 1,7,-1
 371.169921875 1477.50292969 l 1,8,-1
 371.169921875 403.305664062 l 2,9,10
 371.00237364 285.250398049 371.00237364 285.250398049 426.63009307 230.114456837 c 128,-1,11
 482.2578125 174.978515625 482.2578125 174.978515625 597.610351562 174.98046875 c 2,12,-1
 631.860351562 174.98046875 l 1,13,-1
 631.860351562 0 l 1,14,-1
 538.759765625 0 l 2,15,16
 390.719726562 0 390.719726562 0 289.58984375 107.86328125 c 1,17,18
 191.712890625 0 191.712890625 0 83.7001953125 0 c 2,0,-1
EndSplineSet
EndChar
StartChar: uniFEE2
Encoding: 65250 65250 246
Width: 1114
VWidth: 2181
GlyphClass: 2
Flags: W
AnchorPoint: "Anchor-10" 551.5 991 basechar 0
AnchorPoint: "Anchor-7" 189.188 -758.422 basechar 0
LayerCount: 2
Fore
SplineSet
460.696 385.557 m 1,0,1
 467.831 185.716 467.831 185.716 581.936 103.5 c 0,2,3
 653.199 53.0382 653.199 53.0382 736.818 78.832 c 0,4,5
 837.416 109.863 837.416 109.863 799.78 345.552 c 0,6,7
 781.811 458.34 781.811 458.34 676.227 460.49 c 0,8,9
 539.359 463.225 539.359 463.225 460.696 385.557 c 1,0,1
950.226 242.499 m 1,10,11
 998.888595022 169.167879494 998.888595022 169.167879494 1108.54 168.713 c 2,12,-1
 1133.99023438 168.607421875 l 1,13,-1
 1133.99023438 0.7099609375 l 1,14,-1
 1094.5 0.709961 l 2,15,16
 954 1 954 1 902.283 79.2559 c 1,17,18
 879 -51 879 -51 759.452 -69.9502 c 0,19,20
 648 -87 648 -87 558.5 -51.5 c 0,21,22
 346 34 346 34 334.035 340.126 c 1,23,24
 273 320 273 320 235.452 229.095 c 0,25,26
 208.156214285 164.370419966 208.156214285 164.370419966 217.452 19.0947 c 2,27,-1
 254.452 -559.146 l 1,28,-1
 98.9141 -637 l 1,29,-1
 98.9141 78.5107 l 2,30,31
 99 343 99 343 273.936 469 c 0,32,33
 419 574 419 574 596.452 596.05 c 0,34,35
 732 613 732 613 810.297 568.451 c 0,36,37
 896 520 896 520 924.689 406.351 c 0,38,39
 939 348 939 348 950.226 242.499 c 1,10,11
EndSplineSet
EndChar
StartChar: uniFEE3
Encoding: 65251 65251 237
Width: 914
VWidth: 2181
GlyphClass: 2
Flags: W
AnchorPoint: "Anchor-10" 383.69 973.5 basechar 0
AnchorPoint: "Anchor-7" 347.69 -206.5 basechar 0
LayerCount: 2
Fore
SplineSet
814 148 m 4,0,1
 749 -85 749 -85 485.076171875 -35.6171875 c 4,2,3
 349 -10 349 -10 253.772460938 88.5244140625 c 5,4,5
 198 0 198 0 38.98046875 0 c 6,6,-1
 -10.400390625 0 l 5,7,-1
 -10.400390625 174.978515625 l 5,8,-1
 53.958984375 174.978515625 l 6,9,10
 132 175 132 175 156.7890625 234.573242188 c 4,11,12
 212 363 212 363 212.432617188 365.080078125 c 4,13,14
 316 635 316 635 458.571289062 664.0078125 c 4,15,16
 680 709 680 709 781.19921875 447.60546875 c 4,17,18
 849 272 849 272 814 148 c 4,0,1
312.204101562 231.517578125 m 5,19,20
 354 171 354 171 446 132 c 4,21,22
 597 68 597 68 652 161.896484375 c 4,23,24
 704 249 704 249 630.033203125 403.875976562 c 4,25,26
 589 490 589 490 522.138671875 498.5234375 c 4,27,28
 462 506 462 506 405 420 c 4,29,30
 339 322 339 322 312.204101562 231.517578125 c 5,19,20
EndSplineSet
EndChar
StartChar: uniFEE4
Encoding: 65252 65252 238
Width: 1026
VWidth: 2181
GlyphClass: 2
Flags: W
AnchorPoint: "Anchor-10" 435.79 939.5 basechar 0
AnchorPoint: "Anchor-7" 399.79 -215.5 basechar 0
LayerCount: 2
Fore
SplineSet
312.204101562 231.517578125 m 5,0,1
 354 171 354 171 446 132 c 4,2,3
 597 68 597 68 652 161.896484375 c 4,4,5
 704 249 704 249 630.033203125 403.875976562 c 4,6,7
 589 490 589 490 522.138671875 498.5234375 c 4,8,9
 462 506 462 506 405 420 c 4,10,11
 339 322 339 322 312.204101562 231.517578125 c 5,0,1
798 101.8125 m 5,12,13
 721 -80 721 -80 485.076171875 -35.6171875 c 4,14,15
 349 -10 349 -10 253.772460938 88.5244140625 c 5,16,17
 198 0 198 0 38.98046875 0 c 6,18,-1
 -10.400390625 0 l 5,19,-1
 -10.400390625 174.978515625 l 5,20,-1
 53.958984375 174.978515625 l 6,21,22
 132 175 132 175 156.7890625 234.573242188 c 4,23,24
 167.842978412 256.226711892 167.842978412 256.226711892 212.432617188 365.080078125 c 4,25,26
 323 635 323 635 458.571289062 664.0078125 c 4,27,28
 679 710 679 710 781.19921875 447.60546875 c 4,29,30
 802 394 802 394 813.538085938 344 c 28,31,32
 854.977958025 175.08984375 854.977958025 175.08984375 1006.28027344 175.08984375 c 6,33,-1
 1039.1796875 175.08984375 l 5,34,-1
 1039.1796875 0.2099609375 l 5,35,-1
 1003.43457031 0.2099609375 l 2,36,37
 863 0 863 0 798 101.8125 c 5,12,13
EndSplineSet
EndChar
StartChar: uniFEEA
Encoding: 65258 65258 254
Width: 1101
VWidth: 2181
GlyphClass: 2
Flags: W
AnchorPoint: "Anchor-10" 633.95 1185.81 basechar 0
AnchorPoint: "Anchor-7" 432.88 -186 basechar 0
LayerCount: 2
Fore
SplineSet
724.225 382.9 m 1,0,1
 709.277 543.87 709.277 543.87 691.057 657.895 c 1,2,3
 234.96 620.738 234.96 620.738 245.56 457.439 c 0,4,5
 250.405 385.651 250.405 385.651 323.239 369.366 c 0,6,7
 471.737 337.775 471.737 337.775 724.225 382.9 c 1,0,1
741.024 241.225 m 1,8,9
 215 161 215 161 109.717 360.518 c 0,10,11
 94 390 94 390 91.6035 434.102 c 0,12,13
 75 743 75 743 671.697 791.211 c 1,14,15
 672 817 672 817 658.096 916.032 c 1,16,-1
 801.058 951.035 l 17,17,18
 814 828 814 828 860.285 426.781 c 0,19,20
 884 221 884 221 958.819 189 c 0,21,22
 1004.86646139 169.057832706 1004.86646139 169.057832706 1095.29980469 169 c 2,23,-1
 1121.25976562 168.983398438 l 1,24,-1
 1121.25976562 0 l 1,25,-1
 1074.33984375 0 l 2,26,27
 779 0 779 0 741.024 241.225 c 1,8,9
EndSplineSet
EndChar
StartChar: uniFEEB
Encoding: 65259 65259 245
Width: 1151
VWidth: 2181
GlyphClass: 2
Flags: W
AnchorPoint: "Anchor-10" 558.801 1216.23 basechar 0
AnchorPoint: "Anchor-7" 382.542 -227.946 basechar 0
LayerCount: 2
Fore
SplineSet
718.814453125 500.755859375 m 1,0,1
 744.9765625 402.856445312 744.9765625 402.856445312 707.041992188 325.293457031 c 128,-1,2
 669.084623255 247.68385351 669.084623255 247.68385351 547.173828125 173.451171875 c 1,3,4
 885.403006513 34.8574115486 885.403006513 34.8574115486 922.014648438 224.751953125 c 0,5,6
 942.325195312 330.3046875 942.325195312 330.3046875 718.814453125 500.755859375 c 1,0,1
384.204101562 71.1669921875 m 1,7,8
 227.71535631 0 227.71535631 0 8.6298828125 0 c 2,9,-1
 -10.400390625 0 l 1,10,-1
 -10.400390625 174.98046875 l 1,11,-1
 50.0380859375 174.98046875 l 2,12,13
 50.9130859375 175.006835938 50.9130859375 175.006835938 160.051757812 175.848632812 c 1,14,15
 98.12109375 256.771484375 98.12109375 256.771484375 102.577148438 362.849121094 c 128,-1,16
 107.033203125 468.926757812 107.033203125 468.926757812 162.78515625 556.46875 c 0,17,18
 238.068359375 673.54296875 238.068359375 673.54296875 360.868164062 711.461914062 c 0,19,20
 395.14453125 721.912109375 395.14453125 721.912109375 419.127929688 720.387695312 c 1,21,22
 379.261469302 742.662618636 379.261469302 742.662618636 355.325195312 755.424804688 c 1,23,-1
 408.123046875 877.004882812 l 1,24,-1
 742.919921875 664.387695312 l 1,25,26
 1039.8248712 467.72808978 1039.8248712 467.72808978 1059.05078125 297.028320312 c 0,27,28
 1090.46972656 6.0625 1090.46972656 6.0625 809.905273438 -24.4150390625 c 0,29,30
 634.567382812 -43.0625 634.567382812 -43.0625 384.204101562 71.1669921875 c 1,7,8
589.259765625 384.08203125 m 0,31,32
 646.928710938 513.131835938 646.928710938 513.131835938 568.875976562 564.987304688 c 0,33,34
 430.724609375 657.59765625 430.724609375 657.59765625 321.080078125 525.465820312 c 0,35,36
 264.178710938 456.896484375 264.178710938 456.896484375 253.570800781 390.840332031 c 0,37,38
 230.759799539 248.794731063 230.759799539 248.794731063 375.420898438 201.435546875 c 1,39,40
 543.208007812 283.59375 543.208007812 283.59375 589.259765625 384.08203125 c 0,31,32
EndSplineSet
EndChar
StartChar: uniFEEC
Encoding: 65260 65260 276
Width: 951
VWidth: 2181
GlyphClass: 2
Flags: W
AnchorPoint: "Anchor-7" 273.88 -693.244 basechar 0
AnchorPoint: "Anchor-10" 413.76 1082.74 basechar 0
LayerCount: 2
Fore
SplineSet
306.334 168.9 m 1,0,-1
 346.352 171 l 2,1,2
 423.275 175.037 423.275 175.037 463.441 233.983 c 0,3,4
 531.688 337.077 531.688 337.077 531.688 480.296 c 0,5,6
 531.688 559.219 531.688 559.219 515.352 586 c 0,7,8
 488.885 626 488.885 626 445.352 626 c 0,9,10
 357.021 626 357.021 626 320.652 464.883 c 0,11,12
 284.365 302.876 284.365 302.876 306.334 168.9 c 1,0,-1
216.939 596.344 m 0,13,14
 288.514 761.573 288.514 761.573 446.353 760.505 c 0,15,16
 557.07 759.703 557.07 759.703 611.354 697.505 c 0,17,18
 678.082 621.047 678.082 621.047 678.082 506.893 c 0,19,20
 678.082 228.464 678.082 228.464 505.686 71.377 c 0,21,22
 427.352 0 427.352 0 320.352 0 c 1,23,24
 310.993 -203.244 310.993 -203.244 416.353 -351.244 c 1,25,26
 456.99 -62.1719 456.99 -62.1719 660.352 89 c 0,27,28
 764.352 167.08 764.352 167.08 899.353 170.08 c 1,29,-1
 975.64 169.414 l 1,30,-1
 975.64 0.463867 l 1,31,-1
 857.352 0 l 2,32,33
 605.5 -0.987638 605.5 -0.987638 482.353 -556.244 c 1,34,35
 201.37 -458.511 201.37 -458.511 173.825 0 c 1,36,-1
 -20.9355 0 l 5,37,-1
 -20.9355 168.98 l 5,38,-1
 171.988 169.038 l 1,39,40
 162.138 471.695 162.138 471.695 216.939 596.344 c 0,13,14
EndSplineSet
EndChar
StartChar: uniFEEE
Encoding: 65262 65262 258
Width: 848
VWidth: 2181
GlyphClass: 2
Flags: W
AnchorPoint: "Anchor-10" 322 1059 basechar 0
AnchorPoint: "Anchor-7" 499.515 -614.238 basechar 0
LayerCount: 2
Fore
SplineSet
431.844726562 514.635742188 m 4,0,1
 301.952148438 511.717773438 301.952148438 511.717773438 255.977539062 361.103515625 c 4,2,3
 197.52734375 173.248046875 197.52734375 173.248046875 404.77734375 157.263671875 c 4,4,5
 455.948242188 153.107421875 455.948242188 153.107421875 595.29296875 160.203125 c 5,6,7
 596.30078125 272.515625 596.30078125 272.515625 579.559570312 354.0078125 c 4,8,9
 546.65234375 518.22265625 546.65234375 518.22265625 431.844726562 514.635742188 c 4,0,1
726.693359375 0.5 m 5,10,11
 700 -181 700 -181 579 -322 c 4,12,13
 421 -506 421 -506 91.26953125 -506.138671875 c 5,14,-1
 26.26953125 -380.138671875 l 5,15,16
 521 -350 521 -350 587.073242188 1.443359375 c 5,17,18
 563 1 563 1 417.828125 1.2392578125 c 4,19,20
 240 1 240 1 165.993164062 86.703125 c 4,21,22
 89 175 89 175 103.61328125 301.323242188 c 4,23,24
 123 472 123 472 234.264648438 578.435546875 c 4,25,26
 333 674 333 674 447.137695312 666.823242188 c 4,27,28
 599 657 599 657 666.98046875 515.567382812 c 4,29,30
 721 405 721 405 733.013671875 256.368164062 c 4,31,32
 740 176 740 176 740.505859375 168.47265625 c 5,33,-1
 868.66015625 169.353515625 l 5,34,-1
 868.66015625 0.5 l 5,35,-1
 726.693359375 0.5 l 5,10,11
EndSplineSet
EndChar
StartChar: uniFEF0
Encoding: 65264 65264 280
Width: 1511
VWidth: 2181
GlyphClass: 2
Flags: W
AnchorPoint: "Anchor-10" 610.857 463.69 basechar 0
AnchorPoint: "Anchor-7" 383.067 -757.505 basechar 0
LayerCount: 2
Fore
SplineSet
1072.81 147.91 m 4,0,1
 1196.24 215.597 1196.24 215.597 1506.81 169.534 c 5,2,3
 1519.35 169.456 1519.35 169.456 1531.89 169.377 c 5,4,-1
 1531.89 0.500977 l 5,5,-1
 1346.78 0.544922 l 5,6,7
 1189.23 10.626 1189.23 10.626 1145.02 -1 c 4,8,9
 1107.26 -10.3145 1107.26 -10.3145 1113.02 -48.0811 c 4,10,11
 1120.67 -92.5742 1120.67 -92.5742 1207.02 -93.0801 c 4,12,13
 1375.28 -94.5067 1375.28 -94.5067 1375.28 -223.426 c 4,14,15
 1375.28 -290.426 1375.28 -290.426 1333.28 -355.426 c 4,16,17
 1248.78 -480.298 1248.78 -480.298 1066.28 -568.426 c 4,18,19
 854.012 -670.932 854.012 -670.932 588.834 -656.799 c 4,20,21
 201.051 -636.132 201.051 -636.132 113.548 -358.625 c 4,22,23
 70.3182 -222.486 70.3182 -222.486 116.629 -62.7383 c 4,24,25
 175.793 142.91 175.793 142.91 303.162 299.59 c 5,26,-1
 418.812 225.91 l 5,27,28
 325.447 89.9983 325.447 89.9983 276.939 -66.9443 c 4,29,30
 226.829 -229.072 226.829 -229.072 288 -344 c 4,31,32
 359.517 -477.305 359.517 -477.305 593 -495 c 4,33,34
 829.334 -512.911 829.334 -512.911 1015.28 -433.426 c 4,35,36
 1138.77 -380.641 1138.77 -380.641 1223.81 -294.47 c 4,37,38
 1280.36 -235.865 1280.36 -235.865 1189.02 -221.08 c 4,39,40
 1118.64 -209.687 1118.64 -209.687 1071.02 -194.081 c 4,41,42
 956.604 -156.585 956.604 -156.585 954.02 -50.0811 c 4,43,44
 950.034 80.5811 950.034 80.5811 1072.81 147.91 c 4,0,1
EndSplineSet
EndChar
StartChar: uniFEFB
Encoding: 65275 65275 291
Width: 1019
VWidth: 2181
GlyphClass: 3
Flags: W
AnchorPoint: "Anchor-9" 857.69 1573 baselig 0
AnchorPoint: "Anchor-6" 859.69 -215.5 baselig 0
AnchorPoint: "Anchor-6" 155.5 -264.908 baselig 1
AnchorPoint: "Anchor-9" 174.565 1442.84 baselig 1
LayerCount: 2
Fore
SplineSet
688.347 443.065 m 1,0,1
 492.597 219.066 492.597 219.066 205.097 158.881 c 1,2,3
 269.128 116.321 269.128 116.321 535.347 132.065 c 0,4,5
 721.329 143.016 721.329 143.016 755.347 189.065 c 0,6,7
 815.739 271.817 815.739 271.817 688.347 443.065 c 1,0,1
934.097 1058.88 m 6,8,9
 931.002 917.699 931.002 917.699 909.347 786.065 c 0,10,11
 888.953 664.066 888.953 664.066 779.347 528.065 c 1,12,13
 905.446 357.126 905.446 357.126 889.347 204.065 c 0,14,15
 880.428 117.345 880.428 117.345 829.347 67 c 0,16,17
 749.85 -10.0156 749.85 -10.0156 457.347 -7.93457 c 0,18,19
 257.881 -6.53223 257.881 -6.53223 175.564 16.0918 c 1,20,21
 97.6641 52.7393 97.6641 52.7393 65.3467 132.065 c 0,22,23
 43.3467 188.066 43.3467 188.066 61.5645 234.092 c 1,24,25
 355.413 320.066 355.413 320.066 591.347 536.065 c 1,26,-1
 79.3467 1189.07 l 5,27,-1
 166.935 1328.01 l 5,28,-1
 677.347 624.065 l 1,29,30
 758.615 724.288 758.615 724.288 781.097 878.622 c 0,31,32
 797.741 1001.79 797.741 1001.79 784.789 1403 c 5,33,-1
 943.129 1470.96 l 5,34,-1
 934.097 1058.88 l 6,8,9
EndSplineSet
LCarets2: 1 0 
Ligature2: "'rlig' Required Ligatures in Arabic lookup 16 subtable" uniFEDF uniFE8E
EndChar
StartChar: uniFEFC
Encoding: 65276 65276 272
Width: 1206
VWidth: 2181
GlyphClass: 3
Flags: W
AnchorPoint: "Anchor-9" 882.69 1569 baselig 0
AnchorPoint: "Anchor-6" 883.69 -212.5 baselig 0
AnchorPoint: "Anchor-6" 248 -266 baselig 1
AnchorPoint: "Anchor-9" 112.5 1469.5 baselig 1
LayerCount: 2
Fore
SplineSet
755.397 158.989 m 0,0,1
 613 2 613 2 333.99 0.5 c 0,2,3
 209 0 209 0 124.08 16.1084 c 1,4,-1
 124.08 177.976 l 1,5,6
 350 135 350 135 416.17578125 162.750976562 c 1,7,8
 297 993 297 993 100.397 1260 c 1,9,-1
 235.354 1365.22 l 1,10,11
 431 1042 431 1042 538.9453125 199.926757812 c 1,12,13
 737 321 737 321 795 528 c 24,14,15
 835.900442787 672.647907418 835.900442787 672.647907418 823.396 907.989 c 2,16,-1
 797.248 1400.11 l 1,17,-1
 954.13 1470.11 l 1,18,-1
 954.13 632.5 l 2,19,20
 954 460 954 460 991.728 349.948 c 0,21,22
 1052.87136537 169.379882812 1052.87136537 169.379882812 1180.58984375 169.379882812 c 2,23,-1
 1226.94042969 169.379882812 l 1,24,-1
 1226.94042969 0.5 l 1,25,-1
 1181.91015625 0.5 l 2,26,27
 926 0 926 0 857.397 347.989 c 1,28,29
 815 226 815 226 755.397 158.989 c 0,0,1
EndSplineSet
LCarets2: 1 0
Ligature2: "'rlig' Required Ligatures in Arabic lookup 16 subtable" uniFEE0 uniFE8E
EndChar
StartChar: NameMe.337
Encoding: 65562 -1 296
Width: 621
VWidth: 2181
Flags: W
LayerCount: 2
Fore
SplineSet
83.7001953125 0 m 2,0,-1
 -10.400390625 0 l 1,1,-1
 -10.400390625 174.98046875 l 1,2,-1
 25.3876953125 174.98046875 l 2,3,4
 127 175 127 175 191.042480469 229.779296875 c 0,5,6
 253.906360949 283.919355539 253.906360949 283.919355539 247.291992188 403.193359375 c 2,7,-1
 208.211914062 1107.90722656 l 5,8,-1
 371.169921875 1177.50292969 l 5,9,-1
 371.169921875 403.305664062 l 2,10,11
 371 285 371 285 426.63009307 230.114456837 c 0,12,13
 482.019621775 174.98046875 482.019621775 174.98046875 597.610351562 174.98046875 c 2,14,-1
 631.860351562 174.98046875 l 1,15,-1
 631.860351562 0 l 1,16,-1
 538.759765625 0 l 2,17,18
 391 0 391 0 289.58984375 107.86328125 c 1,19,20
 192 0 192 0 83.7001953125 0 c 2,0,-1
EndSplineSet
EndChar
StartChar: NameMe.338
Encoding: 65563 -1 297
Width: 530
VWidth: 2181
Flags: W
LayerCount: 2
Fore
SplineSet
399.169921875 439.690429688 m 2,0,1
 399.169921875 207.187564361 399.169921875 207.187564361 305.249023438 103.515136719 c 0,2,3
 211 0 211 0 64.7001953125 0 c 2,4,-1
 -10.400390625 0 l 1,5,-1
 -10.400390625 174.98046875 l 1,6,-1
 15.849609375 174.98046875 l 2,7,8
 185 175 185 175 250.2265625 310.172851562 c 0,9,10
 277.197447847 366.411712177 277.197447847 366.411712177 273.291992188 452.41015625 c 2,11,-1
 235.2109375 1290.95800781 l 5,12,-1
 399.169921875 1362.61523438 l 5,13,-1
 399.169921875 439.690429688 l 2,0,1
EndSplineSet
EndChar
StartChar: arabic_2dots
Encoding: 65537 -1 294
Width: 452
GlyphClass: 2
Flags: W
LayerCount: 2
Fore
SplineSet
402.918 179.271 m 6,0,-1
 416.414 167.223 l 6,1,2
 426.229 158.463 426.229 158.463 433.901 149.583 c 4,3,4
 465.712 112.333 465.712 112.333 460.837 73.8486 c 4,5,6
 456.03 35.8975 456.03 35.8975 416.571 1.89844 c 6,7,-1
 390.65 -20.4336 l 6,8,9
 363.602 -43.7412 363.602 -43.7412 339.188 -19.0625 c 6,10,-1
 297.539 23.041 l 5,11,-1
 260.963 52.3916 l 6,12,13
 247.57 63.8896 247.57 63.8896 247.85 78.9688 c 4,14,15
 248.113 93.2881 248.113 93.2881 259.713 105.501 c 6,16,-1
 299.528 147.417 l 5,17,-1
 335.669 181.21 l 6,18,19
 367.452 210.93 367.452 210.93 402.918 179.271 c 6,0,-1
125.918 179.271 m 6,20,-1
 139.414 167.223 l 6,21,22
 149.229 158.463 149.229 158.463 156.901 149.583 c 4,23,24
 188.712 112.333 188.712 112.333 183.837 73.8486 c 4,25,26
 179.03 35.8975 179.03 35.8975 139.571 1.89844 c 6,27,-1
 113.65 -20.4336 l 6,28,29
 86.6016 -43.7412 86.6016 -43.7412 62.1885 -19.0625 c 6,30,-1
 20.5391 23.041 l 5,31,-1
 -16.0371 52.3916 l 6,32,33
 -29.4297 63.8896 -29.4297 63.8896 -29.1504 78.9688 c 4,34,35
 -28.8867 93.2881 -28.8867 93.2881 -17.2871 105.501 c 6,36,-1
 22.5283 147.417 l 5,37,-1
 58.6689 181.21 l 6,38,39
 90.4521 210.93 90.4521 210.93 125.918 179.271 c 6,20,-1
EndSplineSet
EndChar
StartChar: arabic_3dots
Encoding: 65538 -1 275
Width: 455
GlyphClass: 2
Flags: W
LayerCount: 2
Fore
SplineSet
253.666 396 m 2,0,-1
 332.166 317.5 l 2,1,2
 354.756 294.91 354.756 294.91 332.666 272.82 c 2,3,-1
 250.666 190.82 l 2,4,5
 226.416 166.57 226.416 166.57 202.666 190.32 c 2,6,-1
 120.666 272.32 l 2,7,8
 98.0762 294.91 98.0762 294.91 123.666 320.5 c 2,9,-1
 200.166 397 l 2,10,11
 226.416 423.25 226.416 423.25 253.666 396 c 2,0,-1
395.75 171.59 m 2,12,-1
 474.25 93.09 l 2,13,14
 496.84 70.5002 496.84 70.5002 474.75 48.4103 c 2,15,-1
 392.75 -33.5897 l 2,16,17
 368.5 -57.8397 368.5 -57.8397 344.75 -34.0897 c 2,18,-1
 262.75 47.9103 l 2,19,20
 240.16 70.5001 240.16 70.5001 265.75 96.09 c 2,21,-1
 342.25 172.59 l 2,22,23
 368.5 198.84 368.5 198.84 395.75 171.59 c 2,12,-1
112.75 171.59 m 2,24,-1
 191.25 93.09 l 2,25,26
 213.84 70.5002 213.84 70.5002 191.75 48.4103 c 2,27,-1
 109.75 -33.5897 l 2,28,29
 85.5 -57.8397 85.5 -57.8397 61.75 -34.0897 c 2,30,-1
 -20.25 47.9103 l 2,31,32
 -42.8398 70.5001 -42.8398 70.5001 -17.25 96.09 c 2,33,-1
 59.25 172.59 l 2,34,35
 85.5 198.84 85.5 198.84 112.75 171.59 c 2,24,-1
EndSplineSet
EndChar
StartChar: arabic_3dots_a
Encoding: 65539 -1 266
Width: 460
GlyphClass: 2
Flags: W
LayerCount: 2
Fore
SplineSet
253.12109375 -11.4267578125 m 2,0,-1
 331.62109375 -89.9267578125 l 2,1,2
 356.333007812 -114.637695312 356.333007812 -114.637695312 332.12109375 -138.849609375 c 2,3,-1
 250.12109375 -220.849609375 l 2,4,5
 223.75 -247.220703125 223.75 -247.220703125 197.87890625 -221.349609375 c 2,6,-1
 115.87890625 -139.349609375 l 2,7,8
 91.16796875 -114.637695312 91.16796875 -114.637695312 118.87890625 -86.9267578125 c 2,9,-1
 195.75390625 -10.0517578125 l 2,10,11
 224.153320312 17.541015625 224.153320312 17.541015625 253.12109375 -11.4267578125 c 2,0,-1
400.87109375 196.7109375 m 2,12,-1
 479.37109375 118.2109375 l 2,13,14
 504.083007812 93.5 504.083007812 93.5 479.87109375 69.2890625 c 2,15,-1
 397.87109375 -12.7109375 l 2,16,17
 371.5 -39.08203125 371.5 -39.08203125 345.62890625 -13.2109375 c 2,18,-1
 263.62890625 68.7890625 l 2,19,20
 238.916992188 93.5 238.916992188 93.5 266.62890625 121.2109375 c 2,21,-1
 343.12890625 197.7109375 l 2,22,23
 371.5 226.083007812 371.5 226.083007812 400.87109375 196.7109375 c 2,12,-1
117.87109375 196.7109375 m 2,24,-1
 196.37109375 118.2109375 l 2,25,26
 221.083007812 93.5 221.083007812 93.5 196.87109375 69.2890625 c 2,27,-1
 114.87109375 -12.7109375 l 2,28,29
 88.5 -39.08203125 88.5 -39.08203125 62.62890625 -13.2109375 c 2,30,-1
 -19.37109375 68.7890625 l 2,31,32
 -44.08203125 93.5 -44.08203125 93.5 -16.37109375 121.2109375 c 2,33,-1
 60.12890625 197.7109375 l 2,34,35
 88.5 226.083007812 88.5 226.083007812 117.87109375 196.7109375 c 2,24,-1
EndSplineSet
EndChar
StartChar: arabic_dot
Encoding: 65536 -1 263
Width: 156
GlyphClass: 2
Flags: W
LayerCount: 2
Fore
SplineSet
106.87109375 188.7109375 m 2,0,-1
 185.37109375 110.2109375 l 2,1,2
 210.083007812 85.5 210.083007812 85.5 185.87109375 61.2890625 c 2,3,-1
 103.87109375 -20.7109375 l 2,4,5
 77.5 -47.0830078125 77.5 -47.0830078125 51.62890625 -21.2109375 c 2,6,-1
 -30.37109375 60.7890625 l 2,7,8
 -55.0830078125 85.5 -55.0830078125 85.5 -27.37109375 113.2109375 c 2,9,-1
 49.12890625 189.7109375 l 2,10,11
 77.5 218.083007812 77.5 218.083007812 106.87109375 188.7109375 c 2,0,-1
EndSplineSet
EndChar
StartChar: arabic_gaf_bar
Encoding: 65550 -1 307
Width: 674
GlyphClass: 2
Flags: W
LayerCount: 2
Fore
SplineSet
666 1673 m 5,0,-1
 0 1321 l 5,1,-1
 0 1430 l 5,2,-1
 666 1782 l 5,3,-1
 666 1673 l 5,0,-1
EndSplineSet
EndChar
StartChar: arabic_ring
Encoding: 65549 -1 276
Width: 444
GlyphClass: 2
Flags: W
LayerCount: 2
Fore
SplineSet
251.822265625 133.330078125 m 0,0,1
 316 153.372624555 316 153.372624555 316 222.5 c 0,2,3
 316 261.7578125 316 261.7578125 288.86328125 289.37890625 c 128,-1,4
 261.7265625 317 261.7265625 317 222 317 c 128,-1,5
 182.2421875 317 182.2421875 317 155.12109375 289.87890625 c 128,-1,6
 128 262.7578125 128 262.7578125 128 236.057617188 c 128,-1,7
 128 209.357421875 128 209.357421875 131.014648438 197.286132812 c 0,8,9
 148.061324207 129 148.061324207 129 222 129 c 0,10,11
 237.95703125 129 237.95703125 129 251.822265625 133.330078125 c 0,0,1
444 223 m 128,-1,13
 444 129.771484375 444 129.771484375 380.12109375 64.87890625 c 0,14,15
 315.2421875 0 315.2421875 0 222 0 c 128,-1,16
 128.743164062 0 128.743164062 0 64.3715820312 64.87890625 c 128,-1,17
 0 129.7578125 0 129.7578125 0 223 c 128,-1,18
 0 316.2421875 0 316.2421875 64.37890625 380.62109375 c 128,-1,19
 128.7578125 445 128.7578125 445 222 445 c 128,-1,20
 315.228515625 445 315.228515625 445 380.12109375 381.12109375 c 0,21,12
 444 316.228515625 444 316.228515625 444 223 c 128,-1,13
EndSplineSet
EndChar
StartChar: uni066E.fina
Encoding: 65540 -1 297
Width: 2051
VWidth: 2181
GlyphClass: 2
Flags: W
AnchorPoint: "Anchor-10" 703 1060.5 basechar 0
AnchorPoint: "Anchor-7" 703 -179 basechar 0
LayerCount: 2
Fore
SplineSet
857.779 0 m 0,0,1
 537.802 -1.16387e-05 537.802 -1.16387e-05 379 66.3779 c 4,2,3
 121.263 174.11 121.263 174.11 96.376 450.233 c 0,4,5
 86.2451 558.573 86.2451 558.573 127.76 702.758 c 1,6,-1
 256.475 668.796 l 1,7,8
 236.975 538.099 236.975 538.099 239.538 475.238 c 0,9,10
 249.472 231.803 249.472 231.803 561.779 183.378 c 0,11,12
 638.162 171.572 638.162 171.572 805.097 171.017 c 24,13,14
 1261.8 169.881 1261.8 169.881 1421 245.379 c 0,15,16
 1610 335.379 1610 335.379 1635.31 537.795 c 1,17,-1
 1744.21 537.795 l 1,18,19
 1749.72 467.396 1749.72 467.396 1760.34 406.745 c 0,20,21
 1785.85 261.106 1785.85 261.106 1838.48 216.897 c 0,22,23
 1895.06 169.38 1895.06 169.38 2004.97 169.38 c 2,24,-1
 2071.17 169.38 l 1,25,-1
 2071.17 0.5 l 1,26,-1
 1960.03 0.5 l 2,27,28
 1738.57 0.5 1738.57 0.5 1652 209.879 c 1,29,30
 1605.3 152.057 1605.3 152.057 1471 88.8789 c 0,31,32
 1282.07 1.28917e-06 1282.07 1.28917e-06 857.779 0 c 0,0,1
EndSplineSet
EndChar
StartChar: uni066E.init.math
Encoding: 65560 -1 287
Width: 883
VWidth: 2181
GlyphClass: 2
Flags: W
LayerCount: 2
Fore
SplineSet
578.8828125 95.0927734375 m 0,0,1
 505.790039062 8.5 505.790039062 8.5 345.400390625 8.5 c 2,2,-1
 -3.400390625 8.5 l 1,3,-1
 -3.400390625 175.379882812 l 1,4,-1
 286.549804688 175.379882812 l 2,5,6
 506.990234375 175.379882812 506.990234375 175.379882812 506.990234375 403.309570312 c 2,7,-1
 506.990234375 620.5 l 1,8,-1
 673.870117188 620.5 l 1,9,-1
 673.870117188 403.309570312 l 2,10,11
 673.870117188 209.239257812 673.870117188 209.239257812 578.8828125 95.0927734375 c 0,0,1
EndSplineSet
EndChar
StartChar: uni066F.fina
Encoding: 65546 -1 273
Width: 1534
VWidth: 2181
GlyphClass: 2
Flags: W
AnchorPoint: "Anchor-10" 390 903 basechar 0
AnchorPoint: "Anchor-7" 473.645 -715.82 basechar 0
LayerCount: 2
Fore
SplineSet
1101.91308594 521.63671875 m 0,0,1
 976.33984375 518.768554688 976.33984375 518.768554688 928.842773438 363.212890625 c 0,2,3
 871.508618872 178.950363217 871.508618872 178.950363217 1075.01074219 163.254882812 c 0,4,5
 1128.16503906 159.155273438 1128.16503906 159.155273438 1269.3125 166.060546875 c 1,6,7
 1271.68403229 525.998758992 1271.68403229 525.998758992 1101.91308594 521.63671875 c 0,0,1
1260.9296875 2.4501953125 m 1,8,9
 1237.41275422 1.40294484568 1237.41275422 1.40294484568 1073.16047867 1.20733179784 c 128,-1,10
 908.908203125 1.01171875 908.908203125 1.01171875 832.127441406 90.09375 c 128,-1,11
 755.346679688 179.17578125 755.346679688 179.17578125 770.633789062 304.67578125 c 0,12,13
 791.795898438 483.637695312 791.795898438 483.637695312 896.691894531 585.275390625 c 128,-1,14
 1001.58789062 686.913085938 1001.58789062 686.913085938 1117.31835938 679.817382812 c 0,15,16
 1278.21484375 670.243164062 1278.21484375 670.243164062 1346.68652344 526.861328125 c 0,17,18
 1399.98339844 415.403320312 1399.98339844 415.403320312 1413.00097656 259.600585938 c 0,19,20
 1418.4296875 189.829101562 1418.4296875 189.829101562 1420.12011719 175.469726562 c 1,21,-1
 1494.54980469 175.379882812 l 1,22,-1
 1553.95996094 175.379882812 l 1,23,-1
 1553.95996094 0.4736328125 l 1,24,-1
 1416.80859375 1.6787109375 l 1,25,26
 1400.48828125 -262.430664062 1400.48828125 -262.430664062 1213.36523438 -428.6796875 c 128,-1,27
 1026.2421875 -594.928710938 1026.2421875 -594.928710938 710.576171875 -588.028320312 c 128,-1,28
 394.91015625 -581.127929688 394.91015625 -581.127929688 243.910644531 -427.45703125 c 128,-1,29
 92.9111328125 -273.786132812 92.9111328125 -273.786132812 94.798828125 -9.6328125 c 1,30,-1
 92.9443359375 -9.6328125 l 1,31,-1
 92.9443359375 -3.6328125 l 1,32,-1
 94.8623046875 -3.6328125 l 1,33,34
 97.8337051393 202.608947591 97.8337051393 202.608947591 189.244140625 391.708007812 c 1,35,-1
 344.44140625 352.2578125 l 1,36,37
 257.894402332 125.291991811 257.894402332 125.291991811 258.783203125 -10.8974609375 c 0,38,39
 261.64453125 -428.735351562 261.64453125 -428.735351562 735.452148438 -423.85546875 c 0,40,41
 1029.85253906 -421.25390625 1029.85253906 -421.25390625 1165.69433594 -261.41015625 c 0,42,43
 1257.72949219 -153.111328125 1257.72949219 -153.111328125 1260.9296875 2.4501953125 c 1,8,9
EndSplineSet
EndChar
StartChar: uni06A1.fina
Encoding: 65543 -1 270
Width: 1880
VWidth: 2181
GlyphClass: 2
Flags: W
AnchorPoint: "Anchor-10" 530 1170.5 basechar 0
AnchorPoint: "Anchor-7" 637 -220.5 basechar 0
LayerCount: 2
Fore
SplineSet
1607.49902344 252.818359375 m 1,0,1
 1689.03384502 175.379882812 1689.03384502 175.379882812 1825.88964844 175.379882812 c 2,2,-1
 1890.59960938 175.379882812 l 1,3,-1
 1890.59960938 0.5 l 1,4,-1
 1818.2265625 0.5 l 2,5,6
 1591.34082031 0.0009765625 1591.34082031 0.0009765625 1441.62597656 148.674804688 c 1,7,8
 1318.10546875 65.908203125 1318.10546875 65.908203125 1203.76416016 32.9541015625 c 128,-1,9
 1089.42285156 0 1089.42285156 0 810.411132812 0 c 128,-1,10
 531.399414062 0 531.399414062 0 371.846679688 66.6083984375 c 0,11,12
 114.16796875 173.9296875 114.16796875 173.9296875 91.0107421875 440.741210938 c 0,13,14
 79.9693315609 568.223042294 79.9693315609 568.223042294 119.670898438 709.411132812 c 1,15,-1
 253.858398438 674.005859375 l 1,16,17
 232.010451207 534.839516434 232.010451207 534.839516434 234.53515625 478.3671875 c 0,18,19
 244.891601562 237.587890625 244.891601562 237.587890625 556.2421875 189.341796875 c 0,20,21
 603.270507812 181.994140625 603.270507812 181.994140625 730.403808594 178.751953125 c 0,22,23
 916.085338056 174.01665301 916.085338056 174.01665301 1058.811712 186.14699838 c 128,-1,24
 1201.53808594 198.27734375 1201.53808594 198.27734375 1253.07226562 223.721679688 c 1,25,26
 1194.24641085 265.379865068 1194.24641085 265.379865068 1158.83789062 310.245117188 c 0,27,28
 1035.57519531 469.5234375 1035.57519531 469.5234375 1104.95703125 642.221679688 c 1,29,30
 1161.79433698 769.409680476 1161.79433698 769.409680476 1308.06269583 820.351324613 c 128,-1,31
 1454.33105469 871.29296875 1454.33105469 871.29296875 1588.52929688 791.581054688 c 0,32,33
 1719.71135784 713.880165935 1719.71135784 713.880165935 1744.81054688 573.630859375 c 0,34,35
 1780.34215086 381.42375766 1780.34215086 381.42375766 1607.49902344 252.818359375 c 1,0,1
1289.69140625 637.26171875 m 128,-1,37
 1236.05957031 583.62403313 1236.05957031 583.62403313 1236.05957031 514.163085938 c 0,38,39
 1236.05957031 402.455186121 1236.05957031 402.455186121 1327.92480469 348.590820312 c 0,40,41
 1391.91698298 311.074452428 1391.91698298 311.074452428 1467.21289062 330.729492188 c 0,42,43
 1512.74430827 342.617351285 1512.74430827 342.617351285 1557.46199788 387.332113142 c 128,-1,44
 1602.1796875 432.046875 1602.1796875 432.046875 1602.1796875 507.83984375 c 128,-1,45
 1602.1796875 583.631835938 1602.1796875 583.631835938 1548.54882812 637.263671875 c 128,-1,46
 1494.90820312 690.896484375 1494.90820312 690.896484375 1419.12011719 690.896484375 c 128,-1,36
 1343.33203125 690.896484375 1343.33203125 690.896484375 1289.69140625 637.26171875 c 128,-1,37
EndSplineSet
EndChar
StartChar: uni06A1.init
Encoding: 65544 -1 271
Width: 821
VWidth: 2181
GlyphClass: 2
Flags: W
AnchorPoint: "Anchor-10" 408.53 1227.5 basechar 0
AnchorPoint: "Anchor-7" 383.53 -167 basechar 0
LayerCount: 2
Fore
SplineSet
411.190429688 848.134765625 m 0,0,1
 294.330078125 844.791992188 294.330078125 844.791992188 254.438476562 685.881835938 c 0,2,3
 215.303756642 528.148002977 215.303756642 528.148002977 352.877464259 504.598415551 c 128,-1,4
 490.451171875 481.048828125 490.451171875 481.048828125 584.801757812 552.9609375 c 1,5,6
 591.303158375 577.272864059 591.303158375 577.272864059 574.222379969 669.068072654 c 0,7,8
 540.205501215 851.880963656 540.205501215 851.880963656 411.190429688 848.134765625 c 0,0,1
645.881835938 872.860351562 m 0,9,10
 765.220060852 673.178556684 765.220060852 673.178556684 721.23828125 328.63671875 c 0,11,12
 699.033203125 146.47265625 699.033203125 146.47265625 563.870117188 60.46875 c 0,13,14
 468.837890625 0 468.837890625 0 199.23046875 0 c 2,15,-1
 -20.400390625 0 l 1,16,-1
 -20.400390625 174.98046875 l 1,17,-1
 85 174.98046875 l 2,18,19
 405.6171875 174.98046875 405.6171875 174.98046875 446.88671875 189.818359375 c 0,20,21
 571.973632812 235.453125 571.973632812 235.453125 577.7109375 399.612304688 c 1,22,23
 521.670357571 352.88698845 521.670357571 352.88698845 413.007542067 350.922498131 c 128,-1,24
 304.344726562 348.958007812 304.344726562 348.958007812 246.524414062 371.862304688 c 128,-1,25
 188.704101562 394.766601562 188.704101562 394.766601562 153.19921875 442.079101562 c 0,26,27
 90.0537109375 526.225585938 90.0537109375 526.225585938 106.801269531 672.469238281 c 128,-1,28
 123.548828125 818.712890625 123.548828125 818.712890625 215.58984375 915.333984375 c 0,29,30
 329.172851562 1034.5703125 329.172851562 1034.5703125 476.643554688 1003.54882812 c 0,31,32
 580.712549389 981.658480317 580.712549389 981.658480317 645.881835938 872.860351562 c 0,9,10
EndSplineSet
EndChar
StartChar: uni06A1.medi
Encoding: 65545 -1 282
Width: 1004
VWidth: 2181
GlyphClass: 2
Flags: W
AnchorPoint: "Anchor-10" 510.26 1007 basechar 0
AnchorPoint: "Anchor-7" 510.26 -170 basechar 0
LayerCount: 2
Fore
SplineSet
321.427 488.602 m 128,-1,1
 321.427 412.165 321.427 412.165 376.822 358.013 c 128,-1,2
 432.395 303.689 432.395 303.689 511.033 303.689 c 128,-1,3
 589.669 303.689 589.669 303.689 645.241 358.013 c 128,-1,4
 700.636 412.163 700.636 412.163 700.636 488.602 c 128,-1,5
 700.636 565.032 700.636 565.032 645.241 619.185 c 128,-1,6
 589.668 673.509 589.668 673.509 511.033 673.509 c 128,-1,7
 432.397 673.509 432.397 673.509 376.822 619.185 c 128,-1,0
 321.427 565.038 321.427 565.038 321.427 488.602 c 128,-1,1
682.467 783.729 m 0,8,9
 813 723 813 723 848.132 581.492 c 0,10,11
 871 489 871 489 835.273 372.179 c 0,12,13
 804 271 804 271 672.043 195.906 c 1,14,15
 742.2103653 167.916084823 742.2103653 167.916084823 950.046 168.98 c 2,16,-1
 1024.91992188 169.36328125 l 5,17,-1
 1024.91992188 0.490234375 l 5,18,-1
 813.721 0 l 2,19,20
 665.317893396 1.42108547152e-14 665.317893396 1.42108547152e-14 513.111 105.742 c 2,21,-1
 510.343 107.665 l 1,22,-1
 507.521 105.818 l 2,23,24
 346 0 346 0 207.79 0 c 2,25,-1
 -20.4004 0 l 1,26,-1
 -20.4004 168.98 l 1,27,-1
 70.4902 168.98 l 2,28,29
 259 169 259 169 335.784 198.648 c 1,30,31
 237 263 237 263 190.285 367.918 c 0,32,33
 146 465 146 465 177.74 583.014 c 0,34,35
 219 732 219 732 365.881 791.366 c 0,36,37
 431 818 431 818 515.542 818.513 c 0,38,39
 607 819 607 819 682.467 783.729 c 0,8,9
EndSplineSet
EndChar
